<?xml version="1.0" encoding="UTF-8" standalone="no"?>
<!-- Created with Inkscape (http://www.inkscape.org/) -->

<svg
   width="2891.0867mm"
   height="1085mm"
   viewBox="0 0 2891.0867 1085"
   version="1.1"
   id="svg5"
   inkscape:version="1.3 (0e150ed6c4, 2023-07-21)"
   sodipodi:docname="objective.svg"
   xml:space="preserve"
   xmlns:inkscape="http://www.inkscape.org/namespaces/inkscape"
   xmlns:sodipodi="http://sodipodi.sourceforge.net/DTD/sodipodi-0.dtd"
   xmlns="http://www.w3.org/2000/svg"
   xmlns:svg="http://www.w3.org/2000/svg"><sodipodi:namedview
     id="namedview7"
     pagecolor="#ffffff"
     bordercolor="#999999"
     borderopacity="1"
     inkscape:pageshadow="0"
     inkscape:pageopacity="0"
     inkscape:pagecheckerboard="0"
     inkscape:document-units="mm"
     showgrid="false"
     inkscape:zoom="0.5663054"
     inkscape:cx="4985.8257"
     inkscape:cy="1058.6161"
     inkscape:window-width="1920"
     inkscape:window-height="1147"
     inkscape:window-x="-8"
     inkscape:window-y="-8"
     inkscape:window-maximized="1"
     inkscape:current-layer="layer1"
     inkscape:showpageshadow="0"
     inkscape:deskcolor="#d1d1d1" /><defs
     id="defs2"><inkscape:path-effect
       effect="bspline"
       id="path-effect21"
       is_visible="true"
       lpeversion="1"
       weight="33.333333"
       steps="2"
       helper_size="0"
       apply_no_weight="true"
       apply_with_weight="true"
       only_selected="false"
       uniform="false" /><inkscape:path-effect
       effect="bspline"
       id="path-effect19"
       is_visible="true"
       lpeversion="1"
       weight="33.333333"
       steps="2"
       helper_size="0"
       apply_no_weight="true"
       apply_with_weight="true"
       only_selected="false"
       uniform="false" /><rect
       x="8108.6987"
       y="3298.5734"
       width="444.98956"
       height="127.13988"
       id="rect18" /><rect
       x="8500.7133"
       y="1723.4516"
       width="218.96312"
       height="38.848295"
       id="rect15" /><rect
       x="7974.4955"
       y="1592.7801"
       width="92.911077"
       height="29.341477"
       id="rect3" /><inkscape:path-effect
       effect="bspline"
       id="path-effect63909"
       is_visible="true"
       lpeversion="1"
       weight="33.333333"
       steps="2"
       helper_size="0"
       apply_no_weight="true"
       apply_with_weight="true"
       only_selected="false"
       uniform="false" /><inkscape:path-effect
       effect="bspline"
       id="path-effect47513"
       is_visible="true"
       lpeversion="1"
       weight="33.333333"
       steps="2"
       helper_size="0"
       apply_no_weight="true"
       apply_with_weight="true"
       only_selected="false"
       uniform="false" /><inkscape:path-effect
       effect="bspline"
       id="path-effect47507"
       is_visible="true"
       lpeversion="1"
       weight="33.333333"
       steps="2"
       helper_size="0"
       apply_no_weight="true"
       apply_with_weight="true"
       only_selected="false"
       uniform="false" /><inkscape:path-effect
       effect="bspline"
       id="path-effect47501"
       is_visible="true"
       lpeversion="1"
       weight="33.333333"
       steps="2"
       helper_size="0"
       apply_no_weight="true"
       apply_with_weight="true"
       only_selected="false"
       uniform="false" /><inkscape:path-effect
       effect="bspline"
       id="path-effect47495"
       is_visible="true"
       lpeversion="1"
       weight="33.333333"
       steps="2"
       helper_size="0"
       apply_no_weight="true"
       apply_with_weight="true"
       only_selected="false"
       uniform="false" /><marker
       style="overflow:visible"
       id="TriangleOutM"
       refX="0"
       refY="0"
       orient="auto"
       inkscape:stockid="TriangleOutM"
       inkscape:isstock="true"><path
         transform="scale(0.4)"
         style="fill:context-stroke;fill-rule:evenodd;stroke:context-stroke;stroke-width:1pt"
         d="M 5.77,0 -2.88,5 V -5 Z"
         id="path42156" /></marker><marker
       style="overflow:visible"
       id="Arrow2Send"
       refX="0"
       refY="0"
       orient="auto"
       inkscape:stockid="Arrow2Send"
       inkscape:isstock="true"><path
         transform="matrix(-0.3,0,0,-0.3,0.69,0)"
         d="M 8.7185878,4.0337352 -2.2072895,0.01601326 8.7185884,-4.0017078 c -1.7454984,2.3720609 -1.7354408,5.6174519 -6e-7,8.035443 z"
         style="fill:context-stroke;fill-rule:evenodd;stroke:context-stroke;stroke-width:0.625;stroke-linejoin:round"
         id="path42044" /></marker><marker
       style="overflow:visible"
       id="Arrow1Send"
       refX="0"
       refY="0"
       orient="auto"
       inkscape:stockid="Arrow1Send"
       inkscape:isstock="true"><path
         transform="matrix(-0.2,0,0,-0.2,-1.2,0)"
         style="fill:context-stroke;fill-rule:evenodd;stroke:context-stroke;stroke-width:1pt"
         d="M 0,0 5,-5 -12.5,0 5,5 Z"
         id="path42026" /></marker><marker
       style="overflow:visible"
       id="Arrow1Lend"
       refX="0"
       refY="0"
       orient="auto"
       inkscape:stockid="Arrow1Lend"
       inkscape:isstock="true"><path
         transform="matrix(-0.8,0,0,-0.8,-10,0)"
         style="fill:context-stroke;fill-rule:evenodd;stroke:context-stroke;stroke-width:1pt"
         d="M 0,0 5,-5 -12.5,0 5,5 Z"
         id="path42014" /></marker><inkscape:path-effect
       effect="bspline"
       id="path-effect41929"
       is_visible="true"
       lpeversion="1"
       weight="33.333333"
       steps="2"
       helper_size="0"
       apply_no_weight="true"
       apply_with_weight="true"
       only_selected="false"
       uniform="false" /><rect
       x="2981.7319"
       y="209.7701"
       width="644.29382"
       height="174.8084"
       id="rect2250" /><rect
       x="2981.7319"
       y="209.7701"
       width="644.29382"
       height="174.8084"
       id="rect10326" /><rect
       x="2981.7319"
       y="209.7701"
       width="644.29382"
       height="174.8084"
       id="rect13383" /><rect
       x="2981.7319"
       y="209.7701"
       width="644.29382"
       height="174.8084"
       id="rect15240" /><rect
       x="2981.7319"
       y="209.7701"
       width="644.29382"
       height="174.8084"
       id="rect17597" /><rect
       x="2981.7319"
       y="209.7701"
       width="644.29382"
       height="174.8084"
       id="rect20526" /><rect
       x="2981.7319"
       y="209.7701"
       width="644.29382"
       height="174.8084"
       id="rect23431" /><rect
       x="7974.4955"
       y="1592.7801"
       width="92.911077"
       height="29.341477"
       id="rect17" /></defs><g
     inkscape:label="Layer 1"
     inkscape:groupmode="layer"
     id="layer1"
     transform="translate(458.05276,-60.967729)"><text
       xml:space="preserve"
       transform="matrix(0.26458333,0,0,0.26458333,-458.05276,60.967729)"
       id="text15"
       style="font-size:10.6667px;line-height:1.25;font-family:sans-serif;letter-spacing:0px;word-spacing:0px;white-space:pre;shape-inside:url(#rect15);display:inline" /><text
       xml:space="preserve"
       transform="matrix(0.26458333,0,0,0.26458333,-458.05276,60.967729)"
       id="text18"
       style="font-size:10.6667px;line-height:1.25;font-family:sans-serif;letter-spacing:0px;word-spacing:0px;white-space:pre;shape-inside:url(#rect18);display:inline" /><path
       style="fill:#d400aa;stroke-width:0.999996"
       d="m 471.4503,357.60987 c -0.84159,-0.71701 -2.74982,-1.87994 -4.24051,-2.58418 -2.42363,-1.14506 -2.94669,-1.22104 -4.9438,-0.71815 -1.22835,0.30932 -2.71629,0.56235 -3.30647,0.56235 -0.59016,0 -6.05442,-2.76246 -12.14275,-6.13881 -9.77524,-5.421 -11.32119,-6.12481 -13.2203,-6.01897 -1.79211,0.0999 -2.62115,-0.21593 -4.97333,-1.89439 -2.44302,-1.74334 -2.80552,-2.2174 -2.69483,-3.52434 0.11925,-1.40817 -0.23168,-1.73049 -5.19989,-4.7762 l -5.32776,-3.2661 -3.44127,0.56832 c -4.91627,0.81189 -7.59421,0.70566 -9.62831,-0.38197 -2.41912,-1.2935 -3.63378,-3.5764 -3.9413,-7.40757 l -0.25772,-3.21064 -2.66764,-1.59558 c -2.66548,-1.59429 -2.66789,-1.59812 -2.99696,-4.74651 -0.18115,-1.73307 -0.32935,-4.92928 -0.32935,-7.10279 0,-4.45514 -1.38384,-9.71792 -3.14358,-11.95504 -0.60823,-0.77326 -2.31198,-2.17745 -3.78612,-3.12043 -3.50564,-2.24256 -4.81335,-5.3988 -5.18529,-12.51506 l -0.25687,-4.91457 -2.10232,-0.28192 c -2.81762,-0.37785 -4.91207,-2.65603 -4.89637,-5.3259 0.0157,-2.65373 1.56075,-5.78314 4.30285,-8.71466 l 2.332,-2.4931 -2.12545,-4.49353 -2.12544,-4.49353 0.62769,-5.64624 c 0.88717,-7.98013 0.79767,-7.75493 3.33598,-8.39408 3.17096,-0.79845 5.19172,-3.2806 5.64875,-6.93844 l 0.35692,-2.85673 9.92884,-4.80513 c 5.46086,-2.64282 10.68485,-5.07852 11.6089,-5.41265 1.58827,-0.57432 2.62372,-0.2278 18.95458,6.3435 50.6649,20.38677 53.71963,21.65987 52.64594,21.94064 -0.59769,0.15629 -4.09559,0.56162 -7.77312,0.90073 l -6.68638,0.61653 -9.12059,-2.68528 c -12.80046,-3.76873 -12.60651,-3.75787 -15.2721,-0.8545 -1.19407,1.30059 -2.39125,2.36614 -2.66042,2.36792 -0.26916,0.002 -5.8361,-1.98473 -12.37095,-4.41444 -7.00943,-2.60616 -12.06379,-4.22837 -12.32599,-3.95607 -0.24444,0.25386 -0.521,0.91428 -0.61458,1.46761 -0.14697,0.86901 0.97617,1.44043 8.24563,4.19506 4.62867,1.75397 10.51218,3.93284 13.07447,4.84195 l 4.65871,1.65291 2.29758,-1.88269 c 1.274,-1.04395 2.94778,-1.92921 3.75706,-1.9871 0.88514,-0.0634 5.47655,1.61923 11.6677,4.27573 l 10.20821,4.38014 9.12272,-0.96333 9.1227,-0.96334 5.73909,2.03066 c 3.15647,1.11686 6.2368,2.03065 6.84518,2.03065 0.86503,0 10.37289,-2.53398 16.46249,-4.38748 0.8834,-0.26888 1.24814,-1.98339 0.51006,-2.39759 -0.21042,-0.11808 -3.82535,0.78027 -8.03325,1.99631 -4.20788,1.21606 -8.22447,2.20227 -8.92579,2.1916 -0.70133,-0.0107 -3.34082,-0.75043 -5.86552,-1.6439 l -4.59042,-1.62447 -0.51004,-2.96769 -0.51006,-2.9677 -18.61673,-7.50766 c -10.23915,-4.12922 -25.70452,-10.35791 -34.36748,-13.84153 -8.66296,-3.48362 -15.47722,-6.42507 -15.14281,-6.53654 0.33442,-0.11147 7.9961,-1.51241 17.02594,-3.11319 l 16.41793,-2.91053 10.71098,3.68906 c 5.89102,2.02898 17.71134,6.12852 26.2674,9.11009 8.55601,2.98157 17.85161,6.2185 20.65684,7.19318 2.80527,0.97467 7.1532,2.51217 9.66208,3.41665 l 4.56165,1.64451 1.02865,3.21617 c 0.96595,3.02015 1.10752,3.19636 2.32295,2.89131 0.71185,-0.17867 1.37028,-0.40085 1.46316,-0.49373 0.0929,-0.0928 -0.36569,-1.93625 -1.01904,-4.09638 -1.09085,-3.60652 -1.3338,-3.98278 -2.97308,-4.60406 -0.98182,-0.37212 -7.06414,-2.50545 -13.5162,-4.74074 -6.45212,-2.23527 -19.30528,-6.70687 -28.56263,-9.93686 -9.25731,-3.23 -19.30654,-6.72462 -22.3316,-7.76584 -3.02507,-1.04122 -5.41183,-1.98142 -5.30393,-2.08932 0.1079,-0.1079 3.94275,-0.62012 8.52185,-1.13825 l 8.32565,-0.94206 9.98444,3.20425 c 5.49145,1.76235 15.14867,4.84457 21.46047,6.84937 26.5722,8.44004 26.1511,8.28 27.28748,10.37085 0.56105,1.03229 1.29894,1.87749 1.6397,1.87825 0.7996,0.002 1.822,1.90211 1.39505,2.59293 -0.18028,0.29167 -0.0527,1.19434 0.28349,2.00596 0.46295,1.11761 1.22608,1.67987 3.14544,2.31737 1.6388,0.54433 2.68223,1.22848 2.95319,1.93637 0.35765,0.93426 0.12817,1.24016 -1.56616,2.08772 -1.89491,0.94792 -2.58876,1.81218 -1.45482,1.81218 0.29173,0 1.46663,-0.47763 2.61093,-1.0614 3.39971,-1.73442 3.51054,-0.93234 0.95169,6.88838 l -2.2381,6.84053 -5.00782,2.1383 c -2.75427,1.17608 -5.00778,2.32896 -5.00778,2.56197 0,1.09944 1.33405,0.90185 5.18854,-0.76852 4.94428,-2.14263 4.94502,-2.14227 5.25541,2.52748 0.0745,1.1221 0.42616,3.09889 0.78125,4.39287 0.8327,3.03419 0.3527,5.4737 -1.54737,7.86464 -0.83439,1.04996 -1.51709,2.1951 -1.51709,2.54473 0,0.34963 -1.23509,1.13697 -2.74461,1.74965 -2.62086,1.06373 -2.81675,1.27727 -4.34458,4.73632 l -1.59996,3.62237 -1.28511,-1.74432 c -1.20529,-1.636 -5.70513,-5.53305 -6.32202,-5.47516 -1.71394,0.16085 -1.96108,-0.14859 -1.69615,-2.12392 0.62133,-4.63225 -3.95296,-7.24411 -6.98575,-3.98879 -1.27574,1.36938 -1.37548,4.51314 -0.20001,6.3071 0.45876,0.70019 0.74567,1.34123 0.63755,1.42451 -0.10813,0.0833 -2.37708,1.49557 -5.04204,3.13835 -5.7942,3.57179 -6.50022,4.15346 -5.84123,4.81248 0.31422,0.31417 2.10572,-0.052 4.98119,-1.01833 3.48479,-1.17102 4.71642,-1.38805 5.49928,-0.96907 0.82801,0.44313 1.38032,0.24564 3.08187,-1.10199 l 2.07303,-1.64191 3.39119,1.10984 c 2.50793,0.82075 4.15787,1.80568 6.33501,3.78158 l 2.94385,2.67178 -0.90368,3.13036 c -0.84974,2.94357 -1.14382,3.32014 -4.92923,6.312 l -4.0256,3.18164 0.30506,4.65399 0.30508,4.65402 -4.18521,0.0233 c -3.39206,0.0189 -6.79494,0.66738 -17.95642,3.42196 -12.77089,3.15178 -18.98064,4.44706 -21.36563,4.45659 -0.67836,0.004 -0.37628,-0.38527 1.02012,-1.31025 6.71897,-4.45065 9.73147,-13.37716 7.04413,-20.87289 -0.69684,-1.94368 -2.9097,-4.44955 -5.22702,-5.91917 -1.90968,-1.21111 -2.88327,-1.47601 -5.41613,-1.47364 -1.69836,0 -3.93296,0.23752 -4.96576,0.52435 -2.87139,0.79751 -6.6031,3.59906 -8.51507,6.39252 l -1.72207,2.51611 0.25576,-6.07487 c 0.2827,-6.71489 -0.10533,-8.89973 -2.03431,-11.45481 -2.68266,-3.55338 -7.34843,-4.406 -11.19029,-2.04491 -3.18278,1.95605 -5.15269,8.19195 -3.75179,11.8766 0.57733,1.5185 2.25031,8.93828 5.11229,22.67323 3.60958,17.32277 7.7232,35.45716 8.40293,37.04324 0.8105,1.89125 3.10851,4.0951 5.02517,4.81922 3.20102,1.20946 7.36982,0.0579 10.2217,-2.82339 1.50161,-1.51709 3.89885,-5.78773 3.8988,-6.94558 -3e-5,-0.77219 5.74784,-13.09845 6.12062,-13.12562 0.14027,-0.0103 0.64716,0.6706 1.12649,1.51295 1.7643,3.10041 6.3581,3.08541 8.66013,-0.0284 1.37938,-1.86573 1.7049,-1.88042 2.37338,-0.10711 2.39447,6.35219 5.3685,12.76297 6.43938,13.88073 0.71081,0.74193 1.2924,1.59842 1.2924,1.90326 0,1.29839 -4.33583,2.32791 -10.71097,2.54326 -8.83076,0.29825 -8.34284,0.0991 -9.43011,3.84838 -0.51024,1.75957 -1.24198,3.71561 -1.62607,4.34679 -0.97009,1.59409 -3.52796,1.50475 -5.52032,-0.19278 z m -60.52865,-30.21713 c 0.47542,-0.30142 -0.80988,-1.32381 -4.31833,-3.43505 -6.21767,-3.74145 -5.79442,-3.59449 -5.79442,-2.01189 0,1.85993 1.25197,4.66126 2.37493,5.31403 1.1169,0.64921 6.77022,0.74631 7.73782,0.13291 z m 12.17741,-5.92596 c 3.53946,-1.53386 4.32228,-1.70559 5.65549,-1.24084 1.38026,0.48114 1.9516,0.31125 5.29005,-1.5731 2.05846,-1.1619 3.92996,-2.2942 4.1589,-2.5162 0.22893,-0.22204 -0.40499,-3.47557 -1.40872,-7.23009 -1.57928,-5.90743 -2.04987,-7.03243 -3.49562,-8.35654 -0.91886,-0.8416 -2.40161,-3.0372 -3.295,-4.87918 -1.643,-3.38753 -3.24506,-4.81339 -5.02853,-4.47554 -0.71107,0.13471 -1.07153,0.84132 -1.39169,2.72808 -0.69481,4.09465 -1.82999,6.37158 -3.17659,6.37158 -1.63324,0 -4.12121,-2.25709 -4.81918,-4.37199 -0.32463,-0.98358 -0.60803,-4.59103 -0.62981,-8.01653 -0.035,-5.51567 0.11556,-6.65981 1.31655,-10.00154 0.74589,-2.07539 2.0744,-4.89271 2.95228,-6.26077 3.5504,-5.53281 10.85295,-10.44957 19.60092,-13.19717 l 3.59108,-1.12789 7.04167,2.74376 7.04163,2.74374 4.66749,5.52923 c 4.57551,5.42034 4.70261,5.52342 6.4538,5.2336 0.98248,-0.16262 3.16344,-0.30848 4.84663,-0.32415 l 3.06025,-0.0285 3.50432,-4.24538 3.50428,-4.24538 4.95645,-1.32909 c 4.1949,-1.12488 5.20031,-1.23704 6.54357,-0.73002 1.36051,0.51355 1.73641,0.46398 2.63275,-0.34723 1.15065,-1.04132 1.32763,-2.36853 0.51766,-3.88199 -0.68202,-1.27438 -3.2555,-1.31618 -4.16102,-0.0676 -0.41237,0.56862 -2.79338,1.49231 -6.24512,2.42272 l -5.57865,1.50373 -3.5699,4.20789 -3.56986,4.20787 h -3.67257 -3.67255 l -4.1876,-4.97295 -4.18756,-4.97294 -7.77462,-3.10001 -7.77461,-3.1 -3.52428,0.94581 c -1.93835,0.52019 -6.08514,2.2095 -9.2151,3.75405 -6.60097,3.25736 -11.11941,7.26603 -13.8132,12.25476 -0.89588,1.65915 -2.41065,3.76624 -3.36613,4.68246 -1.94311,1.86319 -3.103,5.31785 -3.63629,10.83031 -0.17879,1.84808 -0.65474,3.65224 -1.07542,4.07666 -0.66895,0.67482 -0.9689,0.64586 -2.63991,-0.25501 -4.52293,-2.43849 -5.37652,-8.16536 -2.16704,-14.53908 0.91639,-1.81986 2.22171,-3.97208 2.90071,-4.7827 1.67179,-1.99585 1.39721,-3.78687 -0.80756,-5.26778 -2.21755,-1.48949 -3.86769,-1.47522 -5.38953,0.0466 -2.79206,2.79206 -5.77934,10.79473 -6.23495,16.7029 -0.17043,2.2101 -0.39798,4.0184 -0.50568,4.0184 -1.10015,0 -3.82123,-1.7511 -4.75173,-3.05784 -0.94722,-1.33026 -1.16484,-2.28818 -1.14289,-5.03067 0.0223,-2.78298 0.40696,-4.2978 2.15542,-8.488 2.90083,-6.95187 2.91378,-7.04025 1.22613,-8.36776 -2.30049,-1.80957 -4.21174,-1.29766 -6.18631,1.65691 -2.34751,3.5126 -2.8518,5.86953 -2.5272,11.81131 0.38629,7.07074 1.33303,9.89755 3.78533,11.30238 3.33074,1.90802 5.98652,4.55697 7.43094,7.41183 1.13527,2.24381 1.49513,3.89814 1.92601,8.85411 0.69968,8.04758 0.75378,8.24599 2.49373,9.14573 0.82358,0.42591 1.56621,0.77435 1.65027,0.77435 0.0841,0 0.15283,-2.50788 0.15283,-5.5731 0,-4.86475 0.13617,-5.75613 1.07127,-7.01313 1.22259,-1.64344 3.26413,-2.23728 3.26413,-0.94944 0,0.44908 -0.33318,0.9444 -0.74039,1.10066 -1.31867,0.506 -1.95743,3.67531 -1.67437,8.3077 0.14728,2.41029 0.41137,4.72662 0.58685,5.14742 0.25085,0.60147 6.41645,4.24673 8.45679,4.99989 0.23015,0.0849 0.29354,-2.11241 0.14088,-4.88307 -0.17677,-3.20775 -0.0618,-5.69138 0.31648,-6.83757 0.66948,-2.02859 2.36469,-3.81699 3.86127,-4.07353 1.39732,-0.23957 1.66327,1.42735 0.29692,1.86103 -2.55771,0.81178 -3.59017,7.04566 -2.12998,12.86076 0.56941,2.26769 0.97393,2.83814 2.78892,3.93297 1.16759,0.70428 2.36939,1.28949 2.67065,1.30044 0.30127,0.011 2.39641,-0.78122 4.65586,-1.76036 z m 71.25436,-60.64414 c -0.46394,-1.2089 0.59331,-2.26614 1.42972,-1.42975 0.48089,0.48091 0.42918,0.80223 -0.23626,1.46769 -0.79594,0.79594 -0.87445,0.79344 -1.19346,-0.0379 z m -73.40698,36.60351 c 1.01335,-1.01337 0.83132,-2.69697 -0.37324,-3.45206 -1.99811,-1.25254 -4.03121,2.21605 -2.11866,3.61454 1.17631,0.86015 1.48968,0.8397 2.4919,-0.16248 z m -1.77588,-1.7216 c 0,-0.56106 0.22953,-1.02011 0.51006,-1.02011 0.28052,0 0.51004,0.45905 0.51004,1.02011 0,0.56107 -0.22952,1.02011 -0.51004,1.02011 -0.28053,0 -0.51006,-0.45904 -0.51006,-1.02011 z m 99.03631,-9.51491 c 0.51301,-0.46425 0.93275,-1.36596 0.93275,-2.00374 0,-2.82982 -3.65322,-3.67102 -5.05403,-1.16376 -0.67245,1.20362 -0.65961,1.48301 0.12317,2.67773 1.00156,1.52854 2.62987,1.72802 3.99811,0.48977 z m -2.49572,-1.25822 c -0.70105,-0.70105 -0.28292,-1.97802 0.64769,-1.97802 0.91545,0 1.32218,0.75029 0.9427,1.73913 -0.36718,0.95688 -0.80641,1.02285 -1.59039,0.23889 z m -89.92793,-9.08513 c 1.0271,-1.91916 0.25508,-3.71368 -1.86864,-4.34352 -1.32759,-0.39375 -3.21388,1.21642 -3.21388,2.7434 0,2.3729 3.9957,3.63083 5.08252,1.60012 z m -3.29735,-1.05364 c -0.42694,-0.69079 0.14915,-1.53014 1.05019,-1.53014 0.40424,0 0.73497,0.45905 0.73497,1.02009 0,1.05596 -1.23049,1.40753 -1.78516,0.51005 z m -42.38717,-4.71793 c 0.0933,-0.35066 0.66984,-2.29128 1.28115,-4.3125 l 1.11147,-3.67496 -1.08179,-2.12049 -1.08181,-2.12049 -1.49416,1.43149 c -1.86677,1.78848 -4.03702,6.07001 -4.03702,7.96433 0,0.7865 0.45904,1.88903 1.02009,2.45008 1.13077,1.13077 4.01439,1.38837 4.28207,0.38254 z m 156.10049,-7.29615 c -0.0389,-3.99973 -0.847,-4.43531 -2.1979,-1.18467 l -1.10574,2.66073 1.12299,1.19539 c 1.53576,1.63474 2.21439,0.80337 2.18065,-2.67145 z m -77.88135,85.7054 c -1.21726,-1.21726 -2.41257,-3.99929 -2.42108,-5.63506 -0.0103,-1.97624 1.74562,-5.87895 3.38084,-7.51417 4.53081,-4.53076 10.02321,-2.09733 10.02321,4.44084 0,4.85708 -3.40529,9.40164 -7.3805,9.84969 -1.90668,0.21491 -2.4037,0.0574 -3.60247,-1.1413 z m 6.00014,-1.34047 c 2.43548,-2.13837 3.30736,-3.96179 3.30504,-6.9121 -0.004,-3.19322 -1.49691,-5.76335 -3.35121,-5.76335 h -1.32796 l 1.32048,1.56928 c 1.5382,1.82807 1.79465,5.21505 0.5737,7.57613 -0.97357,1.88269 -3.65008,4.11581 -4.93299,4.11581 -0.55607,0 -0.86921,0.22952 -0.69582,0.51004 0.66115,1.06978 3.28272,0.5075 5.10876,-1.09581 z m 40.60224,-3.07072 c -2.40461,-1.19023 -4.79176,-4.36431 -5.67593,-7.54694 -1.22333,-4.40343 -0.23453,-11.29729 2.22144,-15.48812 5.51519,-9.41093 15.46906,-10.69346 20.08263,-2.58761 4.63539,8.1442 0.70546,21.26474 -7.61055,25.40878 -3.25298,1.62103 -6.04117,1.68717 -9.01759,0.21389 z m 7.07876,-2.38267 c 2.66249,-1.2308 6.02851,-4.86184 7.54761,-8.14191 1.76054,-3.80136 2.13975,-9.33771 0.86775,-12.66844 -1.15773,-3.03145 -3.9215,-5.79343 -5.7971,-5.79343 -2.14488,0 -2.24248,0.47747 -0.50265,2.45899 0.87027,0.9912 1.8979,2.55745 2.2836,3.48054 0.85503,2.04635 0.91627,7.55864 0.1103,9.9233 -1.45198,4.25994 -5.73594,8.49288 -9.61166,9.49719 -2.30176,0.59643 -2.48347,1.51823 -0.41548,2.10761 1.857,0.52927 2.83537,0.37609 5.51763,-0.86385 z m -58.82803,-6.08121 c -0.16363,-0.76771 -1.00119,-4.60916 -1.86123,-8.53649 -0.86004,-3.92736 -2.71291,-12.64917 -4.11748,-19.38178 -1.40455,-6.73258 -2.65933,-12.54301 -2.78837,-12.912 -0.17418,-0.49809 0.0602,-0.56378 0.90977,-0.25506 2.23864,0.81356 5.8319,0.46949 7.42908,-0.71137 l 1.51715,-1.12165 0.22928,8.26509 c 0.2674,9.63981 0.92375,12.09653 3.96612,14.84513 2.59371,2.34324 5.28152,3.05008 11.46491,3.01506 5.99815,-0.0339 11.75925,-0.97252 22.9908,-3.74537 4.50969,-1.11339 8.37368,-2.02435 8.58661,-2.02435 0.21294,0 -0.50094,1.00896 -1.5864,2.24209 -2.73804,3.11058 -4.60649,6.73421 -5.73183,11.11633 -0.86871,3.38248 -1.00495,3.60992 -1.46974,2.45301 -2.77184,-6.89918 -4.55661,-9.18267 -7.17432,-9.17892 -3.277,0.005 -6.33729,3.54863 -10.48929,12.14712 -1.92236,3.98109 -2.83064,5.07489 -2.83064,3.40887 0,-1.2716 -3.51843,-4.75068 -5.44859,-5.38768 -3.93657,-1.29919 -9.11065,0.83564 -11.77529,4.85848 l -1.52302,2.29936 z m 29.24533,-5.22119 c -2.06617,-2.06622 -0.52975,-7.24227 2.36546,-7.96892 3.8617,-0.96926 4.40823,6.30364 0.62086,8.26217 -1.78241,0.92175 -1.77009,0.92293 -2.98632,-0.29325 z m 4.04337,-1.34394 c 1.16491,-1.48092 1.40081,-4.22892 0.44506,-5.18466 -0.95035,-0.95032 -1.52256,-0.72139 -0.93605,0.3745 0.89178,1.6663 0.59455,3.1057 -0.96291,4.66317 -1.25365,1.25368 -1.3407,1.49093 -0.54704,1.49093 0.51911,0 1.41952,-0.60475 2.00094,-1.34394 z m -22.14999,-16.43658 c -3.30759,-2.04309 -4.93461,-5.30087 -4.91291,-9.83712 0.024,-5.03597 2.73079,-9.61196 6.871,-11.61622 2.76293,-1.33746 5.42463,-1.34735 8.00757,-0.0295 5.87048,2.99495 6.83198,12.17107 1.93201,18.43898 -2.83781,3.63006 -8.57332,5.09748 -11.89767,3.04402 z m 6.91179,-1.67724 c 6.47047,-3.63663 8.18848,-14.09523 2.94641,-17.93673 -0.78267,-0.57359 -1.72434,-0.85996 -2.21216,-0.67277 -0.7458,0.2862 -0.69013,0.51513 0.45681,1.8782 3.29544,3.91642 2.805,9.3136 -1.2143,13.3622 -1.43287,1.44335 -3.05092,2.55004 -4.00816,2.74151 -1.65861,0.33169 -2.08102,0.93665 -0.96772,1.38587 1.37741,0.55579 3.13548,0.28913 4.99912,-0.75828 z m -25.3485,-19.54315 c -2.64372,-1.85174 -3.44053,-6.56457 -1.74227,-10.30495 1.55956,-3.43487 4.37665,-4.22834 7.04388,-1.98401 3.08495,2.5958 3.34498,8.0913 0.53433,11.29249 -1.70519,1.94209 -3.94087,2.32382 -5.83594,0.99647 z m 3.92865,-1.30789 c 2.46442,-1.31891 3.4069,-6.75064 1.50189,-8.65567 -0.56106,-0.56102 -1.39995,-1.02007 -1.86422,-1.02007 -0.77195,0 -0.77498,0.0763 -0.0355,0.89352 2.33061,2.57527 1.95563,5.9456 -0.91252,8.20166 -1.05493,0.82982 -1.18925,1.10574 -0.53832,1.10574 0.47705,0 1.30895,-0.23633 1.84866,-0.52518 z m 60.9587,-16.59781 c -1.29288,-1.29286 -1.03038,-4.12549 0.47362,-5.11094 1.18121,-0.77394 1.36901,-0.77394 2.55023,0 0.93656,0.61367 1.27511,1.28537 1.27511,2.52985 0,2.80267 -2.54774,4.33232 -4.29896,2.58109 z"
       id="path1654" /><text
       xml:space="preserve"
       transform="matrix(1.1809583,0,0,1.1809583,-3156.9444,-123.30784)"
       id="text2248"
       style="font-style:normal;font-weight:normal;font-size:40px;line-height:1.25;font-family:sans-serif;letter-spacing:0px;word-spacing:0px;white-space:pre;shape-inside:url(#rect2250);display:inline;fill:#d400aa;fill-opacity:1;stroke:none;stroke-width:0.224041"><tspan
         x="2981.7324"
         y="246.26274"
         id="tspan16"><tspan
           style="font-weight:bold;font-family:Arial;-inkscape-font-specification:Arial"
           id="tspan15">ENGINE</tspan></tspan></text><g
       id="g1"
       transform="translate(-353.63965)"><path
         style="fill:#2c89a0;stroke-width:0.999996"
         d="m 1540.3205,739.28927 c -3.1812,-3.18117 -3.4764,-4.15015 -3.4764,-11.41236 -10e-5,-7.7249 -0.1119,-8.02528 -4.2035,-11.29002 -6.7408,-5.37843 -9.145,-12.07394 -9.0226,-25.12628 0.1065,-11.37258 2.6378,-27.40088 5.7236,-36.24176 2.4172,-6.92512 9.006,-16.24494 13.2625,-18.75931 4.309,-2.54533 4.551,-4.28443 0.5963,-4.28443 -4.3252,0 -10.6343,-2.94552 -12.075,-5.63746 -1.8122,-3.38604 -1.5437,-10.11357 0.4703,-11.78503 0.9508,-0.78908 5.3517,-1.50582 9.796,-1.59542 7.443,-0.14985 8.3464,0.10166 11.6299,3.23993 1.9581,1.87143 3.756,3.17923 3.9953,2.90616 0.2394,-0.27297 1.887,-4.94288 3.6615,-10.3774 4.367,-13.37464 7.7762,-19.85944 12.7243,-24.20395 9.2549,-8.12586 6.0404,-7.72861 65.537,-8.09852 l 53.8535,-0.33456 6.0204,2.75624 c 10.9263,5.00225 14.9016,10.42442 21.6941,29.59041 2.0959,5.91401 4.2326,10.75273 4.7483,10.75273 0.5156,0 1.6529,-1.02163 2.5275,-2.27023 2.4451,-3.4907 7.6745,-4.97737 14.5263,-4.12969 7.7394,0.95749 10.049,3.11848 9.1637,8.57406 -0.9508,5.85847 -5.1517,9.5786 -11.6431,10.31024 -2.9524,0.33285 -5.3614,0.92937 -5.3535,1.32572 0.01,0.39654 1.8391,1.90272 4.0694,3.34745 8.772,5.68223 13.9785,16.82299 17.515,37.47813 2.6927,15.72587 1.9061,29.34351 -2.0887,36.16003 -1.6737,2.8559 -4.3942,5.91564 -6.0455,6.79945 -2.6875,1.43832 -3.0025,2.29974 -3.0025,8.21173 0,15.69142 -2.6301,17.41395 -26.5896,17.41395 -16.9575,0 -17.4961,-0.0762 -20.9258,-2.96209 -3.0476,-2.56445 -3.5667,-3.85179 -3.8671,-9.5903 l -0.347,-6.62819 -52.6013,-0.30227 -52.6013,-0.30269 v 6.3406 c 0,5.02413 -0.582,7.01772 -2.8029,9.6021 l -2.8028,3.2616 -19.295,0.36901 -19.295,0.36901 z m 48.5757,-51.96318 c 3.7492,-2.62602 3.182,-6.06996 -1.7686,-10.73897 -5.5147,-5.20119 -14.7582,-9.30316 -25.6669,-11.39036 -10.7502,-2.05683 -17.172,-1.12135 -21.4124,3.11909 -3.4979,3.49776 -3.8776,5.754 -1.9157,11.38199 2.4,6.88442 10.3529,9.04546 34.1986,9.29282 10.949,0.11367 14.5418,-0.24758 16.565,-1.66457 z m 145.804,-0.48296 c 5.6663,-1.67757 9.062,-6.10428 9.062,-11.81377 0,-5.48102 -2.7321,-8.53686 -9.186,-10.27472 -7.5153,-2.02368 -22.0377,0.90348 -33.3569,6.72342 -10.1053,5.19583 -14.4669,13.87322 -8.3147,16.54241 3.3431,1.45059 36.0294,0.52983 41.7956,-1.17734 z m -22.3245,-58.04291 c 0,-1.52873 -8.0268,-24.43845 -10.1336,-28.92302 -1.0181,-2.16732 -3.908,-5.05682 -6.6849,-6.68416 l -4.8913,-2.86654 -50.4649,0.005 c -62.7755,0.005 -57.3618,-1.99707 -66.9074,24.74854 -2.7847,7.80173 -5.063,14.31687 -5.063,14.47783 0,0.16103 32.4326,0.2928 72.0725,0.2928 42.1251,0 72.0726,-0.43631 72.0726,-1.04998 z M 1562.1229,579.7648 c -12.4813,-2.94167 -24.315,-13.30661 -28.8163,-25.24017 -3.521,-9.33441 -2.8444,-22.82604 1.6007,-31.91115 2.8936,-5.91437 9.1687,-12.82844 15.5618,-17.14657 1.9752,-1.33406 2.8747,-3.62931 3.8291,-9.7702 4.6892,-30.17239 34.4183,-48.28336 63.0523,-38.41136 l 5.5275,1.90571 6.4404,-5.88617 c 3.5422,-3.23737 10.34,-7.81344 15.1063,-10.16906 7.7782,-3.84421 9.8446,-4.33973 20.1705,-4.83695 14.1038,-0.67912 24.0567,1.92633 34.8231,9.1159 12.6703,8.4609 20.9383,21.06329 23.7318,36.17273 1.3256,7.17066 1.8231,8.04172 6.732,11.78923 6.0465,4.61609 12.898,14.04226 15.7836,21.71476 2.9024,7.71699 2.7246,24.39163 -0.3424,32.07701 -3.6262,9.08831 -9.2396,16.41329 -16.8987,22.05153 -9.2784,6.83038 -15.1402,8.61723 -19.3399,5.89541 -1.7065,-1.10595 -5.4566,-3.16292 -8.3338,-4.57104 -5.1188,-2.50524 -6.3496,-2.56763 -57.3426,-2.9071 -58.095,-0.38667 -59.2531,-0.26653 -70.5242,7.3183 -3.3273,2.23919 -6.128,4.0187 -6.2236,3.95445 -0.096,-0.0641 -2.1376,-0.5796 -4.5378,-1.14526 z m 151.4153,-23.14965 v -4.64979 h -7.556 c -9.8553,0 -9.8578,-1.80423 -0.01,-7.03515 l 7.5462,-4.00826 0.01,-10.17154 c 0.012,-11.59958 -1.3896,-14.10623 -8.6438,-15.46712 -10.244,-1.92182 -16.1556,2.02501 -16.2691,10.86167 l -0.07,5.47733 h 4.6384 c 4.2446,0 4.6897,-0.29624 5.2425,-3.48741 0.4338,-2.50432 1.2562,-3.48738 2.9176,-3.48738 1.9203,0 2.3671,0.88913 2.6286,5.23107 l 0.3151,5.23107 -7.8711,4.1306 -7.8711,4.13059 -0.3505,7.37158 c -0.1927,4.05435 -0.078,8.08056 0.2542,8.94707 0.4557,1.18772 3.618,1.57553 12.8469,1.57553 h 12.2422 z m -91.9464,-2.63267 c 5.6535,-2.90546 7.5484,-7.09978 7.6106,-16.84683 l 0.057,-9.00077 h -6.3936 -6.3935 l -0.5812,6.39352 -0.5812,6.39355 -5.6998,0.3617 c -3.7729,0.2394 -6.0267,-0.15372 -6.6665,-1.16244 -0.5315,-0.83826 -0.9664,-9.89379 -0.9664,-20.12342 0,-10.22964 0.4349,-19.28521 0.9664,-20.12342 0.6398,-1.0088 2.8936,-1.40179 6.6665,-1.16244 l 5.6998,0.36168 0.5812,6.39356 0.5812,6.39351 h 6.3935 6.3936 l 0.3785,-4.64982 c 0.6517,-8.00492 -0.8958,-14.42256 -4.4331,-18.38251 l -3.3086,-3.70424 h -12.7872 c -11.9553,0 -12.9838,0.18473 -15.8091,2.83653 -4.8267,4.53043 -5.5056,9.13243 -5.1004,34.57128 0.3454,21.6758 0.5589,23.70744 2.8108,26.73661 3.7129,4.99479 7.0768,6.15016 17.906,6.15016 5.5589,0 11.1031,-0.62808 12.675,-1.43595 z m 51.7882,-0.32595 c 6.6181,-3.14047 7.028,-5.10405 7.028,-33.65874 0,-28.55471 -0.4099,-30.51827 -7.028,-33.65876 -4.8197,-2.28711 -20.0997,-2.39256 -25.4063,-0.17523 -7.4559,3.11524 -7.6706,4.06523 -7.6706,33.93604 0,25.72147 0.1092,27.04112 2.4855,30.06216 1.3671,1.7379 3.5902,3.60614 4.9406,4.15168 4.3288,1.74907 21.5076,1.30906 25.6508,-0.65697 z m -19.7508,-13.58776 c -0.3286,-0.85635 -0.4535,-10.4306 -0.2777,-21.27614 l 0.32,-19.71913 h 6.3935 6.3934 v 20.92429 20.9243 l -6.1158,0.35178 c -4.2982,0.24716 -6.2935,-0.11065 -6.7134,-1.20515 z"
         id="path946" /><text
         xml:space="preserve"
         transform="matrix(4.4039351,0,0,4.4039351,-11537.954,-688.13109)"
         id="text10324"
         style="font-style:normal;font-weight:normal;font-size:40px;line-height:1.25;font-family:sans-serif;letter-spacing:0px;word-spacing:0px;white-space:pre;shape-inside:url(#rect10326);display:inline;fill:#2c89a0;fill-opacity:1;stroke:none;stroke-width:0.0600788"><tspan
           x="2981.7324"
           y="246.26274"
           id="tspan18"><tspan
             style="font-weight:bold;font-family:Arial;-inkscape-font-specification:Arial"
             id="tspan17">?</tspan></tspan></text></g><path
       style="fill:#8d5fd3;stroke-width:0.999996"
       d="m 429.63072,665.96564 v -8.37581 h 49.13806 49.13807 v 8.37581 8.37581 h -49.13807 -49.13806 z m 11.32278,-10.9506 c -0.0852,-0.0853 -0.15502,-14.27442 -0.15502,-31.53138 v -31.37628 l -1.39601,-0.40044 c -0.76779,-0.22024 -2.76857,-0.5036 -4.44617,-0.62971 -4.4191,-0.33214 -5.59577,0.27687 -6.47786,3.35258 -0.17935,0.62528 -0.33344,11.20838 -0.34251,23.51798 -0.0107,14.413 -0.15542,22.88441 -0.40675,23.79478 -0.90075,3.26217 -5.61737,6.16855 -10.01075,6.16855 -5.10897,0 -9.85985,-3.388 -11.48054,-8.18715 -0.79331,-2.34921 -0.80397,-2.72364 -0.80397,-28.35265 0,-24.94627 -0.0286,-26.04536 -0.732,-27.82913 -1.58469,-4.0204 -2.37155,-7.93258 -2.40227,-11.944 -0.0273,-3.56835 0.0613,-4.0952 1.02172,-6.05032 0.82264,-1.67531 1.55217,-2.49671 3.35033,-3.7725 4.50569,-3.19675 13.4496,-7.06932 14.10141,-6.10565 0.46588,0.68883 1.78471,3.21061 1.78471,3.41264 0,0.0938 -1.12755,0.54582 -2.50563,1.00443 -3.96291,1.31876 -5.76207,2.20928 -5.5548,2.74942 0.53139,1.38467 2.11196,9.41614 2.48285,12.6163 0.47333,4.08359 0.25306,6.73288 -0.75253,9.04981 -0.85869,1.97866 -1.82176,2.48466 -4.33266,2.27643 l -1.99404,-0.16536 v 25.41973 c 0,18.95951 0.11363,25.68436 0.44721,26.46096 0.89182,2.07663 1.93512,3.19191 3.79673,4.05875 2.35002,1.09425 4.6887,1.13857 6.77545,0.12839 2.894,-1.40096 2.71499,0.23584 2.83395,-25.9133 l 0.10637,-23.39263 0.97873,-2.08723 c 1.7855,-3.8078 4.41491,-5.03588 9.97543,-4.65907 1.96012,0.13283 4.10233,0.3412 4.76034,0.46305 l 1.1964,0.22156 0.1065,-18.374 0.10644,-18.374 1.20946,-2.55365 c 2.20373,-4.65307 5.65763,-7.84983 10.42411,-9.64797 2.09401,-0.78997 2.61967,-0.80993 24.46839,-0.92958 15.6755,-0.0859 23.08691,0.006 24.87422,0.30717 7.0825,1.19461 13.06323,7.04566 14.39846,14.08628 0.24672,1.30112 0.37995,19.73403 0.37995,52.57636 v 50.57281 l -37.81528,0.0966 c -20.79841,0.0531 -37.88506,0.0268 -37.97037,-0.0585 z m 61.95864,-18.84224 c 1.51138,-1.27173 2.10547,-3.12134 1.5465,-4.81499 -1.61681,-4.89907 -8.93825,-3.84182 -8.93825,1.29072 0,1.42781 0.84424,3.11722 1.942,3.88612 1.34242,0.94026 4.12158,0.75573 5.44975,-0.36185 z m -0.28079,-12.93493 c 1.74365,-1.16996 2.49357,-3.473 1.75917,-5.40258 -1.24798,-3.27885 -5.26187,-4.02528 -7.64746,-1.42214 -3.64666,3.97919 1.40427,9.83341 5.88829,6.82472 z m 0.28079,-13.4954 c 1.51138,-1.27173 2.10547,-3.12135 1.5465,-4.815 -1.25418,-3.8001 -6.60383,-4.37721 -8.39887,-0.90603 -1.10842,2.14346 -0.34863,5.02064 1.60582,6.08113 1.64675,0.89354 3.94411,0.73587 5.24655,-0.3601 z m -2.36621,-26.84386 c 1.86474,-0.99934 2.55302,-1.75708 3.50776,-3.86196 0.69293,-1.52755 0.75732,-2.423 0.76292,-10.60265 0.007,-5.17691 -0.15995,-9.53236 -0.38883,-10.35652 -0.21727,-0.78228 -0.98079,-2.07074 -1.6968,-2.86325 -2.43085,-2.69069 -1.94699,-2.64143 -24.76811,-2.52177 l -20.3494,0.10669 -1.58523,1.11677 c -0.87189,0.61422 -1.97498,1.85507 -2.45138,2.75743 -0.84337,1.59747 -0.86616,1.89913 -0.86616,11.46176 0,10.8643 0.0841,11.31353 2.55456,13.66029 2.10335,1.99798 2.91138,2.06393 24.24805,1.97898 19.19346,-0.0764 19.57022,-0.0921 21.03262,-0.87577 z m -88.36382,-2.27316 c 0.86802,-2.21373 -0.90482,-15.72792 -2.06316,-15.72792 -0.67195,0 -2.79083,2.0985 -3.19665,3.16586 -0.41922,1.10262 -0.18401,1.65606 2.21385,5.20996 1.54364,2.28786 1.74585,2.95888 1.16688,3.87333 -0.27599,0.43596 -0.55384,0.39158 -1.66948,-0.26664 -1.5297,-0.90256 -1.65566,-0.65742 -0.9214,1.79327 0.29325,0.97886 0.81764,1.62389 1.76817,2.17513 1.78551,1.03536 2.22258,0.99929 2.70179,-0.22299 z"
       id="path13207" /><text
       xml:space="preserve"
       transform="matrix(1.1809583,0,0,1.1809583,-3111.5523,217.33343)"
       id="text13381"
       style="font-style:normal;font-weight:normal;font-size:40px;line-height:1.25;font-family:sans-serif;letter-spacing:0px;word-spacing:0px;white-space:pre;shape-inside:url(#rect13383);display:inline;fill:#8d5fd3;fill-opacity:1;stroke:none;stroke-width:0.224041"><tspan
         x="2981.7324"
         y="246.26274"
         id="tspan20"><tspan
           style="font-weight:bold;font-family:Arial;-inkscape-font-specification:Arial"
           id="tspan19">FUEL</tspan></tspan></text><path
       style="fill:#ff0066;stroke-width:0.999996"
       d="m 479.05688,1040.3122 c -2.58279,-0.1462 -4.19687,-0.2709 -5.75906,-0.4449 -28.72452,-3.201 -53.17698,-22.8412 -62.59315,-50.27492 -2.09201,-6.09506 -3.32656,-12.21818 -3.8772,-19.23034 -0.15727,-2.00259 -0.15727,-8.21349 0,-10.21604 0.36009,-4.58543 0.97268,-8.5659 1.9268,-12.5197 6.78077,-28.09895 29.20277,-49.89126 57.45841,-55.84479 5.25729,-1.10773 9.92243,-1.58255 15.54845,-1.58255 3.54475,0 5.31321,0.0924 8.4633,0.44248 22.87733,2.54197 43.42368,15.61578 55.55615,35.35083 5.75912,9.36795 9.38439,19.9089 10.59231,30.79845 0.35897,3.23611 0.44381,4.85384 0.44381,8.46333 0,3.60948 -0.0848,5.22716 -0.44381,8.46333 -2.68324,24.18964 -17.10777,45.65352 -38.60511,57.44502 -9.42713,5.1709 -19.85167,8.2202 -30.79845,9.0086 -1.52692,0.11 -6.80053,0.2041 -7.91245,0.1412 z m 13.04204,-15.9436 c 0.75486,-0.3717 1.19788,-0.8553 1.49151,-1.6281 0.181,-0.4763 0.18958,-0.9144 0.18958,-9.6623 v -9.1632 h -11.41794 -11.41796 v 9.1517 c 0,7.9868 0.0197,9.2076 0.15435,9.5901 0.33057,0.9387 0.97056,1.5549 1.97899,1.9055 0.48926,0.17 1.06147,0.1797 9.43704,0.1581 l 8.91621,-0.023 z m -36.17844,-7.5835 v -1.2519 h -2.6041 -2.6041 v -0.9015 -0.9014 h 2.55402 2.55402 v -1.3019 -1.3021 h -2.55402 -2.55402 v -0.8013 -0.8012 h 2.6071 2.60708 l -0.028,-1.277 -0.028,-1.2771 h -4.00635 -4.0063 l -0.0259,5.5336 -0.0259,5.5338 h 4.05722 4.05725 z m 54.48571,-0.8996 v -2.1518 l 2.57905,-0.027 2.57905,-0.027 v -1.2519 -1.252 l -2.57905,-0.027 -2.57905,-0.027 v -0.7979 -0.798 l 2.62913,-0.027 2.62914,-0.027 v -1.2519 -1.252 h -4.00629 -4.00633 l -0.0258,5.5336 -0.0258,5.5338 h 1.40304 1.40305 z m -42.58056,0.8764 c 0.14519,-0.1076 0.37002,-0.3491 0.49959,-0.5369 0.21078,-0.3053 0.22953,-0.4162 0.17786,-1.0521 -0.0317,-0.3909 -0.21667,-1.3254 -0.41089,-2.0766 -0.19421,-0.7512 -0.35312,-1.5011 -0.35312,-1.6665 0,-0.1652 0.11498,-0.6956 0.25554,-1.1784 0.74434,-2.5572 0.71174,-4.6183 -0.13747,-8.6901 -0.51189,-2.45453 -0.56347,-2.83018 -0.41335,-3.01109 0.16741,-0.20171 0.64558,-0.17079 2.14819,0.13874 l 1.30206,0.26812 0.0285,1.02667 0.0285,1.02656 h 11.41814 11.41813 l -0.0287,-4.78251 -0.0287,-4.78243 -0.2665,-0.50084 c -0.34891,-0.6557 -0.80563,-1.08163 -1.49977,-1.39879 l -0.56435,-0.25791 -9.15092,0.0277 -9.15092,0.0277 -0.50078,0.26649 c -0.60088,0.31974 -1.0518,0.7765 -1.36844,1.38611 -0.22098,0.42546 -0.23579,0.57278 -0.26455,2.62918 -0.0168,1.19814 -0.0657,2.17844 -0.10888,2.17844 -0.0431,0 -0.52519,-0.0677 -1.07126,-0.1497 -3.20565,-0.48319 -4.92186,0.23682 -5.34771,2.24351 -0.18084,0.85216 -0.0888,1.81109 0.3856,4.02005 0.51074,2.3778 0.61397,3.1513 0.61397,4.5992 0,1.2552 -0.174,2.4121 -0.50749,3.3742 -0.37994,1.096 -0.3664,1.614 0.0901,3.4477 0.22527,0.9049 0.44001,1.8842 0.47717,2.1764 0.12337,0.9701 0.78643,1.5761 1.62924,1.489 0.24042,-0.025 0.55591,-0.1331 0.7011,-0.2406 z m -30.62945,-10.4649 c 0.43256,-0.2585 2.02978,-1.8148 10.52694,-10.25708 6.2714,-6.23085 6.29111,-6.25327 6.15376,-6.97986 -0.19577,-1.03584 -1.35951,-1.60709 -2.21309,-1.0865 -0.16526,0.10076 -3.4763,3.32934 -7.35784,7.1746 l -7.05737,6.99124 -0.3378,-0.3892 c -0.18578,-0.2141 -0.77894,-0.9752 -1.31815,-1.6913 -5.6055,-7.44489 -9.26536,-15.91562 -10.81852,-25.03947 -0.41015,-2.40935 -0.80213,-6.20847 -0.80349,-7.78732 l -3.7e-4,-0.47574 h 5.09322 5.09323 l 0.34033,-0.22728 c 0.70718,-0.4725 0.88807,-1.47752 0.39143,-2.17501 -0.43108,-0.60541 -0.40172,-0.60245 -5.90713,-0.60245 h -5.01108 v -0.59301 c 0,-1.54001 0.39289,-5.32201 0.80434,-7.74277 1.83989,-10.82465 6.87955,-21.06887 14.4053,-29.28191 l 0.62359,-0.68052 3.62654,3.61502 c 3.37685,3.36612 3.65571,3.61972 4.05014,3.68323 1.18248,0.19044 2.12677,-0.93984 1.68281,-2.01424 -0.11244,-0.27207 -1.21449,-1.44355 -3.68213,-3.91406 l -3.52167,-3.52577 0.65312,-0.59844 c 9.0822,-8.3222 20.38624,-13.4914 32.53846,-14.87944 1.49705,-0.17098 3.89656,-0.35554 4.63078,-0.35618 l 0.47422,-3.8e-4 0.0265,9.35919 0.0265,9.35919 0.34703,0.35803 c 0.79013,0.81514 1.96334,0.61979 2.49522,-0.41549 0.0806,-0.15707 0.1124,-2.81985 0.1124,-9.43984 v -9.22109 h 0.59306 c 1.01805,0 4.28496,0.29478 6.08295,0.54887 11.51366,1.62716 22.29028,6.73333 30.9417,14.66078 l 0.68055,0.62357 -3.61711,3.62655 c -3.47878,3.48787 -3.61955,3.64378 -3.68214,4.07726 -0.1614,1.11853 0.83674,2.01411 1.89877,1.70362 0.33638,-0.0983 1.00758,-0.71952 3.98108,-3.68431 l 3.57648,-3.56602 0.59781,0.65241 c 8.32329,9.08342 13.49051,20.38335 14.87879,32.53781 0.17114,1.4983 0.35553,3.89673 0.35618,4.63229 v 0.47574 h -5.09329 -5.09321 l -0.34032,0.22738 c -0.70721,0.4724 -0.88812,1.47751 -0.39145,2.17491 0.43119,0.6056 0.40031,0.60245 5.92234,0.60245 h 5.02637 l -0.0691,1.37476 c -0.59194,11.79478 -4.73057,23.04612 -11.89766,32.34498 -0.60147,0.7803 -1.15132,1.4667 -1.22195,1.5253 -0.098,0.081 -1.81076,-1.5609 -7.25076,-6.95267 -3.91728,-3.88256 -7.24067,-7.10428 -7.38532,-7.15924 -0.82391,-0.31325 -1.70486,0.0572 -2.00532,0.84443 -0.36223,0.94863 -0.64036,0.60914 5.54421,6.76775 11.12411,11.07743 10.80703,10.77433 11.47906,10.96973 0.49715,0.1445 0.67416,0.1534 1.11112,0.055 0.69256,-0.155 0.99524,-0.3963 1.97474,-1.5745 10.36278,-12.46424 15.44521,-28.75659 14.04008,-45.00691 -0.8272,-9.56638 -3.75686,-18.63977 -8.63464,-26.74208 -10.00057,-16.61237 -27.1178,-27.67476 -46.24414,-29.88655 -3.73203,-0.43159 -8.66821,-0.52065 -12.24507,-0.22096 -11.92007,0.99871 -22.92777,5.16963 -32.42518,12.28617 -5.6136,4.20636 -10.6112,9.4934 -14.52053,15.36147 -2.87964,4.32246 -5.48836,9.62411 -7.14906,14.52887 -3.85117,11.37417 -4.31291,23.93548 -1.30776,35.57788 1.89732,7.35055 5.15582,14.33804 9.5881,20.56051 1.08476,1.5229 3.12345,4.0861 3.64984,4.5888 0.66652,0.6365 1.7977,0.7667 2.58331,0.2972 z m 46.34696,-32.18784 c 3.08973,-0.63661 5.72999,-2.9369 6.73587,-5.86841 1.79372,-5.22764 -1.38143,-10.75565 -6.80943,-11.85551 -1.11939,-0.22682 -3.03509,-0.15664 -4.11223,0.15064 -0.93288,0.26614 -2.186,0.87748 -2.8804,1.40523 l -0.52669,0.40028 -10.39048,-6.1219 c -5.71477,-3.36705 -11.92289,-7.02667 -13.79584,-8.13247 -4.54916,-2.68589 -4.60138,-2.71192 -5.43796,-2.7109 -2.12945,0.002 -3.56845,2.08685 -2.82068,4.08545 0.11257,0.30087 0.37258,0.72007 0.57781,0.93154 0.24405,0.25147 3.36981,2.14908 9.03487,5.48493 8.76598,5.16183 12.34013,7.26784 17.09278,10.07157 l 2.62192,1.54678 -0.0556,1.20434 c -0.0653,1.41206 0.0592,2.35887 0.46551,3.54002 0.99812,2.90136 3.62316,5.20909 6.66728,5.86135 0.94092,0.20152 2.67313,0.20495 3.63337,0.01 z m -2.43303,-5.93768 c -0.9139,-0.23892 -1.64932,-0.83765 -2.05099,-1.66968 -0.18739,-0.38825 -0.2397,-0.66056 -0.2397,-1.24775 0,-0.8785 0.25615,-1.52112 0.8384,-2.10335 0.58224,-0.58223 1.22487,-0.83842 2.10331,-0.83842 0.87844,0 1.52106,0.25619 2.10331,0.83842 0.58224,0.58223 0.8384,1.22485 0.8384,2.10335 0,0.87839 -0.25616,1.52102 -0.8384,2.10325 -0.66657,0.66667 -1.91125,1.0345 -2.75433,0.81418 z"
       id="path15118" /><text
       xml:space="preserve"
       transform="matrix(1.1809583,0,0,1.1809583,-3215.9095,576.6871)"
       id="text15238"
       style="font-style:normal;font-weight:normal;font-size:40px;line-height:1.25;font-family:sans-serif;letter-spacing:0px;word-spacing:0px;white-space:pre;shape-inside:url(#rect15240);display:inline;fill:#ff0066;fill-opacity:1;stroke:none;stroke-width:0.224041"><tspan
         x="2981.7324"
         y="246.26274"
         id="tspan22"><tspan
           style="font-weight:bold;font-family:Arial;-inkscape-font-specification:Arial"
           id="tspan21">CONSUMPTION</tspan></tspan></text><path
       style="fill:#aad400;stroke-width:0.999996"
       d="m 93.756009,722.08225 c -17.23864,-1.92934 -31.69375,-14.45621 -36.20628,-31.37649 -1.28541,-4.81979 -1.29645,-15.91122 -0.0207,-20.80439 1.11228,-4.26623 4.2944,-11.03554 6.74943,-14.35802 9.52011,-12.88391 25.83815,-19.60956 40.995031,-16.89649 4.00859,0.71752 4.23941,0.61394 4.83578,-2.17017 0.20297,-0.94751 1.07945,-3.40722 1.94773,-5.46601 7.08502,-16.79924 25.0912,-27.08487 42.95103,-24.53484 5.54684,0.79198 8.28983,1.65134 13.54471,4.24343 7.10908,3.50672 13.5792,9.91413 17.59115,17.42063 l 1.50681,2.81936 2.9571,-1.51345 c 16.78786,-8.59222 37.9963,-1.95898 47.37874,14.81843 2.76697,4.94787 4.18966,10.27935 4.39332,16.46475 l 0.17108,5.19254 4.36196,0.79553 c 7.80001,1.42254 11.53908,3.31402 16.49791,8.34562 7.94662,8.06334 10.23666,20.6437 5.58953,30.70636 -4.24778,9.19782 -11.87106,14.76641 -22.43115,16.38525 -4.07096,0.62406 -147.196441,0.5566 -152.813171,-0.072 z m 92.993551,-28.61398 c 0.20046,-0.0209 0.95453,-0.92975 1.67567,-2.0195 0.72116,-1.08975 1.5602,-1.97965 1.86458,-1.97755 0.3043,0.002 1.04828,0.87075 1.65327,1.93034 0.99196,1.73736 1.32442,1.94436 3.3865,2.10836 1.25769,0.10004 2.3988,3.3e-4 2.53597,-0.22155 0.1371,-0.22188 -0.88525,-2.04468 -2.27206,-4.05068 -1.38672,-2.00599 -2.52128,-3.80543 -2.52128,-3.99875 0,-0.19332 1.00305,-1.75716 2.22897,-3.47521 1.22599,-1.71805 2.22904,-3.36241 2.22904,-3.65413 0,-0.59436 -3.42738,-0.71685 -4.23423,-0.15132 -0.28559,0.20015 -1.02521,1.08836 -1.64358,1.97378 -0.61847,0.88542 -1.27641,1.6014 -1.46217,1.59106 -0.18577,-0.0103 -0.94863,-0.90195 -1.69531,-1.98137 -1.242,-1.79571 -1.54737,-1.96257 -3.59123,-1.96257 -2.6228,0 -2.74744,0.43137 -0.83813,2.90078 0.76762,0.99273 1.88222,2.50831 2.47704,3.36795 l 1.08152,1.56297 -2.52317,3.73475 c -1.38771,2.05411 -2.41216,3.91421 -2.27661,4.13355 0.20164,0.32626 1.85311,0.40582 3.92521,0.18909 z m -15.85647,-7.49086 c 2.9558,-0.82089 5.90556,-3.41318 7.55596,-6.64026 1.35801,-2.65539 1.48251,-3.31381 1.44779,-7.65653 -0.0296,-3.69737 -0.26829,-5.26527 -1.07619,-7.06839 -2.08193,-4.64653 -6.23681,-7.36482 -11.81388,-7.72911 -6.3761,-0.41649 -10.8462,1.98513 -13.39629,7.19733 -1.21581,2.48503 -1.38456,3.39846 -1.39368,7.54387 -0.0106,4.81329 0.49189,6.86368 2.33969,9.54723 1.2536,1.8206 3.91332,3.80332 6.19359,4.61707 2.23485,0.79754 7.59207,0.89726 10.14301,0.18879 z m -7.37954,-4.78008 c -1.41469,-0.27556 -3.59761,-2.47195 -4.44168,-4.46909 -0.90909,-2.15096 -0.87689,-8.71212 0.0515,-10.50753 3.21501,-6.21713 12.3848,-5.51626 14.1727,1.08324 1.26859,4.68266 0.39555,9.87461 -2.05412,12.21565 -1.88975,1.80593 -4.33977,2.33781 -7.72845,1.67773 z m -33.84522,-3.58891 c 0,-4.61538 0.1861,-8.50661 0.41355,-8.64718 0.22746,-0.14057 1.44928,1.46233 2.71515,3.562 1.26587,2.09967 3.59764,5.93517 5.18172,8.52333 l 2.88012,4.70576 3.07324,0.14747 3.07321,0.14748 v -14.41446 -14.41446 l -2.60055,0.14972 -2.60054,0.14973 -0.13527,8.79232 c -0.0743,4.83579 -0.29745,8.79233 -0.49568,8.79233 -0.19823,0 -2.4601,-3.47321 -5.02636,-7.71825 -6.39187,-10.57325 -6.04556,-10.19355 -9.13395,-10.01423 l -2.54574,0.14783 -0.13142,14.24109 L 124.20437,686 h 2.73198 2.73198 z"
       id="path17457" /><text
       xml:space="preserve"
       transform="matrix(1.1809583,0,0,1.1809583,-3538.6975,492.20747)"
       id="text17595"
       style="font-style:normal;font-weight:normal;font-size:40px;line-height:1.25;font-family:sans-serif;letter-spacing:0px;word-spacing:0px;white-space:pre;shape-inside:url(#rect17597);display:inline;fill:#aad400;fill-opacity:1;stroke:none;stroke-width:0.224041"><tspan
         x="2981.7324"
         y="246.26274"
         id="tspan24"><tspan
           style="font-weight:bold;font-family:Arial;-inkscape-font-specification:Arial"
           id="tspan23">NOX EMISSIONS</tspan></tspan></text><path
       style="fill:#3771c8;stroke-width:0.999996"
       d="m 70.269989,434.232 c -5.4017,-2.55546 -9.96721,-7.63777 -11.48378,-12.78369 l -1.12963,-3.83298 -6.19957,-0.27116 c -5.58878,-0.24442 -6.36902,-0.44061 -7.91973,-1.99131 -1.39115,-1.39113 -1.78724,-2.55571 -2.0708,-6.08837 l -0.35065,-4.36821 2.58708,-0.21209 2.58708,-0.21209 0.19845,-4.55903 c 0.22487,-5.16604 -0.4233,-6.43864 -3.27943,-6.43864 -1.77263,0 -1.91768,-0.1894 -1.91424,-2.49946 0.008,-5.01296 1.10634,-7.04458 6.82636,-12.62043 11.75221,-11.45603 24.74122,-17.50161 41.92611,-19.51399 3.42766,-0.40137 11.708951,-0.91749 18.402851,-1.1469 10.24499,-0.35111 13.06611,-0.22921 17.82955,0.77042 3.13235,0.65734 5.65881,1.5298 5.65881,1.95414 0,0.42163 1.17107,3.05653 2.6024,5.85531 l 2.6024,5.08873 -4.07324,-1.92634 c -7.52765,-3.56001 -12.39547,-4.21082 -27.77551,-3.71355 -18.451661,0.59658 -23.078931,1.18814 -25.099531,3.20873 -3.3749,3.37491 -3.0786,8.72803 0.63565,11.48368 1.83399,1.36066 2.70098,1.4038 34.756711,1.72875 29.34847,0.29749 33.00839,0.45159 34.11145,1.43619 0.6796,0.6066 3.03525,2.00265 5.23478,3.10231 12.03831,6.01852 23.94478,6.89326 36.5428,2.68465 l 4.54965,-1.51987 4.29837,2.22862 c 6.9391,3.59775 7.90836,4.8238 8.91155,11.27265 1.09388,7.03148 0.61551,14.03698 -1.04116,15.24838 -0.80968,0.59203 -3.51178,0.87289 -8.39816,0.87289 -7.02252,0 -7.20475,0.0378 -7.21904,1.49968 -0.0462,4.76673 -6.15691,12.33937 -12.31606,15.26339 -3.23312,1.53491 -4.9087,1.89868 -8.74765,1.8991 -10.29581,0.002 -17.73329,-5.27034 -20.98345,-14.8725 l -1.16994,-3.45641 -23.96167,-0.17486 -23.96168,-0.17487 -1.13402,3.46709 c -3.163851,9.67291 -10.882271,15.21268 -21.193911,15.21155 -3.92018,-4.2e-4 -5.578,-0.35669 -8.8392,-1.89951 z m 13.87711,-8.33181 c 3.80626,-1.59036 7.79242,-7.43741 7.79242,-11.43022 0,-2.09687 -1.66145,-6.00156 -3.39262,-7.97324 -7.38486,-8.4109 -21.26137,-3.20704 -21.26137,7.97324 0,3.20719 1.65955,7.21637 3.78142,9.13517 3.28809,2.97345 9.04077,3.9828 13.08015,2.29505 z m 92.192651,-0.37464 c 4.23462,-1.92302 6.4888,-5.36094 6.75503,-10.30242 0.25933,-4.81322 -1.42337,-8.41474 -5.08411,-10.88172 -9.26294,-6.2423 -21.58867,2.51035 -18.70788,13.28468 0.85167,3.18526 5.52148,8.20912 8.08563,8.69864 3.3981,0.64874 6.3416,0.38594 8.95133,-0.79918 z m -6.74264,-42.01934 c -13.7069,-2.97909 -24.75393,-12.5678 -29.13081,-25.28524 -1.21825,-3.53977 -1.51587,-5.84457 -1.51553,-11.73655 6.5e-4,-11.1212 2.57183,-17.59476 10.29786,-25.92728 5.20926,-5.61821 5.45807,-6.48199 3.28324,-11.39856 -1.74719,-3.9498 -2.39335,-12.18128 -1.28184,-16.32943 1.02955,-3.84225 6.47436,-9.33179 10.42612,-10.51175 1.7501,-0.52257 7.31776,-0.81917 15.37718,-0.81917 12.4618,0 12.68295,0.0249 16.24794,1.83294 4.14979,2.10456 7.53826,6.14858 8.68,10.35917 1.06308,3.92051 0.3064,10.55447 -1.70506,14.94796 -0.92688,2.02464 -1.68525,4.39352 -1.68525,5.26417 0,1.01891 1.53573,3.2565 4.30972,6.27926 6.66232,7.25976 10.99719,17.62784 10.99719,26.30269 0,11.77482 -7.73178,25.67274 -17.56766,31.57808 -8.10737,4.86755 -19.09219,7.1044 -26.7331,5.44371 z m -13.66376,-19.35887 c 1.08385,-1.08386 1.33305,-2.22175 1.33305,-6.08716 v -4.75412 l 5.3249,5.08738 c 5.32714,5.08952 7.42586,6.06703 9.20535,4.28754 1.90988,-1.90988 0.83261,-3.85089 -5.53216,-9.96776 -3.4826,-3.34696 -6.33199,-6.61687 -6.33199,-7.26647 0,-0.6496 2.84939,-3.85535 6.33199,-7.12388 6.41932,-6.02476 7.52907,-8.03767 5.53216,-10.03458 -1.73005,-1.73005 -3.78744,-0.76954 -9.14275,4.26835 l -5.3875,5.06817 v -4.73491 c 0,-3.84621 -0.2502,-4.98512 -1.33305,-6.06796 -1.6048,-1.60481 -2.8806,-1.68987 -4.2848,-0.28566 -1.57319,1.57318 -1.57319,36.32353 0,37.89671 1.4042,1.40421 2.68,1.31915 4.2848,-0.28565 z m 44.04189,-3.28135 c 1.86228,-1.86224 1.94834,-2.21105 1.94834,-7.89501 0,-7.1848 -0.79545,-8.3607 -5.43072,-8.02789 -2.8017,0.20116 -2.9077,0.28996 -3.10121,2.59817 -0.1296,1.54611 0.16456,2.69272 0.83321,3.24761 0.56838,0.47175 1.03347,1.87076 1.03347,3.10893 v 2.25124 h -5.33221 -5.33219 v -10.99767 -10.99766 h 5.33219 c 4.77197,0 5.33221,0.13149 5.33221,1.25144 0,1.83912 1.61372,2.86734 4.12223,2.62656 2.11978,-0.20348 2.21794,-0.33789 2.40984,-3.30209 0.1617,-2.49797 -0.11428,-3.45572 -1.44052,-4.99894 -1.61144,-1.87523 -1.78157,-1.91286 -9.62682,-2.12979 l -7.98637,-0.22082 -2.23737,1.99757 -2.23738,1.99757 -0.21142,11.877 c -0.24236,13.61378 0.0245,15.76996 2.22487,17.97023 1.50302,1.50303 2.04269,1.59184 9.6717,1.59184 8.0417,0 8.08906,-0.01 10.02815,-1.94829 z m -10.53209,-52.88064 c 2.51928,-1.65069 3.84323,-4.58853 3.95333,-8.77244 0.10937,-4.15797 -1.09364,-6.47634 -4.19199,-8.07858 -1.68586,-0.87176 -4.06718,-1.01957 -13.64642,-0.84703 l -11.6042,0.20902 -2.17732,2.18251 c -2.04527,2.05018 -2.1744,2.45747 -2.12926,6.71656 0.0517,4.87669 0.89761,6.76078 3.92794,8.74865 2.57582,1.68971 23.24038,1.56295 25.86792,-0.15869 z"
       id="path20350" /><text
       xml:space="preserve"
       transform="matrix(1.1809583,0,0,1.1809583,-3499.6099,209.7681)"
       id="text20524"
       style="font-style:normal;font-weight:normal;font-size:40px;line-height:1.25;font-family:sans-serif;letter-spacing:0px;word-spacing:0px;white-space:pre;shape-inside:url(#rect20526);display:inline;fill:#3771c8;fill-opacity:1;stroke:none;stroke-width:0.224041"><tspan
         x="2981.7324"
         y="246.26274"
         id="tspan26"><tspan
           style="font-weight:bold;font-family:Arial;-inkscape-font-specification:Arial"
           id="tspan25">WEIGHT</tspan></tspan></text><path
       id="rect23345"
       style="fill:#ff6600;fill-opacity:1;stroke-width:1.5;stroke-linecap:round;stroke-linejoin:round"
       d="M 817.59909 213.98165 L 817.59909 247.13621 A 27.73958 27.73958 0 0 1 830.20814 244.03666 A 27.73958 27.73958 0 0 1 844.0781 247.7615 L 844.0781 213.98165 L 817.59909 213.98165 z M 844.0781 295.72756 A 27.73958 27.73958 0 0 1 830.20814 299.51596 A 27.73958 27.73958 0 0 1 817.59909 296.41641 L 817.59909 392.88184 C 821.48441 391.24935 825.74494 390.34401 830.20917 390.34401 C 835.16187 390.34401 839.86161 391.46077 844.0781 393.44666 L 844.0781 295.72756 z M 844.0781 452.71901 C 839.86161 454.70512 835.16187 455.82218 830.20917 455.82218 C 825.745 455.82218 821.48437 454.91698 817.59909 453.28435 L 817.59909 563.10245 C 821.48441 561.46999 825.74493 560.56462 830.20917 560.56462 C 835.16187 560.56462 839.86161 561.68139 844.0781 563.66728 L 844.0781 452.71901 z M 844.0781 622.93963 C 839.86161 624.92574 835.16187 626.0428 830.20917 626.0428 C 825.74499 626.0428 821.48437 625.1376 817.59909 623.50497 L 817.59909 700.18246 C 821.48437 698.54983 825.74498 697.64463 830.20917 697.64463 C 835.16187 697.64463 839.86161 698.76169 844.0781 700.7478 L 844.0781 622.93963 z M 844.0781 760.02015 C 839.86161 762.00604 835.16187 763.1228 830.20917 763.1228 C 825.74492 763.1228 821.48441 762.21746 817.59909 760.58497 L 817.59909 935.06321 C 821.48437 933.43058 825.74497 932.52538 830.20917 932.52538 C 835.16187 932.52538 839.86161 933.64244 844.0781 935.62855 L 844.0781 760.02015 z M 844.0781 994.90245 C 839.86161 996.88856 835.16187 998.00562 830.20917 998.00562 C 825.74497 998.00562 821.48437 997.10043 817.59909 995.46779 L 817.59909 1010.302 L 844.0781 1010.302 L 844.0781 994.90245 z " /><text
       xml:space="preserve"
       transform="matrix(1.1809583,0,0,1.1809583,-2769.5546,782.40541)"
       id="text23429"
       style="font-style:normal;font-weight:normal;font-size:40px;line-height:1.25;font-family:sans-serif;letter-spacing:0px;word-spacing:0px;white-space:pre;shape-inside:url(#rect23431);display:inline;fill:#ff6600;fill-opacity:1;stroke:none;stroke-width:0.224041"><tspan
         x="2981.7324"
         y="246.26274"
         id="tspan28"><tspan
           style="font-weight:bold;font-family:Arial;-inkscape-font-specification:Arial"
           id="tspan27">MODEL</tspan></tspan></text><g
       id="path41927"
       transform="matrix(0.95415837,0,0,0.95415837,-67.845941,16.684993)"><path
         style="color:#000000;fill:#ff0066;stroke-linecap:round;stroke-linejoin:round;-inkscape-stroke:none"
         d="m 679.54961,994.15435 c 70.03809,0 140.07589,0 210.11345,0"
         id="path8" /><path
         style="color:#000000;fill:#ff0066;fill-opacity:0.988235;stroke-linecap:round;stroke-linejoin:round;-inkscape-stroke:none"
         d="m 679.54883,991.53516 a 2.62011,2.62011 0 0 0 -2.61914,2.61914 2.62011,2.62011 0 0 0 2.61914,2.62109 h 210.11328 a 2.62011,2.62011 0 0 0 2.62109,-2.62109 2.62011,2.62011 0 0 0 -2.62109,-2.61914 z"
         id="path9" /><g
         id="g3"><g
           id="path5"><path
             style="color:#000000;fill:#ff0066;fill-rule:evenodd;-inkscape-stroke:none"
             d="m 901.75749,994.15435 -18.13116,10.48045 v -20.96089 z"
             id="path6" /><path
             style="color:#000000;fill:#ff0066;fill-rule:evenodd;-inkscape-stroke:none"
             d="m 882.22852,981.25195 v 25.80465 l 22.32031,-12.9023 -2.0918,-1.20899 z m 2.79492,4.8418 13.94336,8.06055 -13.94336,8.0605 z"
             id="path7" /></g></g></g><g
       id="path47491"
       transform="matrix(0.95415837,0,0,0.95415837,-67.845941,16.684993)"><path
         style="color:#000000;fill:#ff0066;stroke-linecap:round;stroke-linejoin:round;-inkscape-stroke:none"
         d="m 478.68644,747.03978 c 136.99275,0 273.98492,0 410.97663,0"
         id="path13" /><path
         style="color:#000000;fill:#aad400;stroke-linecap:round;stroke-linejoin:round;-inkscape-stroke:none"
         d="m 478.68555,744.41992 a 2.62011,2.62011 0 0 0 -2.61914,2.61914 2.62011,2.62011 0 0 0 2.61914,2.6211 h 410.97656 a 2.62011,2.62011 0 0 0 2.62109,-2.6211 2.62011,2.62011 0 0 0 -2.62109,-2.61914 z"
         id="path14" /><g
         id="g10"><g
           id="path10"><path
             style="color:#000000;fill:#aad400;fill-rule:evenodd;-inkscape-stroke:none"
             d="m 901.7575,747.03978 -18.13116,10.48044 v -20.96088 z"
             id="path11" /><path
             style="color:#000000;fill:#aad400;fill-rule:evenodd;-inkscape-stroke:none"
             d="m 882.22852,734.13672 v 25.80469 l 22.32226,-12.90235 -2.09375,-1.20898 z m 2.79492,4.84375 13.9414,8.05859 -13.9414,8.06055 z"
             id="path12" /></g></g></g><g
       id="path47503"
       transform="matrix(0.95415837,0,0,0.95415837,-67.845941,16.684993)"><path
         style="color:#000000;fill:#8d5fd3;stroke-linecap:round;stroke-linejoin:round;-inkscape-stroke:none"
         d="m 679.54961,604.3212 c 70.03809,0 140.07589,0 210.11345,0"
         id="path20" /><path
         style="color:#000000;fill:#8d5fd3;stroke-linecap:round;stroke-linejoin:round;-inkscape-stroke:none"
         d="m 679.54883,601.70117 a 2.62011,2.62011 0 0 0 -2.61914,2.61914 2.62011,2.62011 0 0 0 2.61914,2.6211 h 210.11328 a 2.62011,2.62011 0 0 0 2.62109,-2.6211 2.62011,2.62011 0 0 0 -2.62109,-2.61914 z"
         id="path21" /><g
         id="g15"><g
           id="path15"><path
             style="color:#000000;fill:#8d5fd3;fill-rule:evenodd;-inkscape-stroke:none"
             d="m 901.75749,604.3212 -18.13116,10.48044 v -20.96088 z"
             id="path16" /><path
             style="color:#000000;fill:#8d5fd3;fill-rule:evenodd;-inkscape-stroke:none"
             d="m 882.22852,591.41992 v 25.80274 l 22.32031,-12.90235 -2.0918,-1.20898 z m 2.79492,4.8418 13.9414,8.05859 -13.9414,8.06055 z"
             id="path17" /></g></g></g><g
       id="path47509"
       transform="matrix(0.95415837,0,0,0.95415837,-67.845941,16.684993)"><path
         style="color:#000000;fill:#ff0066;stroke-linecap:round;stroke-linejoin:round;-inkscape-stroke:none"
         d="m 342.57518,425.92298 c 182.36333,0 364.72592,0 547.08787,0"
         id="path25" /><path
         style="color:#000000;fill:#3771c8;stroke-linecap:round;stroke-linejoin:round;-inkscape-stroke:none"
         d="m 342.57422,423.30273 a 2.62011,2.62011 0 0 0 -2.61914,2.6211 2.62011,2.62011 0 0 0 2.61914,2.61914 h 547.08789 a 2.62011,2.62011 0 0 0 2.62109,-2.61914 2.62011,2.62011 0 0 0 -2.62109,-2.6211 z"
         id="path26" /><g
         id="g22"><g
           id="path22"><path
             style="color:#000000;fill:#3771c8;fill-rule:evenodd;-inkscape-stroke:none"
             d="m 901.75748,425.92298 -18.13116,10.48044 v -20.96088 z"
             id="path23" /><path
             style="color:#000000;fill:#3771c8;fill-rule:evenodd;-inkscape-stroke:none"
             d="m 882.22852,413.02148 v 25.80469 l 22.32031,-12.90234 -2.0918,-1.21094 z m 2.79492,4.8418 13.9414,8.05859 -13.9414,8.06055 z"
             id="path24" /></g></g></g><g
       id="path47497"
       transform="matrix(0.95415837,0,0,0.95415837,-67.845941,16.684993)"><path
         style="color:#000000;fill:#ff0066;stroke-linecap:round;stroke-linejoin:round;-inkscape-stroke:none"
         d="m 679.54961,267.34679 c 70.03809,0 140.07589,0 210.11345,0"
         id="path30" /><path
         style="color:#000000;fill:#d400aa;stroke-linecap:round;stroke-linejoin:round;-inkscape-stroke:none"
         d="m 679.54883,264.72656 a 2.62011,2.62011 0 0 0 -2.61914,2.6211 2.62011,2.62011 0 0 0 2.61914,2.61914 h 210.11328 a 2.62011,2.62011 0 0 0 2.62109,-2.61914 2.62011,2.62011 0 0 0 -2.62109,-2.6211 z"
         id="path31" /><g
         id="g27"><g
           id="path27"><path
             style="color:#000000;fill:#d400aa;fill-rule:evenodd;-inkscape-stroke:none"
             d="m 901.75749,267.34679 -18.13116,10.48044 v -20.96088 z"
             id="path28" /><path
             style="color:#000000;fill:#d400aa;fill-rule:evenodd;-inkscape-stroke:none"
             d="m 882.22852,254.44531 v 25.80274 l 22.32031,-12.90039 -2.0918,-1.21094 z m 2.79492,4.8418 13.9414,8.06055 -13.9414,8.05859 z"
             id="path29" /></g></g></g><g
       id="path63905"
       transform="matrix(0.63486311,0,0,0.63486311,226.0879,209.64194)"><path
         style="color:#000000;fill:#ff6600;stroke-linecap:round;stroke-linejoin:round;-inkscape-stroke:none"
         d="m 1009.9071,604.32122 c 112.9248,0 225.8491,0 338.7731,0"
         id="path35" /><path
         style="color:#000000;fill:#ff6600;stroke-linecap:round;stroke-linejoin:round;-inkscape-stroke:none"
         d="m 1009.9062,600.38281 a 3.93787,3.93787 0 0 0 -3.9375,3.9375 3.93787,3.93787 0 0 0 3.9375,3.93946 h 338.7735 a 3.93787,3.93787 0 0 0 3.9375,-3.93946 3.93787,3.93787 0 0 0 -3.9375,-3.9375 z"
         id="path36" /><g
         id="g32"><g
           id="path32"><path
             style="color:#000000;fill:#ff6600;fill-rule:evenodd;-inkscape-stroke:none"
             d="m 1366.8574,604.32122 -27.2501,15.75148 v -31.50296 z"
             id="path33" /><path
             style="color:#000000;fill:#ff6600;fill-rule:evenodd;-inkscape-stroke:none"
             d="m 1337.5078,584.92969 v 38.7832 l 33.5469,-19.39258 -3.1465,-1.8164 z m 4.1992,7.27929 20.9551,12.11133 -20.9551,12.11328 z"
             id="path34" /></g></g></g><path
       style="fill:#66bb6a;stroke:none"
       d="m 1792.1281,681.36496 c -14.9099,2.13507 -28.4427,12.32258 -33.0994,26.95606 -4.2696,13.41716 -2.006,29.53765 -2.006,43.4828 v 82.97634 c 0,15.8444 -2.5437,33.3407 7.0695,47.0731 11.5518,16.5017 28.5669,17.1538 46.7853,17.1538 h 86.5667 c 14.2779,0 30.2279,1.9709 44.2807,-0.5682 15.2333,-2.7525 27.5472,-14.0809 31.7431,-28.9522 3.7001,-13.1143 1.3676,-29.1461 1.3676,-42.685 V 743.4264 c 0,-16.32786 2.1626,-33.35468 -8.5812,-47.07312 -12.4817,-15.93764 -30.2307,-15.15914 -48.465,-15.15914 h -83.7742 c -13.5644,0 -28.4688,-1.75066 -41.8871,0.17082 m 94.1462,80.8109 c -2.8883,0 -9.1536,-1.07837 -11.4017,1.00316 -2.5469,2.3583 -1.3639,8.62141 -1.3639,11.76243 h -27.9247 v -47.87097 -12.36666 l 0.41,-4.54639 5.1749,-0.63964 h 14.3613 14.7602 l 5.3443,0.41001 0.6396,3.57924 v 9.5742 39.09462 M 1855.16,721.4289 c -2.4794,0.42665 -3.2222,3.886 -0.7563,4.94654 4.3321,1.86311 12.3979,0.29612 17.1104,0.29612 1.7913,0 4.2617,0.42586 5.9405,-0.29612 2.4805,-1.0668 1.7234,-4.43773 -0.7563,-4.83081 -6.0381,-0.95714 -15.5256,-1.15038 -21.5383,-0.11573 m -0.7563,15.11297 c -1.9808,0.85189 -2.0682,3.82193 -0.02,4.6492 4.5152,1.82363 12.6534,0.23883 17.5293,0.2407 1.7514,6.7e-4 4.3981,0.68407 5.9248,-0.34813 2.0775,-1.40454 1.1315,-4.31871 -1.1438,-4.74678 -4.8544,-0.91326 -10.6106,-0.0911 -15.5519,-0.0911 -2.0043,0 -4.8645,-0.50977 -6.7384,0.29612 m 0.7563,14.69249 c -2.305,0.67385 -3.3663,3.93794 -0.7563,5.06044 4.4258,1.90342 12.6932,0.29612 17.5093,0.29612 1.7297,0 4.3532,0.47104 5.8928,-0.47034 2.7508,-1.68204 0.4514,-4.71253 -1.9035,-5.0392 -5.5721,-0.77296 -15.3485,-1.42383 -20.7423,0.15298 m 27.1251,16.52645 -3.1914,3.1914 v -3.1914 h 3.1914 m -13.5635,19.94624 h 43.4828 11.1699 c 1.4325,8e-5 3.4332,-0.30955 4.6141,0.69503 2.223,1.89109 0.9709,8.96998 0.9709,11.67163 l -5.1861,-0.39892 v -6.3828 h -55.0516 c 0,5.59132 0.095,6.42666 -5.5849,6.3828 v -6.78172 l -17.9516,0.39892 h -37.1 v 6.3828 l -5.1861,0.39892 c -0.6383,-2.68121 -1.5577,-9.74951 0.909,-11.67163 3.0155,-2.34977 12.1028,-0.69503 15.8459,-0.69503 h 43.4828 c 0,-1.86884 -0.5955,-4.95565 0.2407,-6.65491 0.6847,-1.39152 4.4188,-1.39151 5.1035,0 0.8361,1.69926 0.2407,4.78607 0.2407,6.65491 m -41.4882,17.55269 v 52.65811 c -2.9177,0 -10.2773,-1.3443 -11.9566,1.6391 -1.3234,2.3509 1.2741,9.602 -1.3347,10.8857 -1.9558,0.9624 -5.699,0.2408 -7.8517,0.2408 h -19.5473 v -65.42371 h 40.6903 m 59.0409,0 v 52.65811 c -2.9785,0 -9.125,-1.1659 -11.4577,0.9708 -2.5214,2.3096 -1.3079,8.6781 -1.3079,11.7948 h -27.9247 v -65.42371 h 40.6903 m 59.0409,0 v 52.65811 c -3.0219,0 -9.0839,-1.1558 -11.4777,0.9708 -2.524,2.2422 -1.2879,8.7084 -1.2879,11.7948 h -27.9248 v -65.42371 h 40.6904 m -128.0549,22.33981 h -14.7602 c -1.4086,0 -4.1714,-0.5189 -5.3442,0.41 -1.0059,0.7966 -0.6396,2.86 -0.6397,3.9781 v 11.5689 c 0,1.1889 -0.4279,3.5315 0.6397,4.3771 2.0371,1.6134 8.7707,0.41 11.3281,0.41 1.8055,0 7.1477,0.899 8.3663,-0.6397 0.9289,-1.1728 0.41,-3.9356 0.41,-5.3442 v -14.7602 m 47.0731,0.1754 c -12.8965,2.0566 -10.058,22.3185 2.7925,20.3172 13.3791,-2.0836 10.5612,-22.4466 -2.7925,-20.3172 m 60.2377,1.4203 -9.5742,17.5527 h 19.9462 c -1.9262,-5.2915 -6.2355,-13.7312 -10.372,-17.5527 m 16.7548,34.3075 -3.1914,2.7925 v -2.7925 h 3.1914 m -118.0817,0 -3.1914,3.1914 v -3.1914 h 3.1914 m 59.0409,0 -3.1914,3.1914 v -3.1914 z"
       id="path2" /><rect
       style="fill:#5f8dd3;stroke-width:0.529167;stroke-linecap:round;stroke-linejoin:round;stroke-dasharray:2.11667, 2.11667"
       id="rect2"
       width="218.45682"
       height="218.45682"
       x="1757.3647"
       y="249.17009"
       rx="42.516075"
       ry="42.516075" /><path
       style="fill:#ffffff;stroke-width:0.999997"
       d="m 1802.9841,422.00892 -0.6499,-0.64985 V 358.469 295.57891 h 2.1181 2.1179 v 2.118 2.11799 h 2.1181 2.1179 v 2.118 2.118 h -2.1179 -2.1181 v 4.23599 4.23601 h 2.1181 2.1179 v 2.118 2.118 h -2.1179 -2.1181 v 4.23598 4.236 h 2.1181 2.1179 v 2.118 2.118 h -2.1179 -2.1181 v 4.23599 4.236 h 2.1181 2.1179 v 2.11799 2.118 h -2.1179 -2.1181 v 4.23599 4.236 h 2.1181 2.1179 v 2.118 2.11799 h -2.1179 -2.1181 v 4.236 4.23599 h 2.1181 2.1179 v 2.118 2.11799 h -2.1179 -2.1181 v 4.236 4.236 h 2.1181 2.1179 v 2.118 2.11799 h -2.1179 -2.1181 v 4.236 4.23599 h 2.1181 2.1179 v 2.118 2.11799 h -2.1179 -2.1181 v 4.236 4.236 h 2.1181 2.1179 v 2.118 2.11799 h -2.1179 -2.1181 v 6.35399 6.35399 h 6.3541 6.3539 v -2.11799 -2.118 h 2.118 2.1181 v 2.118 2.11799 h 4.2359 4.236 v -2.11799 -2.118 h 2.118 2.118 v 2.118 2.11799 h 4.236 4.2361 v -2.11799 -2.118 h 2.1179 2.118 v 2.118 2.11799 h 4.236 4.2359 v -2.11799 -2.118 h 2.1181 2.1179 v 2.118 2.11799 h 4.2361 4.236 v -2.11799 -2.118 h 2.118 2.118 v 2.118 2.11799 h 4.2359 4.236 v -2.11799 -2.118 h 2.118 2.118 v 2.118 2.11799 h 4.2361 4.236 v -2.11799 -2.118 h 2.1179 2.1181 v 2.118 2.11799 h 4.2359 4.236 v -2.11799 -2.118 h 2.118 2.118 v 2.118 2.11799 h 4.236 4.236 v -2.11799 -2.118 h 2.118 2.118 v 2.118 2.11799 h 2.1181 2.1178 v 2.118 2.118 h -62.89 -62.8901 z m 12.0568,-12.19195 -1.4395,-1.45756 2.0431,-2.05513 2.043,-2.05514 -0.3184,-1.51809 c -0.9334,-4.45 2.9493,-8.33036 7.4011,-7.39659 l 1.5217,0.31918 9.2011,-9.1983 c 8.9379,-8.93511 9.2013,-9.22778 9.2013,-10.22802 0,-1.83059 0.566,-3.13125 1.9766,-4.54185 1.411,-1.41101 2.7111,-1.97665 4.5437,-1.97665 0.9762,0 1.2412,-0.20999 4.9327,-3.90762 l 3.9011,-3.90763 -0.3188,-1.52028 c -0.9337,-4.4512 2.9476,-8.33279 7.3986,-7.39918 l 1.5199,0.3188 3.3786,-3.37101 c 1.8582,-1.85407 3.3784,-3.46211 3.3784,-3.57342 0,-0.1113 -0.1834,-0.20238 -0.4076,-0.20238 -0.782,0 -2.4544,-1.04857 -3.3603,-2.10686 -2.2084,-2.58005 -2.031,-5.87913 0.4497,-8.35972 2.4805,-2.48058 5.7796,-2.65801 8.3596,-0.44958 1.0583,0.90586 2.1069,2.57824 2.1069,3.36025 0,0.22422 0.091,0.40768 0.2024,0.40768 0.1113,0 1.7193,-1.52035 3.5734,-3.37853 l 3.371,-3.37852 -0.3188,-1.51988 c -0.9336,-4.45119 2.948,-8.33236 7.3995,-7.39865 l 1.5206,0.31896 4.4418,-4.43399 4.4418,-4.43399 -1.3949,-0.15788 c -3.4094,-0.38586 -6.028,-3.13501 -6.028,-6.3285 0,-3.28042 3.0734,-6.35399 6.3539,-6.35399 3.265,0 6.3443,3.07964 6.3514,6.3522 v 1.18959 l 2.3824,-2.38236 2.3823,-2.38236 -0.3191,-1.52144 c -0.9332,-4.44906 2.9469,-8.33407 7.3923,-7.40164 l 1.5137,0.31751 1.0069,-0.98308 1.0067,-0.98308 1.5097,1.50974 1.5098,1.50973 -1.0067,1.03089 c -0.9699,0.99331 -0.9962,1.06827 -0.7218,2.05666 0.4361,1.57054 0.3422,2.75129 -0.3347,4.20469 -1.1543,2.47881 -3.7709,4.06144 -6.1966,3.74801 -0.6906,-0.0892 -1.494,-0.22907 -1.7853,-0.31073 -0.4248,-0.11915 -2.4044,1.72867 -10.018,9.35079 l -9.4886,9.49927 0.287,1.03385 c 0.4383,1.57867 0.3453,2.75728 -0.3325,4.21278 -1.1543,2.47882 -3.7709,4.06144 -6.1966,3.74801 -0.6906,-0.0892 -1.494,-0.22905 -1.7853,-0.31069 -0.4253,-0.11924 -2.6033,1.92752 -11.077,10.40968 l -10.5477,10.55813 0.2872,1.03395 c 0.4383,1.57877 0.3453,2.75736 -0.3325,4.21289 -1.1544,2.47881 -3.7709,4.06144 -6.1967,3.74801 -0.6906,-0.0892 -1.494,-0.22943 -1.7852,-0.31155 -0.4162,-0.11733 -1.2856,0.60981 -4.0621,3.39709 l -3.5327,3.54637 0.5769,1.13066 c 0.8861,1.73703 0.98,3.58263 0.2665,5.24124 -1.5124,3.51551 -5.3889,4.94263 -8.7576,3.22404 l -1.1165,-0.56955 -8.8391,8.82836 c -7.086,7.07728 -8.8097,8.93338 -8.6907,9.35785 0.082,0.29123 0.2216,1.09458 0.3108,1.78525 0.3134,2.42571 -1.2693,5.04229 -3.748,6.19661 -1.4546,0.67736 -2.6342,0.77082 -4.2092,0.33351 l -1.0302,-0.28605 -2.0202,2.00839 c -1.1112,1.10463 -2.0813,2.0084 -2.1559,2.0084 -0.075,0 -0.7833,-0.6559 -1.5749,-1.45755 z m 9.9414,-6.87002 c 1.3133,-1.31322 0.3828,-3.58616 -1.468,-3.58616 -1.0885,0 -2.1181,1.02958 -2.1181,2.118 0,1.08841 1.0296,2.118 2.1181,2.118 0.5158,0 1.0585,-0.24022 1.468,-0.64984 z m 27.534,-25.41597 c 1.3132,-1.31321 0.3827,-3.58616 -1.4681,-3.58616 -1.0884,0 -2.118,1.02958 -2.118,2.118 0,1.08841 1.0296,2.118 2.118,2.118 0.5159,0 1.0586,-0.24021 1.4681,-0.64984 z m 14.8261,-16.94399 c 1.3131,-1.3132 0.3826,-3.58615 -1.4682,-3.58615 -0.5158,0 -1.0585,0.2402 -1.4682,0.64984 -1.3132,1.31321 -0.3826,3.58615 1.4682,3.58615 0.5158,0 1.0585,-0.24021 1.4682,-0.64984 z m 10.5899,-19.06197 c 1.3132,-1.31321 0.3826,-3.58615 -1.4681,-3.58615 -1.0884,0 -2.118,1.02958 -2.118,2.11799 0,1.08842 1.0296,2.118 2.118,2.118 0.5158,0 1.0585,-0.24021 1.4681,-0.64984 z m 19.0619,-10.58999 c 1.3133,-1.31321 0.3827,-3.58615 -1.468,-3.58615 -1.0885,0 -2.1181,1.02959 -2.1181,2.118 0,1.0884 1.0296,2.11799 2.1181,2.11799 0.5157,0 1.0585,-0.24021 1.468,-0.64984 z m 10.5901,-21.17998 c 1.3132,-1.31321 0.3827,-3.58616 -1.4682,-3.58616 -1.0884,0 -2.118,1.02959 -2.118,2.118 0,1.08842 1.0296,2.118 2.118,2.118 0.5159,0 1.0585,-0.2402 1.4682,-0.64984 z m 16.9439,-6.35398 c 1.3132,-1.31321 0.3827,-3.58617 -1.4681,-3.58617 -1.0884,0 -2.118,1.02959 -2.118,2.118 0,1.08842 1.0296,2.118 2.118,2.118 0.5158,0 1.0586,-0.2402 1.4681,-0.64983 z m -101.4258,86.85929 c -2.2736,-1.05871 -3.8242,-3.38021 -3.8242,-5.72555 0,-3.28043 3.0737,-6.35399 6.354,-6.35399 2.3454,0 4.6669,1.55055 5.7256,3.82414 0.8041,1.72699 0.8033,3.34025 0,5.04497 -1.5617,3.30336 -5.0986,4.67924 -8.2529,3.21043 z m 3.998,-4.2574 c 1.3132,-1.31321 0.3826,-3.58615 -1.4682,-3.58615 -1.0884,0 -2.1179,1.02958 -2.1179,2.118 0,1.08841 1.0295,2.11799 2.1179,2.11799 0.5159,0 1.0586,-0.24021 1.4682,-0.64984 z m 48.9519,0.0214 c -2.2736,-1.0587 -3.8241,-3.38021 -3.8241,-5.72555 0,-3.28043 3.0735,-6.35398 6.3539,-6.35398 2.3454,0 4.6669,1.55054 5.7256,3.82413 0.8042,1.727 0.8034,3.34026 0,5.04497 -1.5616,3.30336 -5.0985,4.67925 -8.2528,3.21043 z m 3.998,-4.25739 c 0.4096,-0.40964 0.6499,-0.95233 0.6499,-1.46816 0,-0.51583 -0.2403,-1.05853 -0.6499,-1.46816 -0.4096,-0.40963 -0.9523,-0.64984 -1.4682,-0.64984 -0.5158,0 -1.0585,0.24021 -1.468,0.64984 -0.4097,0.40963 -0.6499,0.95233 -0.6499,1.46816 0,0.51583 0.2402,1.05852 0.6499,1.46816 0.4095,0.40963 0.9522,0.64983 1.468,0.64983 0.5159,0 1.0586,-0.2402 1.4682,-0.64983 z m -50.5939,-14.80458 c -2.2736,-1.0587 -3.8242,-3.38022 -3.8242,-5.72556 0,-3.28042 3.0736,-6.35398 6.354,-6.35398 2.3454,0 4.6668,1.55054 5.7256,3.82414 0.8041,1.72699 0.8033,3.34025 0,5.04497 -1.5617,3.30336 -5.0985,4.67925 -8.2529,3.21043 z m 3.9979,-4.2574 c 1.3133,-1.31321 0.3827,-3.58616 -1.4681,-3.58616 -1.0883,0 -2.118,1.02959 -2.118,2.118 0,1.08841 1.0297,2.118 2.118,2.118 0.5158,0 1.0586,-0.24021 1.4681,-0.64984 z m 53.188,-4.21459 c -2.2736,-1.05871 -3.8242,-3.38021 -3.8242,-5.72555 0,-3.28043 3.0736,-6.354 6.354,-6.354 2.3454,0 4.6669,1.55056 5.7256,3.82416 0.8042,1.72699 0.8034,3.34023 0,5.04496 -1.5616,3.30336 -5.0986,4.67924 -8.2529,3.21043 z m 3.998,-4.25739 c 1.3133,-1.31321 0.3827,-3.58616 -1.4682,-3.58616 -1.0884,0 -2.118,1.02958 -2.118,2.118 0,1.08841 1.0296,2.118 2.118,2.118 0.5159,0 1.0586,-0.24021 1.4682,-0.64984 z m -42.122,-4.2146 c -2.2735,-1.0587 -3.824,-3.38021 -3.824,-5.72556 0,-3.28042 3.0735,-6.35399 6.3539,-6.35399 2.3453,0 4.6669,1.55055 5.7255,3.82415 0.8042,1.72699 0.8034,3.34025 0,5.04496 -1.5616,3.30337 -5.0985,4.67925 -8.2528,3.21044 z m 3.998,-4.2574 c 1.3132,-1.31321 0.3827,-3.58615 -1.4681,-3.58615 -0.5158,0 -1.0585,0.24021 -1.4681,0.64984 -0.4097,0.40963 -0.6499,0.95233 -0.6499,1.46815 0,0.51584 0.2402,1.05853 0.6499,1.46816 0.4096,0.40963 0.9523,0.64984 1.4681,0.64984 0.5159,0 1.0586,-0.24021 1.4681,-0.64984 z m 59.5419,-16.92257 c -2.2735,-1.05871 -3.8241,-3.38022 -3.8241,-5.72556 0,-1.66534 0.6055,-3.00614 1.9767,-4.37734 2.4914,-2.49137 5.779,-2.65859 8.3865,-0.42655 2.2138,1.89486 2.8976,4.81506 1.7138,7.31902 -1.5616,3.30336 -5.0985,4.67924 -8.2529,3.21043 z m 3.998,-4.25741 c 1.3133,-1.3132 0.3828,-3.58615 -1.4681,-3.58615 -1.0884,0 -2.118,1.02959 -2.118,2.118 0,1.08841 1.0296,2.118 2.118,2.118 0.5159,0 1.0586,-0.24022 1.4681,-0.64985 z m -33.6498,-2.09658 c -2.2737,-1.05871 -3.8243,-3.38022 -3.8243,-5.72556 0,-1.66534 0.6055,-3.00614 1.9766,-4.37734 2.4915,-2.49139 5.7791,-2.6586 8.3867,-0.42655 2.2137,1.89486 2.8975,4.81506 1.7138,7.31901 -1.5617,3.30337 -5.0986,4.67925 -8.2528,3.21044 z m 3.9979,-4.25741 c 1.3133,-1.31321 0.3827,-3.58615 -1.4682,-3.58615 -1.0884,0 -2.118,1.02959 -2.118,2.118 0,1.08842 1.0296,2.118 2.118,2.118 0.5159,0 1.0585,-0.24021 1.4682,-0.64985 z"
       id="path1" /><g
       id="text2"
       style="font-size:10.6667px;line-height:1.25;letter-spacing:0px;word-spacing:0px;white-space:pre;stroke-width:0.0974326;stroke:none"
       transform="matrix(2.7155415,0,0,2.7155415,-19914.661,-3844.756)"
       aria-label="LINEAR &#10;REGRESSION"><path
         style="text-align:center;text-anchor:middle;stroke:none"
         d="m 8005.0944,1602.5109 h -4.9063 v -7.7553 h 1.0312 v 6.8386 h 3.8751 z m 3.7656,0 h -3.0625 v -0.7917 h 1.0156 v -6.1719 h -1.0156 v -0.7917 h 3.0625 v 0.7917 h -1.0156 v 6.1719 h 1.0156 z m 7.6719,0 h -1.2761 l -3.6771,-6.9376 v 6.9376 h -0.9635 v -7.7553 h 1.599 l 3.3541,6.3334 v -6.3334 h 0.9636 z m 7.1719,0 h -5.1094 v -7.7553 h 5.1094 v 0.9167 h -4.0782 v 2.125 h 4.0782 v 0.9167 h -4.0782 v 2.8802 h 4.0782 z m 7.75,0 h -1.099 l -0.7604,-2.1615 h -3.3541 l -0.7605,2.1615 h -1.0468 l 2.8229,-7.7553 h 1.375 z m -2.1771,-3.0469 -1.3594,-3.8073 -1.3645,3.8073 z m 9.7709,3.0469 h -1.3386 l -2.5937,-3.0834 h -1.4532 v 3.0834 h -1.0312 v -7.7553 h 2.1719 q 0.7031,0 1.1719,0.094 0.4687,0.088 0.8437,0.3229 0.4219,0.2656 0.6563,0.6719 0.2395,0.401 0.2395,1.0208 0,0.8385 -0.4218,1.4063 -0.4219,0.5625 -1.1615,0.8489 z m -2.4115,-5.573 q 0,-0.3333 -0.1198,-0.5885 -0.1146,-0.2604 -0.3854,-0.4375 -0.224,-0.1511 -0.5312,-0.2084 -0.3073,-0.062 -0.724,-0.062 h -1.2136 v 2.9271 h 1.0417 q 0.4896,0 0.8542,-0.083 0.3646,-0.088 0.6198,-0.3229 0.2344,-0.2188 0.3437,-0.5 0.1146,-0.2865 0.1146,-0.724 z"
         id="path3" /><path
         style="text-align:center;text-anchor:middle;stroke:none"
         d="m 7992.4459,1615.8442 h -1.3386 l -2.5937,-3.0833 h -1.4532 v 3.0833 h -1.0312 v -7.7552 h 2.1719 q 0.7031,0 1.1718,0.094 0.4688,0.089 0.8438,0.323 0.4219,0.2656 0.6563,0.6718 0.2395,0.4011 0.2395,1.0209 0,0.8385 -0.4218,1.4062 -0.4219,0.5625 -1.1615,0.849 z m -2.4115,-5.5729 q 0,-0.3333 -0.1198,-0.5886 -0.1146,-0.2604 -0.3854,-0.4375 -0.224,-0.151 -0.5313,-0.2083 -0.3072,-0.062 -0.7239,-0.062 h -1.2136 v 2.9271 h 1.0417 q 0.4896,0 0.8542,-0.083 0.3646,-0.089 0.6198,-0.3229 0.2343,-0.2188 0.3437,-0.5 0.1146,-0.2865 0.1146,-0.724 z m 8.5209,5.5729 h -5.1094 v -7.7552 h 5.1094 v 0.9167 h -4.0782 v 2.125 h 4.0782 v 0.9166 h -4.0782 v 2.8803 h 4.0782 z m 8.1042,-0.5729 q -0.6355,0.2917 -1.3907,0.5104 -0.75,0.2136 -1.4531,0.2136 -0.9063,0 -1.6615,-0.25 -0.7552,-0.25 -1.2864,-0.75 -0.5365,-0.5052 -0.8282,-1.2605 -0.2916,-0.7604 -0.2916,-1.776 0,-1.8594 1.0833,-2.9323 1.0886,-1.0781 2.9844,-1.0781 0.6615,0 1.349,0.1614 0.6927,0.1563 1.4896,0.5365 v 1.2239 h -0.094 q -0.1615,-0.125 -0.4688,-0.3281 -0.3072,-0.2031 -0.6041,-0.3385 -0.3594,-0.1615 -0.8177,-0.2656 -0.4532,-0.1094 -1.0313,-0.1094 -1.3021,0 -2.0625,0.8385 -0.7552,0.8334 -0.7552,2.2604 0,1.5053 0.7917,2.3438 0.7916,0.8333 2.1562,0.8333 0.5,0 0.9948,-0.099 0.5,-0.099 0.875,-0.2552 v -1.9011 h -2.0781 v -0.9062 h 3.099 z m 8.2187,0.5729 h -1.3385 l -2.5938,-3.0833 h -1.4531 v 3.0833 h -1.0313 v -7.7552 h 2.1719 q 0.7032,0 1.1719,0.094 0.4688,0.089 0.8438,0.323 0.4218,0.2656 0.6562,0.6718 0.2396,0.4011 0.2396,1.0209 0,0.8385 -0.4219,1.4062 -0.4219,0.5625 -1.1614,0.849 z m -2.4114,-5.5729 q 0,-0.3333 -0.1198,-0.5886 -0.1146,-0.2604 -0.3854,-0.4375 -0.224,-0.151 -0.5313,-0.2083 -0.3073,-0.062 -0.724,-0.062 h -1.2135 v 2.9271 h 1.0417 q 0.4896,0 0.8541,-0.083 0.3646,-0.089 0.6198,-0.3229 0.2344,-0.2188 0.3438,-0.5 0.1146,-0.2865 0.1146,-0.724 z m 8.5208,5.5729 h -5.1094 v -7.7552 h 5.1094 v 0.9167 h -4.0781 v 2.125 h 4.0781 v 0.9166 h -4.0781 v 2.8803 h 4.0781 z m 7.2709,-2.2135 q 0,0.4531 -0.2136,0.8958 -0.2083,0.4427 -0.5885,0.75 -0.4167,0.3333 -0.974,0.5208 -0.552,0.1876 -1.3333,0.1876 -0.8385,0 -1.5104,-0.1563 -0.6667,-0.1563 -1.3594,-0.4635 v -1.2917 h 0.073 q 0.5886,0.4896 1.3594,0.7552 0.7708,0.2656 1.4479,0.2656 0.9584,0 1.4896,-0.3594 0.5365,-0.3593 0.5365,-0.9583 0,-0.5156 -0.2552,-0.7604 -0.25,-0.2448 -0.7657,-0.3802 -0.3906,-0.1042 -0.8489,-0.1719 -0.4532,-0.068 -0.9636,-0.1719 -1.0312,-0.2187 -1.5312,-0.7448 -0.4948,-0.5312 -0.4948,-1.3802 0,-0.9739 0.8229,-1.5937 0.8229,-0.625 2.0885,-0.625 0.8178,0 1.5,0.1562 0.6823,0.1563 1.2084,0.3854 v 1.2188 h -0.073 q -0.4427,-0.375 -1.1667,-0.6198 -0.7188,-0.25 -1.474,-0.25 -0.8281,0 -1.3333,0.3437 -0.5,0.3438 -0.5,0.8855 0,0.4843 0.25,0.7604 0.25,0.276 0.8802,0.4219 0.3333,0.073 0.9479,0.177 0.6146,0.1042 1.0417,0.2136 0.8646,0.2292 1.3021,0.6927 0.4375,0.4635 0.4375,1.2969 z m 7.1771,0 q 0,0.4531 -0.2135,0.8958 -0.2084,0.4427 -0.5886,0.75 -0.4167,0.3333 -0.974,0.5208 -0.552,0.1876 -1.3333,0.1876 -0.8385,0 -1.5104,-0.1563 -0.6667,-0.1563 -1.3594,-0.4635 v -1.2917 h 0.073 q 0.5886,0.4896 1.3594,0.7552 0.7708,0.2656 1.4479,0.2656 0.9584,0 1.4896,-0.3594 0.5365,-0.3593 0.5365,-0.9583 0,-0.5156 -0.2552,-0.7604 -0.25,-0.2448 -0.7657,-0.3802 -0.3906,-0.1042 -0.8489,-0.1719 -0.4531,-0.068 -0.9636,-0.1719 -1.0312,-0.2187 -1.5312,-0.7448 -0.4948,-0.5312 -0.4948,-1.3802 0,-0.9739 0.8229,-1.5937 0.8229,-0.625 2.0886,-0.625 0.8177,0 1.5,0.1562 0.6822,0.1563 1.2083,0.3854 v 1.2188 h -0.073 q -0.4427,-0.375 -1.1667,-0.6198 -0.7187,-0.25 -1.474,-0.25 -0.8281,0 -1.3333,0.3437 -0.5,0.3438 -0.5,0.8855 0,0.4843 0.25,0.7604 0.25,0.276 0.8802,0.4219 0.3334,0.073 0.9479,0.177 0.6146,0.1042 1.0417,0.2136 0.8646,0.2292 1.3021,0.6927 0.4375,0.4635 0.4375,1.2969 z m 4.3906,2.2135 h -3.0625 v -0.7916 h 1.0156 v -6.1719 h -1.0156 v -0.7917 h 3.0625 v 0.7917 h -1.0156 v 6.1719 h 1.0156 z m 7.5365,-6.8646 q 0.474,0.5209 0.724,1.2761 0.2552,0.7552 0.2552,1.7135 0,0.9583 -0.2604,1.7188 -0.2552,0.7552 -0.7188,1.2604 -0.4792,0.526 -1.1354,0.7917 -0.6511,0.2656 -1.4896,0.2656 -0.8177,0 -1.4896,-0.2709 -0.6667,-0.2708 -1.1354,-0.7864 -0.4688,-0.5156 -0.724,-1.2656 -0.25,-0.75 -0.25,-1.7136 0,-0.9479 0.25,-1.6979 0.25,-0.7552 0.7292,-1.2917 0.4583,-0.5104 1.1354,-0.7812 0.6823,-0.2709 1.4844,-0.2709 0.8333,0 1.4948,0.2761 0.6667,0.2708 1.1302,0.776 z m -0.094,2.9896 q 0,-1.5104 -0.6771,-2.3281 -0.6771,-0.8229 -1.849,-0.8229 -1.1823,0 -1.8594,0.8229 -0.6718,0.8177 -0.6718,2.3281 0,1.5261 0.6875,2.3386 0.6875,0.8073 1.8437,0.8073 1.1563,0 1.8386,-0.8073 0.6875,-0.8125 0.6875,-2.3386 z m 8.625,3.875 h -1.2761 l -3.677,-6.9375 v 6.9375 h -0.9636 v -7.7552 h 1.599 l 3.3541,6.3333 v -6.3333 h 0.9636 z"
         id="path4" /></g><path
       style="font-size:10.6667px;line-height:1.25;text-align:center;letter-spacing:0px;word-spacing:0px;text-anchor:middle;white-space:pre;stroke-width:0.0974326;stroke:none"
       d="m 7981.9224,1601.9483 q -0.2865,0.125 -0.5208,0.2344 -0.2292,0.1094 -0.6042,0.2292 -0.3177,0.099 -0.6927,0.1667 -0.3698,0.073 -0.8177,0.073 -0.8438,0 -1.5365,-0.2344 -0.6875,-0.2396 -1.1979,-0.7448 -0.5,-0.4948 -0.7813,-1.2552 -0.2812,-0.7656 -0.2812,-1.7761 0,-0.9583 0.2708,-1.7135 0.2709,-0.7552 0.7813,-1.276 0.4948,-0.5053 1.1927,-0.7709 0.7031,-0.2656 1.5573,-0.2656 0.625,0 1.2448,0.151 0.625,0.1511 1.3854,0.5313 v 1.2239 h -0.078 q -0.6406,-0.5364 -1.2709,-0.7812 -0.6302,-0.2448 -1.3489,-0.2448 -0.5886,0 -1.0625,0.1927 -0.4688,0.1875 -0.8386,0.5886 -0.3593,0.3906 -0.5625,0.9895 -0.1979,0.5938 -0.1979,1.375 0,0.8178 0.2188,1.4063 0.2239,0.5885 0.5729,0.9583 0.3646,0.3855 0.8489,0.573 0.4896,0.1822 1.0313,0.1822 0.7448,0 1.3958,-0.2552 0.6511,-0.2552 1.2188,-0.7656 h 0.073 z m 6.3646,0.5626 h -4.9063 v -7.7553 h 1.0313 v 6.8386 h 3.875 z m 7.1459,0 h -1.099 l -0.7604,-2.1615 h -3.3542 l -0.7604,2.1615 h -1.0469 l 2.8229,-7.7553 h 1.375 z m -2.1771,-3.0469 -1.3594,-3.8073 -1.3646,3.8073 z m 8.9375,0.8333 q 0,0.4531 -0.2135,0.8958 -0.2084,0.4427 -0.5886,0.75 -0.4167,0.3334 -0.9739,0.5209 -0.5521,0.1875 -1.3334,0.1875 -0.8385,0 -1.5104,-0.1563 -0.6667,-0.1562 -1.3594,-0.4635 v -1.2917 h 0.073 q 0.5886,0.4896 1.3594,0.7552 0.7708,0.2656 1.4479,0.2656 0.9584,0 1.4896,-0.3593 0.5365,-0.3594 0.5365,-0.9584 0,-0.5156 -0.2552,-0.7604 -0.25,-0.2448 -0.7657,-0.3802 -0.3906,-0.1042 -0.8489,-0.1719 -0.4531,-0.068 -0.9636,-0.1718 -1.0312,-0.2188 -1.5312,-0.7448 -0.4948,-0.5313 -0.4948,-1.3803 0,-0.9739 0.8229,-1.5937 0.8229,-0.625 2.0886,-0.625 0.8177,0 1.5,0.1562 0.6823,0.1563 1.2083,0.3855 v 1.2187 h -0.073 q -0.4427,-0.375 -1.1667,-0.6198 -0.7187,-0.25 -1.474,-0.25 -0.8281,0 -1.3333,0.3438 -0.5,0.3437 -0.5,0.8854 0,0.4844 0.25,0.7604 0.25,0.2761 0.8802,0.4219 0.3334,0.073 0.9479,0.1771 0.6146,0.1041 1.0417,0.2135 0.8646,0.2292 1.3021,0.6927 0.4375,0.4636 0.4375,1.2969 z m 7.1771,0 q 0,0.4531 -0.2135,0.8958 -0.2084,0.4427 -0.5886,0.75 -0.4166,0.3334 -0.9739,0.5209 -0.5521,0.1875 -1.3334,0.1875 -0.8385,0 -1.5104,-0.1563 -0.6667,-0.1562 -1.3594,-0.4635 v -1.2917 h 0.073 q 0.5886,0.4896 1.3594,0.7552 0.7709,0.2656 1.4479,0.2656 0.9584,0 1.4896,-0.3593 0.5365,-0.3594 0.5365,-0.9584 0,-0.5156 -0.2552,-0.7604 -0.25,-0.2448 -0.7656,-0.3802 -0.3907,-0.1042 -0.849,-0.1719 -0.4531,-0.068 -0.9636,-0.1718 -1.0312,-0.2188 -1.5312,-0.7448 -0.4948,-0.5313 -0.4948,-1.3803 0,-0.9739 0.8229,-1.5937 0.8229,-0.625 2.0886,-0.625 0.8177,0 1.5,0.1562 0.6823,0.1563 1.2083,0.3855 v 1.2187 h -0.073 q -0.4427,-0.375 -1.1667,-0.6198 -0.7187,-0.25 -1.4739,-0.25 -0.8282,0 -1.3334,0.3438 -0.5,0.3437 -0.5,0.8854 0,0.4844 0.25,0.7604 0.25,0.2761 0.8802,0.4219 0.3334,0.073 0.9479,0.1771 0.6146,0.1041 1.0417,0.2135 0.8646,0.2292 1.3021,0.6927 0.4375,0.4636 0.4375,1.2969 z m 4.3906,2.2136 h -3.0625 v -0.7917 h 1.0157 v -6.1719 h -1.0157 v -0.7917 h 3.0625 v 0.7917 h -1.0156 v 6.1719 h 1.0156 z m 6.7084,-6.8386 h -3.9219 v 2.1875 h 3.3698 v 0.9167 h -3.3698 v 3.7344 h -1.0312 v -7.7553 h 4.9531 z m 3.9115,6.8386 h -3.0625 v -0.7917 h 1.0156 v -6.1719 h -1.0156 v -0.7917 h 3.0625 v 0.7917 h -1.0157 v 6.1719 h 1.0157 z m 7.7448,-0.5626 q -0.2865,0.125 -0.5208,0.2344 -0.2292,0.1094 -0.6042,0.2292 -0.3177,0.099 -0.6927,0.1667 -0.3698,0.073 -0.8177,0.073 -0.8438,0 -1.5365,-0.2344 -0.6875,-0.2396 -1.1979,-0.7448 -0.5,-0.4948 -0.7813,-1.2552 -0.2812,-0.7656 -0.2812,-1.7761 0,-0.9583 0.2708,-1.7135 0.2708,-0.7552 0.7813,-1.276 0.4948,-0.5053 1.1927,-0.7709 0.7031,-0.2656 1.5573,-0.2656 0.625,0 1.2448,0.151 0.625,0.1511 1.3854,0.5313 v 1.2239 h -0.078 q -0.6407,-0.5364 -1.2709,-0.7812 -0.6302,-0.2448 -1.3489,-0.2448 -0.5886,0 -1.0625,0.1927 -0.4688,0.1875 -0.8386,0.5886 -0.3594,0.3906 -0.5625,0.9895 -0.1979,0.5938 -0.1979,1.375 0,0.8178 0.2187,1.4063 0.224,0.5885 0.573,0.9583 0.3645,0.3855 0.8489,0.573 0.4896,0.1822 1.0313,0.1822 0.7448,0 1.3958,-0.2552 0.6511,-0.2552 1.2188,-0.7656 h 0.073 z m 7.5729,0.5626 h -1.0989 l -0.7605,-2.1615 h -3.3541 l -0.7605,2.1615 h -1.0468 l 2.8229,-7.7553 h 1.375 z m -2.1771,-3.0469 -1.3593,-3.8073 -1.3646,3.8073 z m 6.0886,3.0469 h -3.0625 v -0.7917 h 1.0156 v -6.1719 h -1.0156 v -0.7917 h 3.0625 v 0.7917 h -1.0156 v 6.1719 h 1.0156 z m 7.2865,-6.8386 h -2.7709 v 6.8386 h -1.0312 v -6.8386 h -2.7709 v -0.9167 h 6.573 z m 6.5625,-0.026 q 0.474,0.5209 0.724,1.2761 0.2552,0.7552 0.2552,1.7135 0,0.9584 -0.2604,1.7188 -0.2553,0.7552 -0.7188,1.2604 -0.4792,0.5261 -1.1354,0.7917 -0.6511,0.2656 -1.4896,0.2656 -0.8177,0 -1.4896,-0.2708 -0.6667,-0.2709 -1.1354,-0.7865 -0.4688,-0.5156 -0.724,-1.2656 -0.25,-0.75 -0.25,-1.7136 0,-0.9479 0.25,-1.6979 0.25,-0.7552 0.7292,-1.2917 0.4583,-0.5104 1.1354,-0.7812 0.6823,-0.2708 1.4844,-0.2708 0.8333,0 1.4948,0.276 0.6667,0.2708 1.1302,0.776 z m -0.094,2.9896 q 0,-1.5104 -0.6771,-2.3281 -0.6771,-0.8229 -1.849,-0.8229 -1.1823,0 -1.8594,0.8229 -0.6719,0.8177 -0.6719,2.3281 0,1.5261 0.6875,2.3386 0.6875,0.8073 1.8438,0.8073 1.1563,0 1.8385,-0.8073 0.6876,-0.8125 0.6876,-2.3386 z m 8.625,3.8751 h -1.2761 l -3.6771,-6.9376 v 6.9376 h -0.9635 v -7.7553 h 1.599 l 3.3541,6.3334 v -6.3334 h 0.9636 z"
       id="text17"
       transform="matrix(2.7155415,0,0,2.7155415,-19914.661,-3404.6445)"
       aria-label="CLASSIFICAITON" /><g
       id="path18"
       transform="matrix(0.54980758,-0.31743155,0.31743155,0.54980758,729.63739,479.46263)"><path
         style="color:#000000;fill:#5f8dd3;stroke-linecap:round;stroke-linejoin:round;-inkscape-stroke:none"
         d="m 1009.9062,600.38281 a 3.93787,3.93787 0 0 0 -3.9375,3.9375 3.93787,3.93787 0 0 0 3.9375,3.93946 h 338.7735 a 3.93787,3.93787 0 0 0 3.9375,-3.93946 3.93787,3.93787 0 0 0 -3.9375,-3.9375 z"
         id="path40" /><g
         id="g37"><g
           id="path37"><path
             style="color:#000000;fill:#5f8dd3;fill-rule:evenodd;-inkscape-stroke:none"
             d="m 1366.8574,604.32122 -27.2501,15.75148 v -31.50296 z"
             id="path38" /><path
             style="color:#000000;fill:#5f8dd3;fill-rule:evenodd;-inkscape-stroke:none"
             d="m 1337.5078,584.92969 v 38.7832 l 33.5469,-19.39258 -3.1465,-1.8164 z m 4.1992,7.27929 20.9551,12.11133 -20.9551,12.11328 z"
             id="path39" /></g></g></g><g
       id="path19"
       transform="matrix(0.54980758,0.31743155,0.31743155,-0.54980758,729.63739,702.77461)"><path
         style="color:#000000;fill:#66bb6a;stroke-linecap:round;stroke-linejoin:round;-inkscape-stroke:none"
         d="m 1009.9062,600.38281 a 3.93787,3.93787 0 0 0 -3.9375,3.9375 3.93787,3.93787 0 0 0 3.9375,3.93946 h 338.7735 a 3.93787,3.93787 0 0 0 3.9375,-3.93946 3.93787,3.93787 0 0 0 -3.9375,-3.9375 z"
         id="path44" /><g
         id="g41"><g
           id="path41"><path
             style="color:#000000;fill:#66bb6a;fill-rule:evenodd;-inkscape-stroke:none"
             d="m 1366.8574,604.32122 -27.2501,15.75148 v -31.50296 z"
             id="path42" /><path
             style="color:#000000;fill:#66bb6a;fill-rule:evenodd;-inkscape-stroke:none"
             d="m 1337.5078,584.92969 v 38.7832 l 33.5469,-19.39258 -3.1465,-1.8164 z m 4.1992,7.27929 20.9551,12.11133 -20.9551,12.11328 z"
             id="path43" /></g></g></g><g
       id="g51"
       style="font-size:10.6667px;line-height:1.25;letter-spacing:0px;word-spacing:0px;white-space:pre;stroke:#ffffff;stroke-width:0.0974326;fill:#ffffff"
       transform="matrix(2.7155415,0,0,2.7155415,-19914.661,-4153.1144)"
       aria-label="LINEAR &#10;REGRESSION"><path
         style="text-align:center;text-anchor:middle;stroke:#ffffff;fill:#ffffff"
         d="m 8005.0944,1602.5109 h -4.9063 v -7.7553 h 1.0312 v 6.8386 h 3.8751 z m 3.7656,0 h -3.0625 v -0.7917 h 1.0156 v -6.1719 h -1.0156 v -0.7917 h 3.0625 v 0.7917 h -1.0156 v 6.1719 h 1.0156 z m 7.6719,0 h -1.2761 l -3.6771,-6.9376 v 6.9376 h -0.9635 v -7.7553 h 1.599 l 3.3541,6.3334 v -6.3334 h 0.9636 z m 7.1719,0 h -5.1094 v -7.7553 h 5.1094 v 0.9167 h -4.0782 v 2.125 h 4.0782 v 0.9167 h -4.0782 v 2.8802 h 4.0782 z m 7.75,0 h -1.099 l -0.7604,-2.1615 h -3.3541 l -0.7605,2.1615 h -1.0468 l 2.8229,-7.7553 h 1.375 z m -2.1771,-3.0469 -1.3594,-3.8073 -1.3645,3.8073 z m 9.7709,3.0469 h -1.3386 l -2.5937,-3.0834 h -1.4532 v 3.0834 h -1.0312 v -7.7553 h 2.1719 q 0.7031,0 1.1719,0.094 0.4687,0.088 0.8437,0.3229 0.4219,0.2656 0.6563,0.6719 0.2395,0.401 0.2395,1.0208 0,0.8385 -0.4218,1.4063 -0.4219,0.5625 -1.1615,0.8489 z m -2.4115,-5.573 q 0,-0.3333 -0.1198,-0.5885 -0.1146,-0.2604 -0.3854,-0.4375 -0.224,-0.1511 -0.5312,-0.2084 -0.3073,-0.062 -0.724,-0.062 h -1.2136 v 2.9271 h 1.0417 q 0.4896,0 0.8542,-0.083 0.3646,-0.088 0.6198,-0.3229 0.2344,-0.2188 0.3437,-0.5 0.1146,-0.2865 0.1146,-0.724 z"
         id="path50" /><path
         style="text-align:center;text-anchor:middle;stroke:#ffffff;fill:#ffffff"
         d="m 7992.4459,1615.8442 h -1.3386 l -2.5937,-3.0833 h -1.4532 v 3.0833 h -1.0312 v -7.7552 h 2.1719 q 0.7031,0 1.1718,0.094 0.4688,0.089 0.8438,0.323 0.4219,0.2656 0.6563,0.6718 0.2395,0.4011 0.2395,1.0209 0,0.8385 -0.4218,1.4062 -0.4219,0.5625 -1.1615,0.849 z m -2.4115,-5.5729 q 0,-0.3333 -0.1198,-0.5886 -0.1146,-0.2604 -0.3854,-0.4375 -0.224,-0.151 -0.5313,-0.2083 -0.3072,-0.062 -0.7239,-0.062 h -1.2136 v 2.9271 h 1.0417 q 0.4896,0 0.8542,-0.083 0.3646,-0.089 0.6198,-0.3229 0.2343,-0.2188 0.3437,-0.5 0.1146,-0.2865 0.1146,-0.724 z m 8.5209,5.5729 h -5.1094 v -7.7552 h 5.1094 v 0.9167 h -4.0782 v 2.125 h 4.0782 v 0.9166 h -4.0782 v 2.8803 h 4.0782 z m 8.1042,-0.5729 q -0.6355,0.2917 -1.3907,0.5104 -0.75,0.2136 -1.4531,0.2136 -0.9063,0 -1.6615,-0.25 -0.7552,-0.25 -1.2864,-0.75 -0.5365,-0.5052 -0.8282,-1.2605 -0.2916,-0.7604 -0.2916,-1.776 0,-1.8594 1.0833,-2.9323 1.0886,-1.0781 2.9844,-1.0781 0.6615,0 1.349,0.1614 0.6927,0.1563 1.4896,0.5365 v 1.2239 h -0.094 q -0.1615,-0.125 -0.4688,-0.3281 -0.3072,-0.2031 -0.6041,-0.3385 -0.3594,-0.1615 -0.8177,-0.2656 -0.4532,-0.1094 -1.0313,-0.1094 -1.3021,0 -2.0625,0.8385 -0.7552,0.8334 -0.7552,2.2604 0,1.5053 0.7917,2.3438 0.7916,0.8333 2.1562,0.8333 0.5,0 0.9948,-0.099 0.5,-0.099 0.875,-0.2552 v -1.9011 h -2.0781 v -0.9062 h 3.099 z m 8.2187,0.5729 h -1.3385 l -2.5938,-3.0833 h -1.4531 v 3.0833 h -1.0313 v -7.7552 h 2.1719 q 0.7032,0 1.1719,0.094 0.4688,0.089 0.8438,0.323 0.4218,0.2656 0.6562,0.6718 0.2396,0.4011 0.2396,1.0209 0,0.8385 -0.4219,1.4062 -0.4219,0.5625 -1.1614,0.849 z m -2.4114,-5.5729 q 0,-0.3333 -0.1198,-0.5886 -0.1146,-0.2604 -0.3854,-0.4375 -0.224,-0.151 -0.5313,-0.2083 -0.3073,-0.062 -0.724,-0.062 h -1.2135 v 2.9271 h 1.0417 q 0.4896,0 0.8541,-0.083 0.3646,-0.089 0.6198,-0.3229 0.2344,-0.2188 0.3438,-0.5 0.1146,-0.2865 0.1146,-0.724 z m 8.5208,5.5729 h -5.1094 v -7.7552 h 5.1094 v 0.9167 h -4.0781 v 2.125 h 4.0781 v 0.9166 h -4.0781 v 2.8803 h 4.0781 z m 7.2709,-2.2135 q 0,0.4531 -0.2136,0.8958 -0.2083,0.4427 -0.5885,0.75 -0.4167,0.3333 -0.974,0.5208 -0.552,0.1876 -1.3333,0.1876 -0.8385,0 -1.5104,-0.1563 -0.6667,-0.1563 -1.3594,-0.4635 v -1.2917 h 0.073 q 0.5886,0.4896 1.3594,0.7552 0.7708,0.2656 1.4479,0.2656 0.9584,0 1.4896,-0.3594 0.5365,-0.3593 0.5365,-0.9583 0,-0.5156 -0.2552,-0.7604 -0.25,-0.2448 -0.7657,-0.3802 -0.3906,-0.1042 -0.8489,-0.1719 -0.4532,-0.068 -0.9636,-0.1719 -1.0312,-0.2187 -1.5312,-0.7448 -0.4948,-0.5312 -0.4948,-1.3802 0,-0.9739 0.8229,-1.5937 0.8229,-0.625 2.0885,-0.625 0.8178,0 1.5,0.1562 0.6823,0.1563 1.2084,0.3854 v 1.2188 h -0.073 q -0.4427,-0.375 -1.1667,-0.6198 -0.7188,-0.25 -1.474,-0.25 -0.8281,0 -1.3333,0.3437 -0.5,0.3438 -0.5,0.8855 0,0.4843 0.25,0.7604 0.25,0.276 0.8802,0.4219 0.3333,0.073 0.9479,0.177 0.6146,0.1042 1.0417,0.2136 0.8646,0.2292 1.3021,0.6927 0.4375,0.4635 0.4375,1.2969 z m 7.1771,0 q 0,0.4531 -0.2135,0.8958 -0.2084,0.4427 -0.5886,0.75 -0.4167,0.3333 -0.974,0.5208 -0.552,0.1876 -1.3333,0.1876 -0.8385,0 -1.5104,-0.1563 -0.6667,-0.1563 -1.3594,-0.4635 v -1.2917 h 0.073 q 0.5886,0.4896 1.3594,0.7552 0.7708,0.2656 1.4479,0.2656 0.9584,0 1.4896,-0.3594 0.5365,-0.3593 0.5365,-0.9583 0,-0.5156 -0.2552,-0.7604 -0.25,-0.2448 -0.7657,-0.3802 -0.3906,-0.1042 -0.8489,-0.1719 -0.4531,-0.068 -0.9636,-0.1719 -1.0312,-0.2187 -1.5312,-0.7448 -0.4948,-0.5312 -0.4948,-1.3802 0,-0.9739 0.8229,-1.5937 0.8229,-0.625 2.0886,-0.625 0.8177,0 1.5,0.1562 0.6822,0.1563 1.2083,0.3854 v 1.2188 h -0.073 q -0.4427,-0.375 -1.1667,-0.6198 -0.7187,-0.25 -1.474,-0.25 -0.8281,0 -1.3333,0.3437 -0.5,0.3438 -0.5,0.8855 0,0.4843 0.25,0.7604 0.25,0.276 0.8802,0.4219 0.3334,0.073 0.9479,0.177 0.6146,0.1042 1.0417,0.2136 0.8646,0.2292 1.3021,0.6927 0.4375,0.4635 0.4375,1.2969 z m 4.3906,2.2135 h -3.0625 v -0.7916 h 1.0156 v -6.1719 h -1.0156 v -0.7917 h 3.0625 v 0.7917 h -1.0156 v 6.1719 h 1.0156 z m 7.5365,-6.8646 q 0.474,0.5209 0.724,1.2761 0.2552,0.7552 0.2552,1.7135 0,0.9583 -0.2604,1.7188 -0.2552,0.7552 -0.7188,1.2604 -0.4792,0.526 -1.1354,0.7917 -0.6511,0.2656 -1.4896,0.2656 -0.8177,0 -1.4896,-0.2709 -0.6667,-0.2708 -1.1354,-0.7864 -0.4688,-0.5156 -0.724,-1.2656 -0.25,-0.75 -0.25,-1.7136 0,-0.9479 0.25,-1.6979 0.25,-0.7552 0.7292,-1.2917 0.4583,-0.5104 1.1354,-0.7812 0.6823,-0.2709 1.4844,-0.2709 0.8333,0 1.4948,0.2761 0.6667,0.2708 1.1302,0.776 z m -0.094,2.9896 q 0,-1.5104 -0.6771,-2.3281 -0.6771,-0.8229 -1.849,-0.8229 -1.1823,0 -1.8594,0.8229 -0.6718,0.8177 -0.6718,2.3281 0,1.5261 0.6875,2.3386 0.6875,0.8073 1.8437,0.8073 1.1563,0 1.8386,-0.8073 0.6875,-0.8125 0.6875,-2.3386 z m 8.625,3.875 h -1.2761 l -3.677,-6.9375 v 6.9375 h -0.9636 v -7.7552 h 1.599 l 3.3541,6.3333 v -6.3333 h 0.9636 z"
         id="path51" /></g><path
       style="font-size:10.6667px;line-height:1.25;text-align:center;letter-spacing:0px;word-spacing:0px;text-anchor:middle;white-space:pre;stroke:#ffffff;stroke-width:0.264582;fill:#ffffff"
       d="m 1760.5805,656.77704 q -0.778,0.33944 -1.4142,0.63652 -0.6224,0.29708 -1.6408,0.62241 -0.8627,0.26884 -1.881,0.45268 -1.0042,0.19823 -2.2205,0.19823 -2.2914,0 -4.1724,-0.63652 -1.867,-0.65064 -3.253,-2.02254 -1.3578,-1.34365 -2.1216,-3.40854 -0.7637,-2.07902 -0.7637,-4.82308 0,-2.6023 0.7354,-4.65308 0.7357,-2.05077 2.1217,-3.46503 1.3436,-1.37216 3.2388,-2.09341 1.9093,-0.72125 4.2289,-0.72125 1.6972,0 3.3803,0.41005 1.6972,0.41032 3.7621,1.44277 v 3.32355 h -0.2118 q -1.7396,-1.45662 -3.4512,-2.12138 -1.7113,-0.66477 -3.663,-0.66477 -1.5983,0 -2.8852,0.52329 -1.2731,0.50916 -2.2773,1.59836 -0.9757,1.0607 -1.5275,2.68703 -0.5374,1.61249 -0.5374,3.73387 0,2.22077 0.5942,3.81887 0.608,1.59809 1.5557,2.6023 0.9901,1.04684 2.3052,1.55601 1.3296,0.49477 2.8006,0.49477 2.0225,0 3.7903,-0.69301 1.7681,-0.693 3.3097,-2.07902 h 0.1983 z m 17.2834,1.52777 h -13.3233 v -21.05984 h 2.8005 v 18.5705 h 10.5228 z m 19.405,0 h -2.9844 l -2.0649,-5.86965 h -9.1085 l -2.0649,5.86965 h -2.8429 l 7.6657,-21.05984 h 3.7339 z m -5.9121,-8.27399 -3.6915,-10.33888 -3.7056,10.33888 z m 24.2702,2.26286 q 0,1.23041 -0.5798,2.43258 -0.5659,1.20217 -1.5983,2.03666 -1.1316,0.90536 -2.6447,1.41453 -1.4993,0.50916 -3.6209,0.50916 -2.277,0 -4.1016,-0.42444 -1.8104,-0.42417 -3.6915,-1.25865 v -3.50767 h 0.1983 q 1.5983,1.32953 3.6915,2.05078 2.0931,0.72125 3.9318,0.72125 2.6026,0 4.0451,-0.9757 1.4569,-0.97596 1.4569,-2.60257 0,-1.40013 -0.693,-2.0649 -0.6789,-0.66476 -2.0793,-1.03245 -1.0607,-0.28296 -2.3053,-0.4668 -1.2304,-0.18466 -2.6167,-0.46653 -2.8002,-0.59416 -4.158,-2.02254 -1.3436,-1.44276 -1.3436,-3.74826 0,-2.64466 2.2346,-4.32776 2.2346,-1.69721 5.6717,-1.69721 2.2205,0 4.0733,0.42417 1.8528,0.42444 3.2812,1.04684 v 3.30943 h -0.1983 q -1.2021,-1.01833 -3.1682,-1.68309 -1.9517,-0.67889 -4.0027,-0.67889 -2.2487,0 -3.6206,0.93361 -1.3578,0.93333 -1.3578,2.40434 0,1.3154 0.6789,2.06489 0.6789,0.74976 2.3902,1.14569 0.9054,0.19824 2.5741,0.48092 1.6689,0.28269 2.8287,0.57977 2.3479,0.6224 3.5359,1.88106 1.1881,1.25892 1.1881,3.52178 z m 19.4897,0 q 0,1.23041 -0.5798,2.43258 -0.5659,1.20217 -1.5983,2.03666 -1.1313,0.90536 -2.6447,1.41453 -1.4992,0.50916 -3.6209,0.50916 -2.277,0 -4.1015,-0.42444 -1.8105,-0.42417 -3.6916,-1.25865 v -3.50767 h 0.1983 q 1.5983,1.32953 3.6915,2.05078 2.0934,0.72125 3.9318,0.72125 2.6026,0 4.0451,-0.9757 1.4569,-0.97596 1.4569,-2.60257 0,-1.40013 -0.693,-2.0649 -0.6789,-0.66476 -2.079,-1.03245 -1.061,-0.28296 -2.3055,-0.4668 -1.2305,-0.18466 -2.6167,-0.46653 -2.8003,-0.59416 -4.1581,-2.02254 -1.3436,-1.44276 -1.3436,-3.74826 0,-2.64466 2.2346,-4.32776 2.2346,-1.69721 5.6717,-1.69721 2.2205,0 4.0733,0.42417 1.8528,0.42444 3.2812,1.04684 v 3.30943 h -0.1983 q -1.2021,-1.01833 -3.1682,-1.68309 -1.9516,-0.67889 -4.0024,-0.67889 -2.249,0 -3.6209,0.93361 -1.3578,0.93333 -1.3578,2.40434 0,1.3154 0.6789,2.06489 0.6789,0.74976 2.3902,1.14569 0.9054,0.19824 2.5741,0.48092 1.6689,0.28269 2.8288,0.57977 2.3478,0.6224 3.5359,1.88106 1.188,1.25892 1.188,3.52178 z m 11.9229,6.01113 h -8.3164 v -2.1499 h 2.7582 v -16.76005 h -2.7582 v -2.14989 h 8.3164 v 2.14989 h -2.7579 v 16.76005 h 2.7579 z m 18.2169,-18.57051 h -10.6501 v 5.94025 h 9.1509 v 2.48934 h -9.1509 v 10.14092 h -2.8002 v -21.05984 h 13.4503 z m 10.6218,18.57051 h -8.3163 v -2.1499 h 2.7579 v -16.76005 h -2.7579 v -2.14989 h 8.3163 v 2.14989 h -2.7581 v 16.76005 h 2.7581 z m 21.0314,-1.52777 q -0.778,0.33944 -1.4143,0.63652 -0.6224,0.29708 -1.6407,0.62241 -0.8627,0.26884 -1.8811,0.45268 -1.0042,0.19823 -2.2205,0.19823 -2.2913,0 -4.1724,-0.63652 -1.8669,-0.65064 -3.2529,-2.02254 -1.3578,-1.34365 -2.1217,-3.40854 -0.7636,-2.07902 -0.7636,-4.82308 0,-2.6023 0.7354,-4.65308 0.7353,-2.05077 2.1216,-3.46503 1.3437,-1.37216 3.2388,-2.09341 1.9093,-0.72125 4.229,-0.72125 1.6972,0 3.3803,0.41005 1.6972,0.41032 3.7621,1.44277 v 3.32355 h -0.2118 q -1.7399,-1.45662 -3.4512,-2.12138 -1.7114,-0.66477 -3.663,-0.66477 -1.5984,0 -2.8853,0.52329 -1.273,0.50916 -2.2772,1.59836 -0.976,1.0607 -1.5275,2.68703 -0.5374,1.61249 -0.5374,3.73387 0,2.22077 0.5939,3.81887 0.6082,1.59809 1.556,2.6023 0.9898,1.04684 2.3052,1.55601 1.3295,0.49477 2.8005,0.49477 2.0226,0 3.7904,-0.69301 1.7681,-0.693 3.3097,-2.07902 h 0.1982 z m 20.5645,1.52777 h -2.9841 l -2.0652,-5.86965 h -9.1082 l -2.0651,5.86965 h -2.8427 l 7.6657,-21.05984 h 3.7339 z m -5.912,-8.27399 -3.6912,-10.33888 -3.7057,10.33888 z m 16.5338,8.27399 h -8.3163 v -2.1499 h 2.7579 v -16.76005 h -2.7579 v -2.14989 h 8.3163 v 2.14989 h -2.7579 v 16.76005 h 2.7579 z m 19.7868,-18.57051 h -7.5245 v 18.57051 h -2.8002 V 639.7343 h -7.5245 v -2.48933 h 17.8492 z m 17.8208,-0.0706 q 1.2871,1.41452 1.966,3.4653 0.693,2.05078 0.693,4.65308 0,2.60258 -0.7071,4.66747 -0.6933,2.05078 -1.9519,3.42267 -1.3013,1.42865 -3.0833,2.1499 -1.768,0.72125 -4.045,0.72125 -2.2205,0 -4.0451,-0.73537 -1.8104,-0.73564 -3.0832,-2.13578 -1.2731,-1.40013 -1.9661,-3.43679 -0.6789,-2.03665 -0.6789,-4.65335 0,-2.57406 0.6789,-4.61072 0.6789,-2.05077 1.9802,-3.50766 1.2445,-1.38601 3.0832,-2.12138 1.8528,-0.73537 4.031,-0.73537 2.2628,0 4.0592,0.74949 1.8104,0.73537 3.0691,2.10726 z m -0.2553,8.11838 q 0,-4.10155 -1.8387,-6.32205 -1.8387,-2.23462 -5.021,-2.23462 -3.2106,0 -5.0493,2.23462 -1.8246,2.2205 -1.8246,6.32205 0,4.14419 1.867,6.35057 1.8669,2.19225 5.0069,2.19225 3.14,0 4.9925,-2.19225 1.8672,-2.20638 1.8672,-6.35057 z m 23.4216,10.523 h -3.4653 l -9.9854,-18.83934 v 18.83934 h -2.6164 v -21.05984 h 4.3422 l 9.1082,17.19861 v -17.19861 h 2.6167 z"
       id="path52"
       aria-label="CLASSIFICAITON" /><circle
       style="fill:#d400aa;fill-opacity:1;stroke:none;stroke-width:9.99994;stroke-linecap:round;stroke-linejoin:round;stroke-miterlimit:4;stroke-dasharray:none"
       id="circle52"
       cx="830.20819"
       cy="271.77618"
       r="15.12492" /><circle
       style="fill:#3771c8;fill-opacity:1;stroke:none;stroke-width:9.99994;stroke-linecap:round;stroke-linejoin:round;stroke-miterlimit:4;stroke-dasharray:none"
       id="circle62"
       cx="830.20819"
       cy="423.08377"
       r="15.12492" /><circle
       style="fill:#8d5fd3;fill-opacity:1;stroke:none;stroke-width:9.99994;stroke-linecap:round;stroke-linejoin:round;stroke-miterlimit:4;stroke-dasharray:none"
       id="circle63"
       cx="830.20819"
       cy="593.30322"
       r="15.12492" /><circle
       style="fill:#aad400;fill-opacity:1;stroke:none;stroke-width:9.99994;stroke-linecap:round;stroke-linejoin:round;stroke-miterlimit:4;stroke-dasharray:none"
       id="circle64"
       cx="830.20819"
       cy="729.47858"
       r="15.12492" /><circle
       style="fill:#ff0066;fill-opacity:1;stroke:none;stroke-width:9.99994;stroke-linecap:round;stroke-linejoin:round;stroke-miterlimit:4;stroke-dasharray:none"
       id="circle65"
       cx="830.20819"
       cy="965.26562"
       r="15.12492" /></g></svg>
