<?xml version="1.0" encoding="UTF-8" standalone="no"?>
<!-- Created with Inkscape (http://www.inkscape.org/) -->

<svg
   width="2891.0867mm"
   height="1085mm"
   viewBox="0 0 2891.0867 1085"
   version="1.1"
   id="svg5"
   inkscape:version="1.3 (0e150ed6c4, 2023-07-21)"
   sodipodi:docname="objective.svg"
   xmlns:inkscape="http://www.inkscape.org/namespaces/inkscape"
   xmlns:sodipodi="http://sodipodi.sourceforge.net/DTD/sodipodi-0.dtd"
   xmlns="http://www.w3.org/2000/svg"
   xmlns:svg="http://www.w3.org/2000/svg">
  <sodipodi:namedview
     id="namedview7"
     pagecolor="#ffffff"
     bordercolor="#999999"
     borderopacity="1"
     inkscape:pageshadow="0"
     inkscape:pageopacity="0"
     inkscape:pagecheckerboard="0"
     inkscape:document-units="mm"
     showgrid="false"
     inkscape:zoom="0.1001096"
     inkscape:cx="6063.3543"
     inkscape:cy="1992.8158"
     inkscape:window-width="1920"
     inkscape:window-height="1057"
     inkscape:window-x="1916"
     inkscape:window-y="-8"
     inkscape:window-maximized="1"
     inkscape:current-layer="layer1"
     inkscape:showpageshadow="0"
     inkscape:deskcolor="#d1d1d1" />
  <defs
     id="defs2">
    <inkscape:path-effect
       effect="bspline"
       id="path-effect63909"
       is_visible="true"
       lpeversion="1"
       weight="33.333333"
       steps="2"
       helper_size="0"
       apply_no_weight="true"
       apply_with_weight="true"
       only_selected="false"
       uniform="false" />
    <inkscape:path-effect
       effect="bspline"
       id="path-effect47513"
       is_visible="true"
       lpeversion="1"
       weight="33.333333"
       steps="2"
       helper_size="0"
       apply_no_weight="true"
       apply_with_weight="true"
       only_selected="false"
       uniform="false" />
    <inkscape:path-effect
       effect="bspline"
       id="path-effect47507"
       is_visible="true"
       lpeversion="1"
       weight="33.333333"
       steps="2"
       helper_size="0"
       apply_no_weight="true"
       apply_with_weight="true"
       only_selected="false"
       uniform="false" />
    <inkscape:path-effect
       effect="bspline"
       id="path-effect47501"
       is_visible="true"
       lpeversion="1"
       weight="33.333333"
       steps="2"
       helper_size="0"
       apply_no_weight="true"
       apply_with_weight="true"
       only_selected="false"
       uniform="false" />
    <inkscape:path-effect
       effect="bspline"
       id="path-effect47495"
       is_visible="true"
       lpeversion="1"
       weight="33.333333"
       steps="2"
       helper_size="0"
       apply_no_weight="true"
       apply_with_weight="true"
       only_selected="false"
       uniform="false" />
    <marker
       style="overflow:visible"
       id="TriangleOutM"
       refX="0"
       refY="0"
       orient="auto"
       inkscape:stockid="TriangleOutM"
       inkscape:isstock="true">
      <path
         transform="scale(0.4)"
         style="fill:context-stroke;fill-rule:evenodd;stroke:context-stroke;stroke-width:1pt"
         d="M 5.77,0 -2.88,5 V -5 Z"
         id="path42156" />
    </marker>
    <marker
       style="overflow:visible"
       id="Arrow2Send"
       refX="0"
       refY="0"
       orient="auto"
       inkscape:stockid="Arrow2Send"
       inkscape:isstock="true">
      <path
         transform="matrix(-0.3,0,0,-0.3,0.69,0)"
         d="M 8.7185878,4.0337352 -2.2072895,0.01601326 8.7185884,-4.0017078 c -1.7454984,2.3720609 -1.7354408,5.6174519 -6e-7,8.035443 z"
         style="fill:context-stroke;fill-rule:evenodd;stroke:context-stroke;stroke-width:0.625;stroke-linejoin:round"
         id="path42044" />
    </marker>
    <marker
       style="overflow:visible"
       id="Arrow1Send"
       refX="0"
       refY="0"
       orient="auto"
       inkscape:stockid="Arrow1Send"
       inkscape:isstock="true">
      <path
         transform="matrix(-0.2,0,0,-0.2,-1.2,0)"
         style="fill:context-stroke;fill-rule:evenodd;stroke:context-stroke;stroke-width:1pt"
         d="M 0,0 5,-5 -12.5,0 5,5 Z"
         id="path42026" />
    </marker>
    <marker
       style="overflow:visible"
       id="Arrow1Lend"
       refX="0"
       refY="0"
       orient="auto"
       inkscape:stockid="Arrow1Lend"
       inkscape:isstock="true">
      <path
         transform="matrix(-0.8,0,0,-0.8,-10,0)"
         style="fill:context-stroke;fill-rule:evenodd;stroke:context-stroke;stroke-width:1pt"
         d="M 0,0 5,-5 -12.5,0 5,5 Z"
         id="path42014" />
    </marker>
    <inkscape:path-effect
       effect="bspline"
       id="path-effect41929"
       is_visible="true"
       lpeversion="1"
       weight="33.333333"
       steps="2"
       helper_size="0"
       apply_no_weight="true"
       apply_with_weight="true"
       only_selected="false"
       uniform="false" />
    <rect
       x="2981.7319"
       y="209.7701"
       width="644.29382"
       height="174.8084"
       id="rect2250" />
    <rect
       x="2981.7319"
       y="209.7701"
       width="644.29382"
       height="174.8084"
       id="rect10326" />
    <rect
       x="2981.7319"
       y="209.7701"
       width="644.29382"
       height="174.8084"
       id="rect13383" />
    <rect
       x="2981.7319"
       y="209.7701"
       width="644.29382"
       height="174.8084"
       id="rect15240" />
    <rect
       x="2981.7319"
       y="209.7701"
       width="644.29382"
       height="174.8084"
       id="rect17597" />
    <rect
       x="2981.7319"
       y="209.7701"
       width="644.29382"
       height="174.8084"
       id="rect20526" />
    <rect
       x="2981.7319"
       y="209.7701"
       width="644.29382"
       height="174.8084"
       id="rect23431" />
  </defs>
  <g
     inkscape:label="Layer 1"
     inkscape:groupmode="layer"
     id="layer1"
     transform="translate(458.05276,-60.967729)">
    <g
       id="g1"
       transform="matrix(0.95415837,0,0,0.95415837,45.268178,16.684993)"
       style="stroke-width:1.04804">
      <path
         style="fill:#2c89a0;stroke-width:1.04804"
         d="m 1566.8807,757.32111 c -3.334,-3.33401 -3.6434,-4.34954 -3.6434,-11.96065 -10e-5,-8.09604 -0.1173,-8.41085 -4.4055,-11.83244 -7.0646,-5.63683 -9.5844,-12.65402 -9.4561,-26.33345 0.1117,-11.91897 2.7646,-28.71733 5.9986,-37.98296 2.5333,-7.25783 9.4387,-17.02541 13.8997,-19.66059 4.516,-2.66761 4.7696,-4.49027 0.6249,-4.49027 -4.533,0 -11.1452,-3.08703 -12.6551,-5.9083 -1.8992,-3.54872 -1.6178,-10.59947 0.4929,-12.35123 0.9965,-0.82699 5.6088,-1.57817 10.2667,-1.67207 7.8005,-0.15705 8.7473,0.10654 12.1886,3.39559 2.0522,1.96134 3.9364,3.33197 4.1872,3.04578 0.251,-0.28609 1.9777,-5.18036 3.8375,-10.87597 4.5768,-14.01722 8.1498,-20.81357 13.3356,-25.36681 9.6995,-8.51626 6.3306,-8.09992 68.6857,-8.4876 l 56.4408,-0.35064 6.3096,2.88866 c 11.4513,5.24258 15.6176,10.92525 22.7364,31.01206 2.1966,6.19814 4.436,11.26933 4.9764,11.26933 0.5404,0 1.7324,-1.07071 2.649,-2.3793 2.5625,-3.65841 8.0432,-5.2165 15.2242,-4.3281 8.1112,1.00349 10.5318,3.26831 9.6039,8.986 -0.9964,6.13993 -5.3992,10.03879 -12.2025,10.80558 -3.0942,0.34884 -5.6189,0.97402 -5.6107,1.38941 0.01,0.4156 1.9275,1.99414 4.265,3.50828 9.1934,5.95523 14.65,17.63123 18.3565,39.27873 2.822,16.4814 1.9976,30.75329 -2.1891,37.8973 -1.7541,2.99311 -4.6053,6.19986 -6.336,7.12613 -2.8166,1.50742 -3.1467,2.41023 -3.1467,8.60625 0,16.4453 -2.7565,18.25059 -27.8671,18.25059 -17.7722,0 -18.3367,-0.0799 -21.9311,-3.1044 -3.1941,-2.68766 -3.7381,-4.03685 -4.0529,-10.05106 l -0.3637,-6.94663 -55.1285,-0.3168 -55.1285,-0.31723 v 6.64523 c 0,5.26551 -0.6099,7.35488 -2.9375,10.06342 l -2.9375,3.4183 -20.222,0.38674 -20.222,0.38674 z m 50.9095,-54.4597 c 3.9293,-2.75219 3.3348,-6.36159 -1.8536,-11.25491 -5.7797,-5.45108 -15.4673,-9.75013 -26.9001,-11.9376 -11.2666,-2.15565 -17.997,-1.17523 -22.4411,3.26894 -3.6659,3.66581 -4.0639,6.03045 -2.0077,11.92883 2.5153,7.21517 10.8503,9.48004 35.8416,9.73928 11.475,0.11913 15.2405,-0.25947 17.3609,-1.74454 z m 152.809,-0.50616 c 5.9385,-1.75817 9.4974,-6.39756 9.4974,-12.38135 0,-5.74436 -2.8634,-8.94701 -9.6274,-10.76836 -7.8763,-2.12091 -23.0965,0.94688 -34.9595,7.04644 -10.5908,5.44545 -15.1619,14.53974 -8.7142,17.33717 3.5038,1.52028 37.7604,0.55529 43.8037,-1.2339 z m -23.3971,-60.83153 c 0,-1.60218 -8.4124,-25.61257 -10.6204,-30.3126 -1.0671,-2.27145 -4.0958,-5.29977 -7.0061,-7.00529 l -5.1263,-3.00426 -52.8894,0.005 c -65.7915,0.005 -60.1177,-2.09302 -70.122,25.93756 -2.9184,8.17655 -5.3062,15.00471 -5.3062,15.1734 0,0.16877 33.9908,0.30687 75.5352,0.30687 44.1489,0 75.5352,-0.45728 75.5352,-1.10043 z m -157.4715,-51.39128 c -13.081,-3.083 -25.4832,-13.94591 -30.2008,-26.45281 -3.6902,-9.78287 -2.981,-23.9227 1.6776,-33.44429 3.0326,-6.19852 9.6092,-13.44477 16.3095,-17.97036 2.0701,-1.39815 3.0128,-3.80368 4.013,-10.2396 4.9145,-31.622 36.0719,-50.60309 66.0816,-40.2568 l 5.7931,1.99727 6.7498,-6.16897 c 3.7124,-3.3929 10.8368,-8.18882 15.8321,-10.65762 8.1519,-4.0289 10.3175,-4.54823 21.1395,-5.06934 14.7814,-0.71174 25.2125,2.01888 36.4962,9.55387 13.279,8.86739 21.9442,22.07525 24.872,37.91061 1.3893,7.51517 1.9106,8.42808 7.0554,12.35564 6.337,4.83786 13.5177,14.7169 16.5419,22.75802 3.0418,8.08775 2.8555,25.5635 -0.3588,33.61812 -3.8005,9.52495 -9.6836,17.20185 -17.7106,23.11097 -9.7242,7.15854 -15.8676,9.03124 -20.2691,6.17865 -1.7885,-1.15908 -5.7188,-3.31487 -8.7342,-4.79065 -5.3647,-2.6256 -6.6546,-2.69099 -60.0976,-3.04677 -60.8861,-0.40524 -62.0998,-0.27933 -73.9124,7.66991 -3.4872,2.34676 -6.4224,4.21177 -6.5226,4.14443 -0.1002,-0.0672 -2.2403,-0.60744 -4.7558,-1.20028 z m 158.6899,-24.26185 v -4.87319 h -7.9191 c -10.3287,0 -10.3314,-1.89091 -0.01,-7.37314 l 7.9087,-4.20084 0.01,-10.66022 c 0.012,-12.15687 -1.4564,-14.78395 -9.0591,-16.21022 -10.7362,-2.01416 -16.9318,2.1223 -17.0507,11.38351 l -0.073,5.74048 h 4.8613 c 4.4485,0 4.915,-0.31047 5.4943,-3.65496 0.4547,-2.62464 1.3166,-3.65493 3.0578,-3.65493 2.0126,0 2.4808,0.93185 2.7549,5.48239 l 0.3303,5.4824 -8.2493,4.32905 -8.2493,4.32904 -0.3673,7.72574 c -0.202,4.24913 -0.082,8.46878 0.2664,9.37692 0.4776,1.24478 3.7918,1.65123 13.4641,1.65123 h 12.8304 z m -96.3639,-2.75916 c 5.9251,-3.04505 7.911,-7.44088 7.9762,-17.65622 l 0.06,-9.4332 h -6.7008 -6.7007 l -0.6091,6.70069 -0.6091,6.70072 -5.9737,0.37908 c -3.9541,0.2509 -6.3162,-0.16111 -6.9867,-1.21829 -0.5571,-0.87853 -1.0129,-10.36913 -1.0129,-21.09023 0,-10.72111 0.4558,-20.21175 1.0129,-21.09023 0.6705,-1.05727 3.0326,-1.46914 6.9867,-1.21829 l 5.9737,0.37906 0.6091,6.70073 0.6091,6.70068 h 6.7007 6.7008 l 0.3967,-4.87322 c 0.683,-8.3895 -0.9389,-15.11547 -4.6461,-19.26567 l -3.4676,-3.88221 h -13.4015 c -12.5297,0 -13.6076,0.1936 -16.5687,2.97281 -5.0586,4.74809 -5.7701,9.57119 -5.3454,36.23222 0.362,22.71719 0.5858,24.84644 2.9458,28.02115 3.8913,5.23476 7.4168,6.44563 18.7663,6.44563 5.826,0 11.6366,-0.65825 13.284,-1.50493 z m 54.2763,-0.34161 c 6.9361,-3.29135 7.3657,-5.34927 7.3657,-35.27584 0,-29.92659 -0.4296,-31.98449 -7.3657,-35.27586 -5.0513,-2.39699 -21.0654,-2.50751 -26.6269,-0.18365 -7.8141,3.26491 -8.0391,4.26054 -8.0391,35.56646 0,26.95724 0.1144,28.34029 2.6049,31.50647 1.4327,1.8214 3.7627,3.7794 5.1779,4.35115 4.5368,1.8331 22.5409,1.37195 26.8832,-0.68854 z m -20.6997,-14.24057 c -0.3444,-0.89749 -0.4753,-10.93173 -0.291,-22.29833 l 0.3353,-20.66652 h 6.7007 6.7006 v 21.92958 21.92959 l -6.4097,0.36868 c -4.5047,0.25903 -6.5958,-0.11597 -7.0359,-1.26305 z"
         id="path946" />
      <path
         style="fill:#d400aa;stroke-width:1.04804"
         d="m 688.99763,357.30429 c -0.88203,-0.75146 -2.88194,-1.97026 -4.44425,-2.70834 -2.54007,-1.20007 -3.08826,-1.2797 -5.18131,-0.75265 -1.28737,0.32418 -2.8468,0.58937 -3.46533,0.58937 -0.61852,0 -6.3453,-2.89518 -12.72614,-6.43374 -10.24488,-5.68145 -11.8651,-6.41908 -13.85546,-6.30815 -1.8782,0.10465 -2.74708,-0.22631 -5.21226,-1.98541 -2.5604,-1.82709 -2.94031,-2.32393 -2.8243,-3.69366 0.12498,-1.47582 -0.24282,-1.81363 -5.44972,-5.00567 l -5.58373,-3.42301 -3.6066,0.59562 c -5.15247,0.8509 -7.95906,0.73956 -10.09089,-0.40032 -2.53535,-1.35565 -3.80836,-3.74823 -4.13066,-7.76346 l -0.2701,-3.36489 -2.7958,-1.67224 c -2.79354,-1.67089 -2.79607,-1.6749 -3.14095,-4.97455 -0.18985,-1.81633 -0.34517,-5.1661 -0.34517,-7.44404 0,-4.66918 -1.45033,-10.18481 -3.29461,-12.52941 -0.63745,-0.81041 -2.42306,-2.28206 -3.96802,-3.27035 -3.67407,-2.3503 -5.04461,-5.65818 -5.43442,-13.11633 l -0.26921,-5.15069 -2.20332,-0.29546 c -2.95299,-0.396 -5.14807,-2.78364 -5.13161,-5.58178 0.0164,-2.78122 1.63573,-6.06098 4.50957,-9.13335 l 2.44404,-2.61287 -2.22756,-4.70942 -2.22756,-4.70942 0.65785,-5.91751 c 0.92979,-8.36352 0.83599,-8.1275 3.49625,-8.79736 3.32331,-0.83681 5.44116,-3.43822 5.92014,-7.27179 l 0.37407,-2.99398 10.40586,-5.03599 c 5.72322,-2.76979 11.1982,-5.32251 12.16664,-5.67269 1.66458,-0.60192 2.74977,-0.23875 19.86524,6.64826 53.09904,21.36624 56.30053,22.7005 55.17526,22.99476 -0.62641,0.1638 -4.29236,0.5886 -8.14657,0.944 l -7.00762,0.64616 -9.55878,-2.8143 c -13.41545,-3.94979 -13.21218,-3.93841 -16.00584,-0.89555 -1.25143,1.36307 -2.50613,2.47982 -2.78823,2.48168 -0.2821,0.002 -6.11649,-2.08008 -12.9653,-4.62652 -7.3462,-2.73137 -12.64339,-4.43152 -12.91819,-4.14614 -0.25618,0.26606 -0.54603,0.95821 -0.6441,1.53812 -0.15403,0.91076 1.02307,1.50963 8.64178,4.39661 4.85105,1.83824 11.01723,4.12179 13.70262,5.07458 l 4.88253,1.73232 2.40797,-1.97314 c 1.33521,-1.09411 3.0894,-2.0219 3.93756,-2.08257 0.92767,-0.0664 5.73967,1.69702 12.22827,4.48115 l 10.69865,4.59058 9.56101,-1.00961 9.561,-1.00962 6.01481,2.12822 c 3.30812,1.17051 6.53645,2.12821 7.17405,2.12821 0.90659,0 10.87125,-2.65573 17.25342,-4.59827 0.92584,-0.2818 1.30811,-2.07869 0.53457,-2.51279 -0.22053,-0.12375 -4.00914,0.81776 -8.4192,2.09223 -4.41005,1.27448 -8.61961,2.30807 -9.35463,2.29689 -0.73502,-0.0112 -3.50132,-0.78648 -6.14732,-1.72288 l -4.81096,-1.70252 -0.53455,-3.11027 -0.53456,-3.11028 -19.51115,-7.86836 c -10.73108,-4.3276 -26.93947,-10.85554 -36.01864,-14.50653 -9.07916,-3.65099 -16.22081,-6.73375 -15.87033,-6.85058 0.35049,-0.11683 8.38027,-1.58507 17.84394,-3.26276 l 17.20671,-3.05036 11.22558,3.86629 c 6.17405,2.12646 18.56226,6.42296 27.52939,9.54778 8.96708,3.12482 18.70927,6.51726 21.64928,7.53877 2.94005,1.0215 7.49687,2.63286 10.12628,3.5808 l 4.78081,1.72352 1.07808,3.37068 c 1.01235,3.16525 1.16072,3.34993 2.43455,3.03022 0.74605,-0.18725 1.43611,-0.4201 1.53345,-0.51745 0.0974,-0.0973 -0.38325,-2.02927 -1.06799,-4.29318 -1.14326,-3.77979 -1.39789,-4.17413 -3.11592,-4.82526 -1.02899,-0.39 -7.40353,-2.62582 -14.16558,-4.9685 -6.7621,-2.34267 -20.23278,-7.0291 -29.93489,-10.41427 -9.70207,-3.38518 -20.2341,-7.0477 -23.4045,-8.13894 -3.17041,-1.09125 -5.67184,-2.07662 -5.55875,-2.1897 0.11308,-0.11309 4.13217,-0.64992 8.93127,-1.19294 l 8.72565,-0.98732 10.46413,3.3582 c 5.75528,1.84702 15.87648,5.07732 22.49152,7.17844 27.84884,8.84553 27.4075,8.6778 28.59848,10.8691 0.58801,1.08189 1.36135,1.9677 1.71848,1.96849 0.83802,0.002 1.90953,1.9935 1.46207,2.71751 -0.18894,0.30568 -0.0552,1.25172 0.29711,2.10233 0.48519,1.17131 1.28499,1.76058 3.29656,2.42871 1.71754,0.57048 2.8111,1.2875 3.09508,2.0294 0.37483,0.97915 0.13432,1.29974 -1.64141,2.18802 -1.98595,0.99346 -2.71313,1.89925 -1.52471,1.89925 0.30574,0 1.53709,-0.50058 2.73637,-1.1124 3.56304,-1.81775 3.6792,-0.97713 0.99741,7.21933 l -2.34563,7.16917 -5.24842,2.24104 c -2.88659,1.23258 -5.24837,2.44085 -5.24837,2.68505 0,1.15227 1.39814,0.94518 5.43782,-0.80544 5.18182,-2.24557 5.1826,-2.24519 5.5079,2.64891 0.0781,1.17601 0.44663,3.24778 0.81879,4.60392 0.8727,3.17997 0.36964,5.73668 -1.62172,8.24249 -0.87447,1.10041 -1.58997,2.30056 -1.58997,2.66699 0,0.36643 -1.29443,1.1916 -2.87648,1.83371 -2.74677,1.11484 -2.95207,1.33864 -4.55331,4.96387 l -1.67683,3.79641 -1.34685,-1.82813 c -1.26319,-1.7146 -5.97923,-5.79888 -6.62575,-5.73821 -1.79629,0.16858 -2.0553,-0.15572 -1.77764,-2.22596 0.65118,-4.8548 -4.14288,-7.59214 -7.32138,-4.18043 -1.33703,1.43518 -1.44156,4.72997 -0.20962,6.61012 0.4808,0.73383 0.7815,1.40567 0.66818,1.49295 -0.11332,0.0873 -2.49128,1.56743 -5.28428,3.28913 -6.07257,3.7434 -6.81251,4.35301 -6.12186,5.04369 0.32931,0.32927 2.20689,-0.0545 5.2205,-1.06725 3.65222,-1.22728 4.94302,-1.45474 5.76349,-1.01563 0.86779,0.46442 1.44664,0.25744 3.22994,-1.15493 l 2.17262,-1.7208 3.55412,1.16316 c 2.62842,0.86019 4.35763,1.89244 6.63937,3.96327 l 3.08528,2.80014 -0.94709,3.28075 c -0.89057,3.085 -1.19878,3.47966 -5.16605,6.61526 l -4.21901,3.3345 0.31972,4.87758 0.31974,4.87762 -4.38629,0.0244 c -3.55503,0.0198 -7.1214,0.69944 -18.81912,3.58636 -13.38445,3.30321 -19.89254,4.66072 -22.39212,4.67071 -0.71095,0.004 -0.39436,-0.40378 1.06913,-1.3732 7.04178,-4.66448 10.19901,-14.01986 7.38256,-21.87571 -0.73032,-2.03706 -3.04949,-4.66333 -5.47815,-6.20355 -2.00143,-1.2693 -3.02179,-1.54692 -5.67634,-1.54444 -1.77996,0 -4.12192,0.24893 -5.20433,0.54954 -3.00935,0.83583 -6.92035,3.77197 -8.92417,6.69964 l -1.80481,2.637 0.26805,-6.36673 c 0.29628,-7.0375 -0.11039,-9.32731 -2.13205,-12.00515 -2.81154,-3.7241 -7.70148,-4.61768 -11.72791,-2.14315 -3.3357,2.05002 -5.40025,8.58552 -3.93205,12.44719 0.60507,1.59146 2.35843,9.36772 5.35791,23.76255 3.783,18.15502 8.09425,37.16066 8.80664,38.82295 0.84944,1.98211 3.25786,4.29184 5.2666,5.05075 3.35481,1.26757 7.7239,0.0607 10.71279,-2.95904 1.57375,-1.58997 4.08617,-6.06579 4.08612,-7.27927 -4e-5,-0.80929 6.02399,-13.72775 6.41468,-13.75623 0.147,-0.0108 0.67825,0.70282 1.18061,1.58564 1.84906,3.24937 6.66356,3.23365 9.07619,-0.0298 1.44565,-1.95536 1.78681,-1.97076 2.48741,-0.11225 2.50951,6.65737 5.62642,13.37615 6.74875,14.54761 0.74497,0.77758 1.3545,1.67522 1.3545,1.9947 0,1.36077 -4.54414,2.43976 -11.22557,2.66545 -9.25503,0.31258 -8.74367,0.1039 -9.88317,4.03328 -0.53476,1.8441 -1.30165,3.89412 -1.70419,4.55562 -1.0167,1.67068 -3.69746,1.57705 -5.78554,-0.20204 z M 625.56094,325.6354 c 0.49826,-0.3159 -0.8488,-1.38741 -4.52581,-3.60008 -6.51639,-3.9212 -6.0728,-3.76718 -6.0728,-2.10855 0,1.94929 1.31212,4.88521 2.48903,5.56934 1.17056,0.6804 7.09549,0.78216 8.10958,0.13929 z m 12.76246,-6.21066 c 3.70951,-1.60755 4.52994,-1.78754 5.9272,-1.30046 1.44657,0.50426 2.04536,0.32621 5.5442,-1.64868 2.15736,-1.21772 4.11878,-2.40442 4.35872,-2.63708 0.23992,-0.23271 -0.42445,-3.64255 -1.47641,-7.57746 -1.65515,-6.19124 -2.14835,-7.37029 -3.66356,-8.75802 -0.963,-0.88203 -2.51699,-3.18312 -3.4533,-5.11359 -1.72194,-3.55028 -3.40097,-5.04465 -5.27013,-4.69057 -0.74523,0.14118 -1.12301,0.88174 -1.45855,2.85915 -0.72819,4.29137 -1.91791,6.6777 -3.3292,6.6777 -1.71171,0 -4.31921,-2.36553 -5.05072,-4.58204 -0.34022,-1.03084 -0.63724,-4.8116 -0.66006,-8.40168 -0.0367,-5.78066 0.12111,-6.97977 1.3798,-10.48205 0.78172,-2.1751 2.17406,-5.12778 3.09412,-6.56156 3.72097,-5.79863 11.37437,-10.95161 20.54262,-13.83122 l 3.76361,-1.18208 7.37998,2.87558 7.37994,2.87556 4.89174,5.79488 c 4.79533,5.68075 4.92854,5.78879 6.76386,5.48504 1.02969,-0.17043 3.31543,-0.3233 5.07949,-0.33972 l 3.20727,-0.0299 3.67268,-4.44935 3.67264,-4.44934 5.19458,-1.39295 c 4.39644,-1.17892 5.45016,-1.29647 6.85795,-0.76509 1.42588,0.53822 1.81984,0.48627 2.75924,-0.36391 1.20593,-1.09135 1.39141,-2.48233 0.54253,-4.0685 -0.71479,-1.3356 -3.41191,-1.37941 -4.36093,-0.0708 -0.43218,0.59593 -2.92759,1.564 -6.54516,2.53911 l -5.84667,1.57598 -3.74142,4.41005 -3.74137,4.41004 h -3.84901 -3.849 l -4.38878,-5.21187 -4.38875,-5.21187 -8.14815,-3.24894 -8.14813,-3.24894 -3.6936,0.99125 c -2.03148,0.54518 -6.3775,2.31566 -9.65783,3.93441 -6.91811,3.41386 -11.65363,7.61512 -14.47684,12.84353 -0.93893,1.73886 -2.52647,3.94719 -3.52786,4.90742 -2.03646,1.95271 -3.25208,5.57334 -3.81099,11.35065 -0.18738,1.93687 -0.68619,3.8277 -1.12709,4.27251 -0.70108,0.70725 -1.01545,0.6769 -2.76674,-0.26726 -4.74023,-2.55564 -5.63483,-8.55765 -2.27115,-15.23759 0.96042,-1.9073 2.32845,-4.16292 3.04007,-5.01248 1.75211,-2.09174 1.46434,-3.96881 -0.84636,-5.52087 -2.32409,-1.56105 -4.05351,-1.54609 -5.64846,0.0488 -2.9262,2.9262 -6.05701,11.31335 -6.5345,17.50537 -0.17862,2.31629 -0.41711,4.21146 -0.52998,4.21146 -1.153,0 -4.00482,-1.83523 -4.98002,-3.20475 -0.99273,-1.39417 -1.22081,-2.39811 -1.1978,-5.27236 0.0234,-2.91669 0.42651,-4.50429 2.25897,-8.8958 3.0402,-7.28586 3.05377,-7.37849 1.28504,-8.76978 -2.41101,-1.89651 -4.41409,-1.36001 -6.48352,1.73651 -2.4603,3.68136 -2.98882,6.15153 -2.64862,12.37878 0.40485,7.41044 1.39707,10.37307 3.96719,11.84539 3.49076,1.99969 6.27414,4.7759 7.78796,7.76792 1.18981,2.35162 1.56696,4.08543 2.01854,9.2795 0.73329,8.43422 0.78999,8.64216 2.61354,9.58513 0.86315,0.44637 1.64145,0.81155 1.72955,0.81155 0.0881,0 0.16018,-2.62837 0.16018,-5.84085 0,-5.09847 0.14271,-6.03268 1.12273,-7.35007 1.28133,-1.7224 3.42096,-2.34477 3.42096,-0.99506 0,0.47066 -0.34919,0.98978 -0.77597,1.15354 -1.38202,0.53031 -2.05147,3.85189 -1.75481,8.70684 0.15436,2.52609 0.43113,4.95371 0.61505,5.39472 0.2629,0.63037 6.72472,4.45076 8.86308,5.24011 0.24121,0.089 0.30765,-2.2139 0.14765,-5.11767 -0.18526,-3.36187 -0.0648,-5.96482 0.33169,-7.16608 0.70164,-2.12605 2.4783,-4.00037 4.04678,-4.26924 1.46445,-0.25108 1.74318,1.49593 0.31118,1.95044 -2.68059,0.85078 -3.76265,7.38417 -2.23231,13.47865 0.59677,2.37664 1.02072,2.97449 2.92291,4.12192 1.22369,0.73812 2.48323,1.35144 2.79896,1.36292 0.31574,0.0115 2.51154,-0.81875 4.87955,-1.84493 z m 74.6777,-63.55773 c -0.48622,-1.26698 0.62182,-2.37502 1.49841,-1.49844 0.504,0.50401 0.4498,0.84077 -0.24761,1.5382 -0.83418,0.83418 -0.91646,0.83156 -1.2508,-0.0397 z m -76.93374,38.36209 c 1.06203,-1.06206 0.87126,-2.82654 -0.39118,-3.61791 -2.0941,-1.31272 -4.22488,2.32252 -2.22044,3.78819 1.23282,0.90148 1.56125,0.88005 2.61162,-0.17028 z m -1.8612,-1.80431 c 0,-0.58802 0.24055,-1.06912 0.53456,-1.06912 0.294,0 0.53455,0.4811 0.53455,1.06912 0,0.58802 -0.24055,1.06912 -0.53455,1.06912 -0.29401,0 -0.53456,-0.4811 -0.53456,-1.06912 z m 103.79441,-9.97205 c 0.53766,-0.48655 0.97756,-1.43158 0.97756,-2.10001 0,-2.96577 -3.82873,-3.84739 -5.29684,-1.21967 -0.70476,1.26145 -0.6913,1.55426 0.12909,2.80638 1.04967,1.60198 2.75622,1.81104 4.19019,0.5133 z m -2.61562,-1.31867 c -0.73473,-0.73473 -0.29652,-2.07305 0.6788,-2.07305 0.95944,0 1.38571,0.78634 0.988,1.82268 -0.38483,1.00286 -0.84516,1.072 -1.6668,0.25037 z m -94.24843,-9.52162 c 1.07644,-2.01136 0.26733,-3.8921 -1.95842,-4.5522 -1.39138,-0.41266 -3.36829,1.27487 -3.36829,2.87521 0,2.4869 4.18767,3.80527 5.32671,1.67699 z m -3.45577,-1.10426 c -0.44745,-0.72397 0.15631,-1.60365 1.10064,-1.60365 0.42366,0 0.77028,0.4811 0.77028,1.0691 0,1.10669 -1.2896,1.47515 -1.87092,0.53455 z m -44.42362,-4.94459 c 0.0978,-0.36751 0.70202,-2.40137 1.3427,-4.5197 l 1.16487,-3.85151 -1.13377,-2.22237 -1.13378,-2.22237 -1.56595,1.50027 c -1.95645,1.8744 -4.23097,6.36163 -4.23097,8.34696 0,0.82429 0.48109,1.97979 1.0691,2.5678 1.18509,1.18509 4.20725,1.45507 4.4878,0.40092 z m 163.60018,-7.64669 c -0.0408,-4.19189 -0.88769,-4.6484 -2.30349,-1.24159 l -1.15887,2.78856 1.17695,1.25283 c 1.60954,1.71328 2.32078,0.84196 2.28541,-2.7998 z m -81.62308,89.82303 c -1.27574,-1.27574 -2.52848,-4.19143 -2.5374,-5.90579 -0.0108,-2.07119 1.82949,-6.1614 3.54327,-7.87518 4.74849,-4.74844 10.50477,-2.19809 10.50477,4.6542 0,5.09043 -3.5689,9.85333 -7.73509,10.32291 -1.99829,0.22523 -2.51919,0.0602 -3.77555,-1.19614 z m 6.28841,-1.40487 c 2.55249,-2.24111 3.46626,-4.15213 3.46383,-7.24418 -0.004,-3.34664 -1.56883,-6.04025 -3.51222,-6.04025 h -1.39176 l 1.38392,1.64468 c 1.6121,1.91589 1.88088,5.4656 0.60127,7.94011 -1.02035,1.97315 -3.82545,4.31355 -5.17,4.31355 -0.58278,0 -0.91097,0.24055 -0.72925,0.53455 0.69292,1.12117 3.44044,0.53188 5.35421,-1.14846 z m 42.55294,-3.21825 c -2.52014,-1.24741 -5.02198,-4.57399 -5.94863,-7.90952 -1.2821,-4.61499 -0.2458,-11.84006 2.32817,-16.23224 5.78016,-9.86307 16.21226,-11.20721 21.04748,-2.71193 4.85809,8.53548 0.73935,22.28639 -7.97619,26.62953 -3.40927,1.69891 -6.33141,1.76822 -9.45083,0.22416 z m 7.41885,-2.49714 c 2.79041,-1.28993 6.31814,-5.09542 7.91023,-8.53308 1.84512,-3.984 2.24255,-9.78633 0.90944,-13.27708 -1.21336,-3.1771 -4.10991,-6.07178 -6.07562,-6.07178 -2.24793,0 -2.35022,0.50041 -0.5268,2.57714 0.91208,1.03882 1.98908,2.68031 2.39331,3.64775 0.89611,2.14467 0.9603,7.92179 0.1156,10.40006 -1.52174,4.4646 -6.01151,8.90091 -10.07344,9.95347 -2.41235,0.62509 -2.60278,1.59117 -0.43544,2.20887 1.94622,0.5547 2.97159,0.39416 5.78272,-0.90535 z m -61.65437,-6.37338 c -0.17149,-0.80459 -1.04929,-4.8306 -1.95065,-8.94661 -0.90136,-4.11605 -2.84325,-13.25689 -4.3153,-20.31296 -1.47203,-7.05605 -2.78709,-13.14563 -2.92233,-13.53235 -0.18255,-0.52202 0.0631,-0.59087 0.95348,-0.26731 2.34619,0.85264 6.11208,0.49204 7.786,-0.74555 l 1.59004,-1.17554 0.24029,8.66218 c 0.28025,10.10295 0.96813,12.6777 4.15667,15.55835 2.71832,2.45582 5.53527,3.19662 12.01573,3.15992 6.28633,-0.0355 12.32422,-1.01925 24.09537,-3.92532 4.72636,-1.16688 8.77599,-2.12161 8.99915,-2.12161 0.22317,0 -0.52501,1.05744 -1.66262,2.34981 -2.86958,3.26003 -4.8278,7.05775 -6.00721,11.65041 -0.91044,3.54499 -1.05323,3.78335 -1.54035,2.57086 -2.90501,-7.23064 -4.77553,-9.62384 -7.519,-9.61991 -3.43444,0.005 -6.64176,3.71912 -10.99324,12.73071 -2.01472,4.17236 -2.96664,5.31871 -2.96664,3.57265 0,-1.33269 -3.68747,-4.97892 -5.71036,-5.64653 -4.1257,-1.3616 -9.54836,0.87579 -12.34102,5.09191 l -1.59619,2.40983 z m 30.6504,-5.47204 c -2.16544,-2.16548 -0.5552,-7.59021 2.4791,-8.35177 4.04723,-1.01583 4.62002,6.60649 0.65069,8.65911 -1.86804,0.96604 -1.85513,0.96728 -3.12979,-0.30734 z m 4.23763,-1.4085 c 1.22087,-1.55207 1.46811,-4.4321 0.46644,-5.43376 -0.99601,-0.99597 -1.59571,-0.75604 -0.98102,0.3925 0.93462,1.74635 0.62311,3.25491 -1.00918,4.8872 -1.31388,1.31392 -1.40511,1.56256 -0.57332,1.56256 0.54405,0 1.48772,-0.6338 2.09708,-1.4085 z M 681.51392,310.1395 c -3.4665,-2.14125 -5.17169,-5.55555 -5.14895,-10.30974 0.0252,-5.27792 2.86199,-10.07376 7.20112,-12.17431 2.89567,-1.40172 5.68525,-1.41208 8.39228,-0.0309 6.15252,3.13883 7.16022,12.75581 2.02483,19.32486 -2.97415,3.80446 -8.98521,5.34238 -12.46928,3.19027 z m 7.24386,-1.75782 c 6.78134,-3.81135 8.58189,-14.77243 3.08797,-18.79849 -0.82027,-0.60115 -1.80719,-0.90127 -2.31844,-0.70509 -0.78163,0.29995 -0.72329,0.53988 0.47875,1.96844 3.45377,4.10458 2.93977,9.76106 -1.27264,14.00417 -1.50171,1.5127 -3.19749,2.67255 -4.20072,2.87322 -1.7383,0.34763 -2.181,0.98165 -1.01422,1.45246 1.44359,0.58249 3.28612,0.30302 5.2393,-0.79471 z m -26.56634,-20.48209 c -2.77074,-1.9407 -3.60583,-6.87995 -1.82598,-10.80004 1.63449,-3.59989 4.58692,-4.43148 7.3823,-2.07933 3.23316,2.72052 3.50568,8.48004 0.56,11.83503 -1.78711,2.0354 -4.13021,2.43546 -6.11632,1.04434 z m 4.11739,-1.37072 c 2.58283,-1.38228 3.57059,-7.07497 1.57405,-9.07153 -0.58801,-0.58797 -1.46721,-1.06907 -1.95378,-1.06907 -0.80904,0 -0.81222,0.08 -0.0372,0.93644 2.44258,2.699 2.04959,6.23125 -0.95636,8.59571 -1.10561,0.86968 -1.24639,1.15886 -0.56418,1.15886 0.49997,0 1.37184,-0.24769 1.93748,-0.55041 z m 63.88741,-17.39524 c -1.355,-1.35497 -1.07989,-4.32369 0.49637,-5.35649 1.23796,-0.81112 1.43479,-0.81112 2.67276,0 0.98155,0.64315 1.33637,1.34713 1.33637,2.6514 0,2.93732 -2.67015,4.54046 -4.5055,2.70509 z"
         id="path1654" />
      <text
         xml:space="preserve"
         transform="matrix(1.2376963,0,0,1.2376963,-3113.7199,-146.71866)"
         id="text2248"
         style="font-style:normal;font-weight:normal;font-size:40px;line-height:1.25;font-family:sans-serif;letter-spacing:0px;word-spacing:0px;white-space:pre;shape-inside:url(#rect2250);display:inline;fill:#d400aa;fill-opacity:1;stroke:none;stroke-width:0.224041"><tspan
           x="2981.7324"
           y="246.26274"
           id="tspan2"><tspan
             style="font-weight:bold;font-family:Arial;-inkscape-font-specification:Arial"
             id="tspan1">ENGINE</tspan></tspan></text>
      <text
         xml:space="preserve"
         transform="matrix(4.615518,0,0,4.615518,-12139.727,-738.6783)"
         id="text10324"
         style="font-style:normal;font-weight:normal;font-size:40px;line-height:1.25;font-family:sans-serif;letter-spacing:0px;word-spacing:0px;white-space:pre;shape-inside:url(#rect10326);display:inline;fill:#2c89a0;fill-opacity:1;stroke:none;stroke-width:0.0600788"><tspan
           x="2981.7324"
           y="246.26274"
           id="tspan4"><tspan
             style="font-weight:bold;font-family:Arial;-inkscape-font-specification:Arial"
             id="tspan3">?</tspan></tspan></text>
      <path
         style="fill:#8d5fd3;stroke-width:1.04804"
         d="m 645.16886,680.47472 v -8.77822 h 51.49886 51.49886 v 8.77822 8.77822 h -51.49886 -51.49886 z m 11.86678,-11.47671 c -0.0893,-0.0894 -0.16247,-14.96023 -0.16247,-33.04628 v -32.88372 l -1.46308,-0.41968 c -0.80468,-0.23082 -2.90158,-0.5278 -4.65978,-0.65996 -4.63141,-0.3481 -5.86462,0.29017 -6.78909,3.51365 -0.18796,0.65532 -0.34946,11.74687 -0.35896,24.64788 -0.0112,15.10545 -0.16289,23.98387 -0.42629,24.93797 -0.94403,3.4189 -5.88725,6.46492 -10.49171,6.46492 -5.35443,0 -10.33356,-3.55078 -12.03211,-8.5805 -0.83143,-2.46207 -0.8426,-2.85449 -0.8426,-29.71483 0,-26.14478 -0.03,-27.29668 -0.76717,-29.16615 -1.66082,-4.21355 -2.48548,-8.31369 -2.51768,-12.51784 -0.0286,-3.73978 0.0643,-4.29195 1.07081,-6.341 0.86216,-1.7558 1.62674,-2.61666 3.51129,-3.95375 4.72216,-3.35033 14.09577,-7.40895 14.7789,-6.39898 0.48826,0.72192 1.87045,3.36486 1.87045,3.57659 0,0.0983 -1.18172,0.57205 -2.62601,1.05269 -4.1533,1.38212 -6.0389,2.31542 -5.82167,2.88151 0.55692,1.4512 2.21342,9.86853 2.60213,13.22244 0.49608,4.27978 0.26522,7.05636 -0.78868,9.4846 -0.89995,2.07372 -1.90928,2.60403 -4.54082,2.3858 l -2.08984,-0.17331 v 26.641 c 0,19.8704 0.11909,26.91834 0.46869,27.73225 0.93467,2.1764 2.0281,3.34526 3.97915,4.25375 2.46292,1.14682 4.91396,1.19327 7.10097,0.13456 3.03304,-1.46827 2.84542,0.24717 2.9701,-27.15828 l 0.11148,-24.51651 1.02575,-2.18751 c 1.87129,-3.99074 4.62702,-5.27782 10.45469,-4.88291 2.05429,0.13921 4.29942,0.3576 4.98905,0.4853 l 1.25388,0.2322 0.11162,-19.25676 0.11155,-19.25676 1.26757,-2.67634 c 2.3096,-4.87662 5.92944,-8.22696 10.92492,-10.11149 2.19462,-0.82793 2.74553,-0.84885 25.64395,-0.97424 16.42862,-0.09 24.1961,0.006 26.06928,0.32192 7.42277,1.25201 13.69084,7.38417 15.09022,14.76305 0.25858,1.36363 0.39821,20.68213 0.39821,55.10234 v 53.00253 l -39.63208,0.1012 c -21.79765,0.0557 -39.70521,0.0281 -39.79462,-0.0613 z m 64.93538,-19.7475 c 1.58399,-1.33283 2.20663,-3.2713 1.6208,-5.04632 -1.69449,-5.13444 -9.36768,-4.0264 -9.36768,1.35273 0,1.49641 0.8848,3.26698 2.0353,4.07282 1.40692,0.98544 4.3196,0.79204 5.71158,-0.37923 z m -0.29428,-13.55638 c 1.82742,-1.22617 2.61337,-3.63986 1.84369,-5.66214 -1.30794,-3.43638 -5.51467,-4.21867 -8.01488,-1.49046 -3.82186,4.17036 1.47174,10.30584 6.17119,7.1526 z m 0.29428,-14.14377 c 1.58399,-1.33283 2.20663,-3.27131 1.6208,-5.04633 -1.31444,-3.98268 -6.9211,-4.58751 -8.80238,-0.94956 -1.16168,2.24644 -0.36538,5.26185 1.68297,6.37329 1.72586,0.93647 4.1336,0.77122 5.49861,-0.3774 z m -2.47989,-28.13355 c 1.95433,-1.04735 2.67568,-1.8415 3.67628,-4.0475 0.72623,-1.60094 0.79371,-2.53941 0.79958,-11.11205 0.007,-5.42563 -0.16764,-9.99033 -0.40751,-10.85409 -0.22771,-0.81986 -1.02791,-2.17022 -1.77832,-3.00081 -2.54764,-2.81996 -2.04053,-2.76833 -25.95807,-2.64293 l -21.32707,0.11182 -1.66139,1.17043 c -0.91378,0.64373 -2.06987,1.94419 -2.56916,2.8899 -0.88388,1.67422 -0.90777,1.99038 -0.90777,12.01243 0,11.38627 0.0881,11.85708 2.67729,14.31659 2.2044,2.09397 3.05126,2.16309 25.41303,2.07406 20.11559,-0.0801 20.51045,-0.0965 22.04311,-0.91785 z m -92.60918,-2.38237 c 0.90973,-2.32009 -0.94829,-16.48355 -2.16228,-16.48355 -0.70423,0 -2.92491,2.19932 -3.35023,3.31796 -0.43936,1.15559 -0.19285,1.73562 2.32021,5.46026 1.6178,2.39778 1.82973,3.10104 1.22294,4.05942 -0.28925,0.45691 -0.58045,0.4104 -1.74968,-0.27945 -1.6032,-0.94592 -1.73521,-0.689 -0.96567,1.87943 0.30734,1.02589 0.85692,1.70191 1.85312,2.27963 1.87129,1.08511 2.32936,1.0473 2.83159,-0.2337 z"
         id="path13207" />
      <text
         xml:space="preserve"
         transform="matrix(1.2376963,0,0,1.2376963,-3066.147,210.2884)"
         id="text13381"
         style="font-style:normal;font-weight:normal;font-size:40px;line-height:1.25;font-family:sans-serif;letter-spacing:0px;word-spacing:0px;white-space:pre;shape-inside:url(#rect13383);display:inline;fill:#8d5fd3;fill-opacity:1;stroke:none;stroke-width:0.224041"><tspan
           x="2981.7324"
           y="246.26274"
           id="tspan6"><tspan
             style="font-weight:bold;font-family:Arial;-inkscape-font-specification:Arial"
             id="tspan5">FUEL</tspan></tspan></text>
      <path
         style="fill:#ff0066;stroke-width:1.04804"
         d="m 696.96966,1072.8064 c -2.70688,-0.1532 -4.39851,-0.2839 -6.03575,-0.4663 -30.10456,-3.3548 -55.73182,-23.9386 -65.60038,-52.6903 -2.19252,-6.3879 -3.48638,-12.8052 -4.06348,-20.15425 -0.16482,-2.0988 -0.16482,-8.6081 0,-10.70686 0.37739,-4.80573 1.01942,-8.97744 2.01937,-13.12119 7.10655,-29.44894 30.60579,-52.28824 60.21895,-58.5278 5.50987,-1.16095 10.39914,-1.65859 16.29546,-1.65859 3.71505,0 5.56848,0.0969 8.86991,0.46374 23.97645,2.6641 45.50993,16.36603 58.22529,37.04923 6.03581,9.81802 9.83526,20.8654 11.10121,32.27813 0.37622,3.39159 0.46513,5.08704 0.46513,8.86994 0,3.7829 -0.0889,5.4783 -0.46513,8.86995 -2.81215,25.3518 -17.9297,47.8469 -40.45985,60.2049 -9.88005,5.4193 -20.80543,8.6151 -32.27814,9.4414 -1.60028,0.1153 -7.12725,0.2139 -8.29259,0.148 z m 13.66863,-16.7096 c 0.79113,-0.3895 1.25543,-0.8964 1.56317,-1.7063 0.18969,-0.4992 0.19869,-0.9583 0.19869,-10.1265 v -9.6035 h -11.96651 -11.96652 v 9.5914 c 0,8.3705 0.0206,9.65 0.16176,10.0509 0.34645,0.9838 1.01719,1.6296 2.07407,1.997 0.51277,0.1782 1.11247,0.1883 9.89043,0.1657 l 9.34459,-0.024 z m -37.9166,-7.9478 v -1.3121 h -2.72921 -2.72921 v -0.9448 -0.9447 h 2.67672 2.67673 v -1.3645 -1.3646 h -2.67673 -2.67672 v -0.8398 -0.8397 h 2.73235 2.73234 l -0.0293,-1.3384 -0.0293,-1.3384 h -4.19883 -4.19878 l -0.0271,5.7995 -0.0272,5.7996 h 4.25215 4.25217 z m 57.10342,-0.9429 v -2.2551 l 2.70296,-0.028 2.70296,-0.028 v -1.3121 -1.3121 l -2.70296,-0.028 -2.70296,-0.028 v -0.8362 -0.8363 l 2.75545,-0.028 2.75545,-0.028 v -1.3121 -1.3121 h -4.19877 -4.19881 l -0.027,5.7995 -0.027,5.7996 h 1.47045 1.47046 z m -44.6263,0.9186 c 0.15217,-0.1128 0.3878,-0.3659 0.5236,-0.5627 0.2209,-0.32 0.24055,-0.4362 0.1864,-1.1027 -0.0332,-0.4097 -0.22708,-1.3891 -0.43063,-2.1764 -0.20354,-0.7873 -0.37009,-1.5732 -0.37009,-1.7465 0,-0.1732 0.12051,-0.729 0.26782,-1.235 0.7801,-2.6801 0.74594,-4.8402 -0.14407,-9.1077 -0.53649,-2.5724 -0.59054,-2.9661 -0.43321,-3.1557 0.17545,-0.2114 0.67659,-0.179 2.2514,0.1454 l 1.36461,0.281 0.0299,1.076 0.0299,1.0759 h 11.96672 11.9667 l -0.0301,-5.0123 -0.0301,-5.0122 -0.2793,-0.5249 c -0.36568,-0.6872 -0.84434,-1.1336 -1.57183,-1.466 l -0.59146,-0.2703 -9.59057,0.029 -9.59057,0.029 -0.52484,0.2793 c -0.62975,0.3351 -1.10233,0.8138 -1.43418,1.4527 -0.2316,0.4459 -0.24712,0.6003 -0.27726,2.7555 -0.0176,1.2557 -0.0689,2.2831 -0.11411,2.2831 -0.0452,0 -0.55043,-0.071 -1.12273,-0.1569 -3.35966,-0.5064 -5.15833,0.2482 -5.60464,2.3513 -0.18952,0.8931 -0.0931,1.8981 0.40413,4.2132 0.53528,2.492 0.64347,3.3026 0.64347,4.8201 0,1.3155 -0.18236,2.528 -0.53187,3.5363 -0.3982,1.1487 -0.38401,1.6916 0.0944,3.6134 0.2361,0.9483 0.46115,1.9747 0.5001,2.2809 0.1293,1.0167 0.82421,1.6518 1.70751,1.5606 0.25197,-0.026 0.58262,-0.1395 0.73479,-0.2522 z M 653.0978,1037.157 c 0.45334,-0.2709 2.1273,-1.902 11.0327,-10.7499 6.5727,-6.5302 6.59336,-6.5537 6.44941,-7.3152 -0.20518,-1.0856 -1.42483,-1.6843 -2.31942,-1.1387 -0.1732,0.1056 -3.64331,3.4893 -7.71134,7.5193 l -7.39643,7.3271 -0.35403,-0.4079 c -0.19471,-0.2244 -0.81637,-1.022 -1.38148,-1.7725 -5.87481,-7.8026 -9.71051,-16.6803 -11.33829,-26.2425 -0.42985,-2.5251 -0.84066,-6.50675 -0.84209,-8.16145 l -3.9e-4,-0.4986 h 5.33792 5.33793 l 0.35668,-0.2382 c 0.74116,-0.4952 0.93074,-1.5485 0.41024,-2.2795 -0.45179,-0.6345 -0.42102,-0.6314 -6.19093,-0.6314 h -5.25184 v -0.6215 c 0,-1.614 0.41177,-5.5777 0.84299,-8.11476 1.92828,-11.34471 7.21007,-22.08111 15.09739,-30.68873 l 0.65354,-0.71322 3.80078,3.7887 c 3.53909,3.52784 3.83134,3.79363 4.24472,3.86019 1.23929,0.19959 2.22895,-0.985 1.76366,-2.11101 -0.11784,-0.28515 -1.27284,-1.51291 -3.85903,-4.10211 l -3.69087,-3.69516 0.6845,-0.6272 c 9.51855,-8.72203 21.36568,-14.13958 34.10174,-15.5943 1.56898,-0.1792 4.08377,-0.37263 4.85326,-0.3733 l 0.49701,-3.9e-4 0.0278,9.80884 0.0278,9.80884 0.36371,0.37523 c 0.82809,0.85431 2.05766,0.64957 2.6151,-0.43545 0.0845,-0.16461 0.1178,-2.95533 0.1178,-9.89337 v -9.6641 h 0.62155 c 1.06696,0 4.49083,0.30894 6.3752,0.57524 12.06682,1.70533 23.3612,7.05682 32.42827,15.36514 l 0.71324,0.65353 -3.79089,3.80078 c -3.64591,3.65544 -3.79345,3.81884 -3.85904,4.27315 -0.16916,1.17227 0.87694,2.11088 1.98999,1.78547 0.35254,-0.10307 1.05599,-0.75409 4.17235,-3.86132 l 3.74831,-3.73735 0.62653,0.68376 c 8.72317,9.51982 14.13865,21.36265 15.59363,34.10106 0.17936,1.57028 0.37261,4.08394 0.37329,4.85484 v 0.4986 h -5.338 -5.3379 l -0.35667,0.2383 c -0.74119,0.4951 -0.93079,1.5485 -0.41026,2.2794 0.45191,0.6347 0.41954,0.6314 6.20687,0.6314 h 5.26786 l -0.0724,1.4408 c -0.62038,12.36145 -4.95785,24.15335 -12.46927,33.89895 -0.63037,0.8178 -1.20663,1.5372 -1.28066,1.5986 -0.10272,0.085 -1.89775,-1.6359 -7.59911,-7.2867 -4.10549,-4.0691 -7.58855,-7.4456 -7.74014,-7.5032 -0.8635,-0.3283 -1.78677,0.06 -2.10167,0.885 -0.37963,0.9942 -0.67112,0.6384 5.81058,7.0929 11.65855,11.6096 11.32624,11.292 12.03056,11.4968 0.52103,0.1514 0.70655,0.1607 1.1645,0.058 0.72583,-0.1624 1.04306,-0.4153 2.06962,-1.6501 10.86065,-13.0631 16.18726,-30.1382 14.71462,-47.16925 -0.86694,-10.02599 -3.93736,-19.5353 -9.04949,-28.02688 -10.48103,-17.41049 -28.42064,-29.00437 -48.46589,-31.32242 -3.91133,-0.45232 -9.08467,-0.54566 -12.83337,-0.23158 -12.49276,1.0467 -24.02932,5.418 -33.98302,12.87645 -5.8833,4.40845 -11.12101,9.9495 -15.21816,16.0995 -3.01799,4.53013 -5.75204,10.08649 -7.49253,15.22689 -4.03619,11.92064 -4.52011,25.08544 -1.37059,37.28719 1.98848,7.7037 5.40353,15.0269 10.04876,21.5483 1.13687,1.5961 3.27351,4.2824 3.82519,4.8093 0.69854,0.6671 1.88407,0.8035 2.70742,0.3115 z m 48.57366,-33.7343 c 3.23817,-0.6672 6.00528,-3.078 7.05948,-6.15035 1.8799,-5.4788 -1.4478,-11.2724 -7.13658,-12.4251 -1.17317,-0.23772 -3.18091,-0.16417 -4.3098,0.15788 -0.9777,0.27892 -2.29102,0.91964 -3.01878,1.47274 l -0.552,0.41951 -10.88968,-6.41602 c -5.98933,-3.52882 -12.49571,-7.36426 -14.45865,-8.52319 -4.76772,-2.81493 -4.82244,-2.84221 -5.69922,-2.84114 -2.23175,0.002 -3.73989,2.18711 -2.95619,4.28173 0.11797,0.31533 0.39048,0.75467 0.60557,0.9763 0.25577,0.26355 3.53171,2.25233 9.46894,5.74845 9.18713,5.40982 12.933,7.61701 17.91398,10.55544 l 2.74789,1.6211 -0.0583,1.2622 c -0.0684,1.4799 0.062,2.4722 0.48787,3.7101 1.04608,3.04075 3.79724,5.45935 6.98761,6.14295 0.98612,0.2112 2.80156,0.2148 3.80793,0.01 z m -2.54993,-6.22295 c -0.95781,-0.2504 -1.72856,-0.8779 -2.14953,-1.7499 -0.19639,-0.4069 -0.25121,-0.6923 -0.25121,-1.3077 0,-0.9207 0.26846,-1.5942 0.87868,-2.2044 0.61021,-0.6102 1.28372,-0.8787 2.20436,-0.8787 0.92064,0 1.59414,0.2685 2.20436,0.8787 0.61021,0.6102 0.87868,1.2837 0.87868,2.2044 0,0.9206 -0.26847,1.5941 -0.87868,2.2043 -0.69859,0.6987 -2.00307,1.0842 -2.88666,0.8533 z"
         id="path15118" />
      <text
         xml:space="preserve"
         transform="matrix(1.2376963,0,0,1.2376963,-3175.5179,586.90687)"
         id="text15238"
         style="font-style:normal;font-weight:normal;font-size:40px;line-height:1.25;font-family:sans-serif;letter-spacing:0px;word-spacing:0px;white-space:pre;shape-inside:url(#rect15240);display:inline;fill:#ff0066;fill-opacity:1;stroke:none;stroke-width:0.224041"><tspan
           x="2981.7324"
           y="246.26274"
           id="tspan8"><tspan
             style="font-weight:bold;font-family:Arial;-inkscape-font-specification:Arial"
             id="tspan7">CONSUMPTION</tspan></tspan></text>
      <path
         style="fill:#aad400;stroke-width:1.04804"
         d="m 293.15737,739.2874 c -18.06685,-2.02204 -33.21644,-15.15075 -37.94577,-32.88395 -1.34717,-5.05135 -1.35874,-16.67566 -0.0217,-21.80391 1.16572,-4.4712 4.50072,-11.56574 7.0737,-15.04784 9.9775,-13.50291 27.07952,-20.55168 42.9646,-17.70827 4.20118,0.752 4.44309,0.64344 5.06811,-2.27443 0.21272,-0.99303 1.13131,-3.57092 2.04131,-5.72862 7.42541,-17.60634 26.29668,-28.38614 45.01457,-25.71359 5.81333,0.83003 8.68811,1.73067 14.19545,4.4473 7.45063,3.67519 14.2316,10.39044 18.4363,18.25759 l 1.57921,2.95481 3.09917,-1.58616 c 17.59441,-9.00503 39.82179,-2.0531 49.655,15.53036 2.89991,5.18559 4.39095,10.77322 4.60439,17.25579 l 0.1793,5.44201 4.57153,0.83375 c 8.17475,1.49088 12.09347,3.47324 17.29054,8.74658 8.32841,8.45073 10.72847,21.6355 5.85807,32.18161 -4.45186,9.63972 -12.44139,15.47585 -23.50883,17.17247 -4.26655,0.65404 -154.26836,0.58334 -160.15494,-0.0755 z m 97.46134,-29.98872 c 0.21009,-0.0219 1.00039,-0.97441 1.75618,-2.11652 0.7558,-1.14211 1.63515,-2.07476 1.95416,-2.07256 0.31892,0.002 1.09864,0.91258 1.7327,2.02308 1.03962,1.82083 1.38805,2.03778 3.5492,2.20966 1.31811,0.10484 2.51405,3.4e-4 2.65781,-0.2322 0.14368,-0.23254 -0.92778,-2.14291 -2.38122,-4.24529 -1.45335,-2.10237 -2.64241,-3.98826 -2.64241,-4.19087 0,-0.2026 1.05124,-1.84158 2.33605,-3.64217 1.2849,-1.80059 2.33614,-3.52395 2.33614,-3.82969 0,-0.62291 -3.59205,-0.75129 -4.43766,-0.15859 -0.29931,0.20977 -1.07447,1.14065 -1.72255,2.06861 -0.64818,0.92796 -1.33773,1.67834 -1.53242,1.6675 -0.19469,-0.0108 -0.9942,-0.94528 -1.77675,-2.07656 -1.30168,-1.88198 -1.62172,-2.05686 -3.76377,-2.05686 -2.74881,0 -2.87944,0.45209 -0.8784,3.04014 0.8045,1.04043 1.97265,2.62882 2.59605,3.52976 l 1.13348,1.63807 -2.64439,3.91418 c -1.45439,2.1528 -2.52806,4.10226 -2.38599,4.33214 0.21133,0.34194 1.94214,0.42532 4.11379,0.19817 z m -16.61828,-7.85075 c 3.09781,-0.86033 6.18929,-3.57716 7.91898,-6.95928 1.42325,-2.78297 1.55374,-3.47302 1.51735,-8.02438 -0.031,-3.87501 -0.28118,-5.51824 -1.1279,-7.40799 -2.18195,-4.86976 -6.53645,-7.71865 -12.38146,-8.10044 -6.68244,-0.4365 -11.3673,2.0805 -14.03991,7.54312 -1.27422,2.60442 -1.45108,3.56173 -1.46063,7.9063 -0.0111,5.04454 0.51552,7.19344 2.45209,10.00592 1.31383,1.90807 4.10134,3.98605 6.49116,4.83889 2.34222,0.83586 7.95682,0.94037 10.63032,0.19786 z m -7.73408,-5.00973 c -1.48266,-0.2888 -3.77046,-2.59071 -4.65508,-4.6838 -0.95276,-2.2543 -0.91902,-9.13069 0.054,-11.01236 3.36947,-6.51582 12.97981,-5.78128 14.85361,1.13528 1.32954,4.90764 0.41455,10.34903 -2.15281,12.80254 -1.98054,1.8927 -4.54827,2.45013 -8.09975,1.75834 z m -35.47128,-3.76134 c 0,-4.83712 0.19504,-8.9153 0.43342,-9.06262 0.23838,-0.14733 1.5189,1.53258 2.84559,3.73313 1.32669,2.20055 3.77049,6.22032 5.43067,8.93283 l 3.0185,4.93184 3.22089,0.15456 3.22086,0.15456 v -15.10699 -15.10699 l -2.72549,0.15692 -2.72548,0.15692 -0.14177,9.21474 c -0.0779,5.06812 -0.31175,9.21475 -0.5195,9.21475 -0.20775,0 -2.57829,-3.64008 -5.26785,-8.08907 -6.69896,-11.08123 -6.33601,-10.68329 -9.57278,-10.49535 l -2.66804,0.15493 -0.13774,14.92529 -0.13775,14.9253 h 2.86323 2.86324 z"
         id="path17457" />
      <text
         xml:space="preserve"
         transform="matrix(1.2376963,0,0,1.2376963,-3513.8139,498.3685)"
         id="text17595"
         style="font-style:normal;font-weight:normal;font-size:40px;line-height:1.25;font-family:sans-serif;letter-spacing:0px;word-spacing:0px;white-space:pre;shape-inside:url(#rect17597);display:inline;fill:#aad400;fill-opacity:1;stroke:none;stroke-width:0.224041"><tspan
           x="2981.7324"
           y="246.26274"
           id="tspan10"><tspan
             style="font-weight:bold;font-family:Arial;-inkscape-font-specification:Arial"
             id="tspan9">NOX EMISSIONS</tspan></tspan></text>
      <path
         style="fill:#3771c8;stroke-width:1.04804"
         d="m 268.54299,437.60765 c -5.66122,-2.67823 -10.44607,-8.00471 -12.03551,-13.39786 l -1.1839,-4.01714 -6.49742,-0.28418 c -5.85729,-0.25617 -6.67502,-0.46178 -8.30023,-2.08698 -1.45798,-1.45797 -1.8731,-2.6785 -2.17029,-6.38089 l -0.36749,-4.57807 2.71137,-0.22228 2.71137,-0.22228 0.20799,-4.77807 c 0.23567,-5.41423 -0.44364,-6.74797 -3.43699,-6.74797 -1.85779,0 -2.00981,-0.1985 -2.00621,-2.61955 0.008,-5.2538 1.1595,-7.38303 7.15433,-13.22676 12.31683,-12.00643 25.92989,-18.34246 43.94041,-20.45152 3.59234,-0.42066 12.27149,-0.96157 19.287,-1.20201 10.7372,-0.36798 13.69386,-0.24022 18.68615,0.80744 3.28284,0.68892 5.93068,1.60329 5.93068,2.04802 0,0.44189 1.22734,3.20338 2.72743,6.13663 l 2.72743,5.33321 -4.26893,-2.01889 c -7.88931,-3.73105 -12.991,-4.41313 -29.10996,-3.89197 -19.33815,0.62525 -24.18774,1.24523 -26.30541,3.3629 -3.53705,3.53705 -3.22651,9.14735 0.66619,12.0354 1.9221,1.42603 2.83074,1.47124 36.42656,1.8118 30.75849,0.31179 34.59425,0.47329 35.7503,1.50519 0.71225,0.63575 3.18108,2.09887 5.48628,3.25136 12.61668,6.30768 25.09519,7.22444 38.29847,2.81363 l 4.76823,-1.59289 4.50488,2.33569 c 7.27248,3.77061 8.28831,5.05556 9.3397,11.81424 1.14643,7.3693 0.64508,14.71137 -1.09119,15.98097 -0.84858,0.62048 -3.68049,0.91483 -8.80164,0.91483 -7.35991,0 -7.55089,0.0396 -7.56587,1.57173 -0.0484,4.99574 -6.45271,12.9322 -12.90777,15.99671 -3.38845,1.60865 -5.14454,1.98989 -9.16792,1.99034 -10.79047,0.002 -18.58527,-5.52355 -21.99158,-15.58704 l -1.22615,-3.62247 -25.11289,-0.18326 -25.11289,-0.18327 -1.18851,3.63366 c -3.31585,10.13764 -11.4051,15.94356 -22.21215,15.94238 -4.10852,-4.5e-4 -5.84599,-0.37383 -9.26387,-1.99078 z m 14.54382,-8.7321 c 3.98913,-1.66677 8.1668,-7.79473 8.1668,-11.97937 0,-2.19761 -1.74127,-6.2899 -3.55561,-8.35631 -7.73966,-8.81499 -22.28286,-3.36112 -22.28286,8.35631 0,3.36127 1.73929,7.56307 3.9631,9.57406 3.44606,3.1163 9.47512,4.17415 13.70857,2.40531 z m 96.62196,-0.39264 c 4.43807,-2.01541 6.80055,-5.6185 7.07957,-10.79739 0.27179,-5.04446 -1.49175,-8.81902 -5.32837,-11.40452 -9.70797,-6.54221 -22.62588,2.63096 -19.60668,13.92293 0.89258,3.33829 5.78675,8.60352 8.47409,9.11656 3.56136,0.67991 6.64628,0.40448 9.38139,-0.83758 z m -7.06658,-44.03812 c -14.36544,-3.12221 -25.94321,-13.1716 -30.53037,-26.50004 -1.27678,-3.70984 -1.5887,-6.12537 -1.58835,-12.30042 6.8e-4,-11.65551 2.69539,-18.44009 10.79261,-27.17294 5.45954,-5.88813 5.7203,-6.79341 3.44098,-11.94619 -1.83113,-4.13956 -2.50833,-12.76652 -1.34342,-17.11396 1.07901,-4.02685 6.78541,-9.78013 10.92703,-11.01678 1.83418,-0.54767 7.66934,-0.85852 16.11596,-0.85852 13.06052,0 13.29229,0.0261 17.02856,1.921 4.34916,2.20567 7.90043,6.44398 9.09702,10.85686 1.11416,4.10887 0.32112,11.06155 -1.78697,15.66613 -0.97142,2.12191 -1.76622,4.6046 -1.76622,5.51708 0,1.06786 1.60951,3.41295 4.51678,6.58094 6.9824,7.60855 11.52554,18.47475 11.52554,27.56638 0,12.34053 -8.10325,26.90616 -18.41169,33.09522 -8.49688,5.1014 -20.00945,7.44572 -28.01746,5.70524 z m -14.32023,-20.28895 c 1.13593,-1.13593 1.3971,-2.32849 1.3971,-6.37961 v -4.98252 l 5.58073,5.33179 c 5.58308,5.33405 7.78263,6.35852 9.64761,4.49353 2.00164,-2.00163 0.87261,-4.0359 -5.79795,-10.44665 -3.64991,-3.50776 -6.6362,-6.93477 -6.6362,-7.61558 0,-0.68081 2.98629,-4.04057 6.6362,-7.46614 6.72774,-6.31421 7.8908,-8.42383 5.79795,-10.51668 -1.81317,-1.81317 -3.9694,-0.80651 -9.582,4.47342 l -5.64634,5.31167 v -4.9624 c 0,-4.031 -0.26222,-5.22462 -1.3971,-6.35949 -1.6819,-1.68191 -3.01899,-1.77106 -4.49065,-0.29938 -1.64878,1.64876 -1.64878,38.06866 0,39.71742 1.47166,1.47167 2.80875,1.38253 4.49065,-0.29938 z m 46.15785,-3.439 c 1.95175,-1.9517 2.04194,-2.31727 2.04194,-8.27431 0,-7.52999 -0.83367,-8.76239 -5.69163,-8.41359 -2.93631,0.21083 -3.0474,0.3039 -3.25021,2.723 -0.13582,1.62039 0.17247,2.82209 0.87324,3.40364 0.59569,0.49441 1.08313,1.96064 1.08313,3.2583 v 2.35939 h -5.58839 -5.58838 V 344.24723 332.7212 h 5.58838 c 5.00123,0 5.58839,0.13781 5.58839,1.31156 0,1.92748 1.69125,3.0051 4.32027,2.75275 2.22163,-0.21325 2.3245,-0.35412 2.52562,-3.46073 0.16947,-2.61798 -0.11977,-3.62175 -1.50972,-5.23911 -1.68887,-1.96533 -1.86717,-2.00476 -10.08934,-2.23211 l -8.37006,-0.23143 -2.34487,2.09354 -2.34487,2.09354 -0.22158,12.44762 c -0.254,14.26784 0.0257,16.52761 2.33177,18.83359 1.57523,1.57524 2.14082,1.66832 10.13636,1.66832 8.42806,0 8.47769,-0.01 10.50995,-2.0419 z m -11.0381,-55.42123 c 2.64032,-1.73 4.02788,-4.80899 4.14327,-9.19391 0.11462,-4.35773 -1.14619,-6.78749 -4.3934,-8.46671 -1.76685,-0.91364 -4.26258,-1.06855 -14.30204,-0.88772 l -12.16172,0.21906 -2.28192,2.28737 c -2.14354,2.14868 -2.27887,2.57554 -2.23156,7.03925 0.0542,5.11098 0.94073,7.08559 4.11665,9.16897 2.69957,1.77089 24.35694,1.63804 27.11072,-0.16631 z"
         id="path20350" />
      <text
         xml:space="preserve"
         transform="matrix(1.2376963,0,0,1.2376963,-3472.8484,202.3596)"
         id="text20524"
         style="font-style:normal;font-weight:normal;font-size:40px;line-height:1.25;font-family:sans-serif;letter-spacing:0px;word-spacing:0px;white-space:pre;shape-inside:url(#rect20526);display:inline;fill:#3771c8;fill-opacity:1;stroke:none;stroke-width:0.224041"><tspan
           x="2981.7324"
           y="246.26274"
           id="tspan12"><tspan
             style="font-weight:bold;font-family:Arial;-inkscape-font-specification:Arial"
             id="tspan11">WEIGHT</tspan></tspan></text>
      <rect
         style="fill:#ff6600;fill-opacity:1;stroke-width:1.57207;stroke-linecap:round;stroke-linejoin:round"
         id="rect23345"
         width="27.75083"
         height="834.5788"
         x="1051.7771"
         y="206.77545" />
      <text
         xml:space="preserve"
         transform="matrix(1.2376963,0,0,1.2376963,-2707.7183,802.50872)"
         id="text23429"
         style="font-style:normal;font-weight:normal;font-size:40px;line-height:1.25;font-family:sans-serif;letter-spacing:0px;word-spacing:0px;white-space:pre;shape-inside:url(#rect23431);display:inline;fill:#ff6600;fill-opacity:1;stroke:none;stroke-width:0.224041"><tspan
           x="2981.7324"
           y="246.26274"
           id="tspan14"><tspan
             style="font-weight:bold;font-family:Arial;-inkscape-font-specification:Arial"
             id="tspan13">MODEL</tspan></tspan></text>
      <circle
         style="fill:#8d5fd3;fill-opacity:1;stroke:#ffffff;stroke-width:10.4804;stroke-linecap:round;stroke-linejoin:round;stroke-miterlimit:4;stroke-dasharray:none"
         id="path23575"
         cx="1064.9917"
         cy="604.32123"
         r="29.072302" />
      <circle
         style="fill:#d400aa;fill-opacity:1;stroke:#ffffff;stroke-width:10.4804;stroke-linecap:round;stroke-linejoin:round;stroke-miterlimit:4;stroke-dasharray:none"
         id="circle23821"
         cx="1064.9917"
         cy="267.3468"
         r="29.072302" />
      <circle
         style="fill:#3771c8;fill-opacity:1;stroke:#ffffff;stroke-width:10.4804;stroke-linecap:round;stroke-linejoin:round;stroke-miterlimit:4;stroke-dasharray:none"
         id="circle23823"
         cx="1064.9917"
         cy="425.92297"
         r="29.072302" />
      <circle
         style="fill:#aad400;fill-opacity:1;stroke:#ffffff;stroke-width:10.4804;stroke-linecap:round;stroke-linejoin:round;stroke-miterlimit:4;stroke-dasharray:none"
         id="circle23825"
         cx="1064.9917"
         cy="747.98828"
         r="29.072302" />
      <circle
         style="fill:#ff0066;fill-opacity:1;stroke:#ffffff;stroke-width:10.4804;stroke-linecap:round;stroke-linejoin:round;stroke-miterlimit:4;stroke-dasharray:none"
         id="circle23819"
         cx="1064.9917"
         cy="994.15436"
         r="29.072302" />
      <path
         style="fill:#ff0066;fill-opacity:1;stroke:#ff0066;stroke-width:5.24022;stroke-linecap:round;stroke-linejoin:round;stroke-miterlimit:4;stroke-dasharray:none;stroke-opacity:0.988235;marker-end:url(#TriangleOutM)"
         d="m 679.54961,994.15435 c 70.03809,0 140.07589,0 210.11345,0"
         id="path41927"
         inkscape:path-effect="#path-effect41929"
         inkscape:original-d="m 679.54961,994.15435 c 70.03809,0 140.07589,0 210.11345,0"
         transform="translate(123.79141)" />
      <path
         style="fill:#ff0066;fill-opacity:1;stroke:#aad400;stroke-width:5.24022;stroke-linecap:round;stroke-linejoin:round;stroke-miterlimit:4;stroke-dasharray:none;stroke-opacity:1;marker-end:url(#TriangleOutM)"
         d="m 478.68644,747.03978 c 136.99275,0 273.98492,0 410.97663,0"
         id="path47491"
         inkscape:path-effect="#path-effect47495"
         inkscape:original-d="m 478.68644,747.03978 c 136.99275,0 273.98492,0 410.97663,0"
         transform="translate(123.79141)" />
      <path
         style="fill:#8d5fd3;fill-opacity:1;stroke:#8d5fd3;stroke-width:5.24022;stroke-linecap:round;stroke-linejoin:round;stroke-miterlimit:4;stroke-dasharray:none;stroke-opacity:1;marker-end:url(#TriangleOutM)"
         d="m 679.54961,604.3212 c 70.03809,0 140.07589,0 210.11345,0"
         id="path47503"
         inkscape:path-effect="#path-effect47507"
         inkscape:original-d="m 679.54961,604.3212 c 70.03809,0 140.07589,0 210.11345,0"
         transform="translate(123.79141)" />
      <path
         style="fill:#ff0066;fill-opacity:1;stroke:#3771c8;stroke-width:5.24022;stroke-linecap:round;stroke-linejoin:round;stroke-miterlimit:4;stroke-dasharray:none;stroke-opacity:1;marker-end:url(#TriangleOutM)"
         d="m 342.57518,425.92298 c 182.36333,0 364.72592,0 547.08787,0"
         id="path47509"
         inkscape:path-effect="#path-effect47513"
         inkscape:original-d="m 342.57518,425.92298 c 182.36333,0 364.72592,0 547.08787,0"
         transform="translate(123.79141)" />
      <path
         style="fill:#ff0066;fill-opacity:1;stroke:#d400aa;stroke-width:5.24022;stroke-linecap:round;stroke-linejoin:round;stroke-miterlimit:4;stroke-dasharray:none;stroke-opacity:1;marker-end:url(#TriangleOutM)"
         d="m 679.54961,267.34679 c 70.03809,0 140.07589,0 210.11345,0"
         id="path47497"
         inkscape:path-effect="#path-effect47501"
         inkscape:original-d="m 679.54961,267.34679 c 70.03809,0 140.07589,0 210.11345,0"
         transform="translate(123.79141)" />
      <path
         style="fill:#ff6600;fill-opacity:1;stroke:#ff6600;stroke-width:4.8058;stroke-linecap:round;stroke-linejoin:round;stroke-miterlimit:4;stroke-dasharray:none;stroke-opacity:1;marker-end:url(#TriangleOutM)"
         d="m 1009.9071,604.32122 c 112.9248,0 225.8491,0 338.7731,0"
         id="path63905"
         inkscape:path-effect="#path-effect63909"
         inkscape:original-d="m 1009.9071,604.32122 c 112.9248,0 225.8491,0 338.7731,0"
         transform="matrix(1.0903982,0,0,1.0903982,3.6237505,-54.629523)" />
    </g>
  </g>
</svg>
